<svg xmlns="http://www.w3.org/2000/svg" xmlns:xlink="http://www.w3.org/1999/xlink" width="656" height="404" viewBox="0 0 656 404"><defs><clipPath id="b"><rect width="656" height="404"/></clipPath></defs><g id="a" clip-path="url(#b)"><path d="M9.609-42.832H23.643L31.787,0H21.475L20.039-7.969H11.748L10.371,0H.967ZM18.428-16.2,16.084-31.318h-.176L13.389-16.2ZM34.863-42.773h15.41a14.046,14.046,0,0,1,4.248.586,7.962,7.962,0,0,1,3.311,1.963A9.2,9.2,0,0,1,59.971-36.8a15.037,15.037,0,0,1,.732,5.068q0,4.541-1.611,6.855a8.2,8.2,0,0,1-3.955,3.164v.234a8.238,8.238,0,0,1,4.16,3.018,10.385,10.385,0,0,1,1.67,6.328q0,6.006-2.9,9.082A9.761,9.761,0,0,1,50.625,0H34.863ZM47.93-8.291a2.2,2.2,0,0,0,2.051-1.2,6.883,6.883,0,0,0,.645-3.281,6.3,6.3,0,0,0-.7-3.4,2.366,2.366,0,0,0-2.109-1.055H45.059v8.936ZM47.7-25.605a2.341,2.341,0,0,0,2.227-1.143,7.537,7.537,0,0,0,.645-3.6q0-4.277-2.578-4.277h-2.93v9.023ZM72.363-.059a10.976,10.976,0,0,1-4.248-2.256,10.378,10.378,0,0,1-2.725-3.867,13.907,13.907,0,0,1-1-5.566V-31.025a13.391,13.391,0,0,1,1.025-5.361,11.217,11.217,0,0,1,2.842-3.9,11.773,11.773,0,0,1,4.219-2.373,16.681,16.681,0,0,1,5.244-.791,18.691,18.691,0,0,1,5.244.732,11.261,11.261,0,0,1,4.248,2.256,10.831,10.831,0,0,1,2.842,3.867,13.353,13.353,0,0,1,1.055,5.566v19.219A13.2,13.2,0,0,1,90.059-6.3a10.894,10.894,0,0,1-2.842,3.9A11.684,11.684,0,0,1,82.969-.088a17.439,17.439,0,0,1-5.186.762A19.947,19.947,0,0,1,72.363-.059ZM79.98-9.141a3.4,3.4,0,0,0,.82-2.373V-31.377a2.992,2.992,0,0,0-.879-2.344,3.162,3.162,0,0,0-2.2-.791q-2.93,0-2.93,3.135v19.8a3.568,3.568,0,0,0,.732,2.4,2.77,2.77,0,0,0,2.256.879A2.8,2.8,0,0,0,79.98-9.141ZM98.174-2.256q-3.34-2.9-3.34-9.2V-42.773h10.313v31.143a3.539,3.539,0,0,0,.82,2.549,2.951,2.951,0,0,0,2.227.85,2.769,2.769,0,0,0,2.168-.879,3.642,3.642,0,0,0,.791-2.52V-42.773h9.756v31.143A12.668,12.668,0,0,1,119.883-6.3a11.082,11.082,0,0,1-2.871,3.838,12.369,12.369,0,0,1-4.219,2.344,16.662,16.662,0,0,1-5.186.791Q101.543.674,98.174-2.256Zm33.633-31.875h-8.027v-8.643h26.338v8.643h-8V0H131.807Zm38,34.072a10.976,10.976,0,0,1-4.248-2.256,10.378,10.378,0,0,1-2.725-3.867,13.907,13.907,0,0,1-1-5.566V-31.025a13.391,13.391,0,0,1,1.025-5.361,11.217,11.217,0,0,1,2.842-3.9,11.773,11.773,0,0,1,4.219-2.373,16.681,16.681,0,0,1,5.244-.791,18.691,18.691,0,0,1,5.244.732,11.261,11.261,0,0,1,4.248,2.256,10.831,10.831,0,0,1,2.842,3.867,13.353,13.353,0,0,1,1.055,5.566v19.219A13.2,13.2,0,0,1,187.5-6.3a10.894,10.894,0,0,1-2.842,3.9A11.684,11.684,0,0,1,180.41-.088a17.439,17.439,0,0,1-5.186.762A19.947,19.947,0,0,1,169.8-.059Zm7.617-9.082a3.4,3.4,0,0,0,.82-2.373V-31.377a2.992,2.992,0,0,0-.879-2.344,3.162,3.162,0,0,0-2.2-.791q-2.93,0-2.93,3.135v19.8a3.568,3.568,0,0,0,.732,2.4,2.77,2.77,0,0,0,2.256.879A2.8,2.8,0,0,0,177.422-9.141Zm18.193,6.885q-3.34-2.9-3.34-9.2V-42.773h10.313v31.143a3.539,3.539,0,0,0,.82,2.549,2.951,2.951,0,0,0,2.227.85,2.769,2.769,0,0,0,2.168-.879,3.642,3.642,0,0,0,.791-2.52V-42.773h9.756v31.143A12.668,12.668,0,0,1,217.324-6.3a11.082,11.082,0,0,1-2.871,3.838,12.369,12.369,0,0,1-4.219,2.344,16.662,16.662,0,0,1-5.186.791Q198.984.674,195.615-2.256Zm26.748-40.518h13.8a16.09,16.09,0,0,1,5.039.732,10.247,10.247,0,0,1,3.9,2.314,9.958,9.958,0,0,1,2.49,4.043,18.185,18.185,0,0,1,.879,5.977,17.1,17.1,0,0,1-1.289,7.324,9.768,9.768,0,0,1-3.4,4.014L248.994,0H238.359l-3.691-16.143h-2.051V0H222.363Zm12.773,19.131a2.748,2.748,0,0,0,2.256-1.113q.85-1.055.85-4.336,0-3.076-.85-4.131a2.775,2.775,0,0,0-2.256-1.084h-2.52v10.664Z" transform="translate(4 45)" fill="#ff3b6a"/><path d="M7.383,59.293h48.3a56.316,56.316,0,0,1,17.637,2.563,35.865,35.865,0,0,1,13.638,8.1,34.851,34.851,0,0,1,8.716,14.15,63.648,63.648,0,0,1,3.076,20.918q0,16.3-4.512,25.635a34.187,34.187,0,0,1-11.895,14.048L100.591,209H63.369l-12.92-56.5H43.271V209H7.383ZM52.09,126.251a9.619,9.619,0,0,0,7.9-3.9q2.974-3.691,2.974-15.176,0-10.767-2.974-14.458a9.712,9.712,0,0,0-7.9-3.794H43.271v37.324Zm86.748,82.544a38.416,38.416,0,0,1-14.868-7.9,36.324,36.324,0,0,1-9.536-13.535q-3.486-8-3.486-19.482V100.411a46.869,46.869,0,0,1,3.589-18.765,39.261,39.261,0,0,1,9.946-13.638A41.207,41.207,0,0,1,139.248,59.7,58.384,58.384,0,0,1,157.6,56.935,65.419,65.419,0,0,1,175.957,59.5a39.415,39.415,0,0,1,14.868,7.9,37.909,37.909,0,0,1,9.946,13.535q3.691,8.1,3.691,19.482v67.266q0,11.177-3.691,19.277a38.129,38.129,0,0,1-9.946,13.638,40.894,40.894,0,0,1-14.868,8.1,61.036,61.036,0,0,1-18.149,2.666A69.813,69.813,0,0,1,138.838,208.795Zm26.66-31.787a11.917,11.917,0,0,0,2.871-8.306V99.181q0-5.435-3.076-8.2a11.067,11.067,0,0,0-7.69-2.769q-10.254,0-10.254,10.972V168.5q0,5.435,2.563,8.408,2.563,3.076,7.9,3.076Q162.832,179.981,165.5,177.008Zm79.365,31.787A38.416,38.416,0,0,1,230,200.9a36.324,36.324,0,0,1-9.536-13.535q-3.486-8-3.486-19.482V100.411a46.869,46.869,0,0,1,3.589-18.765,39.261,39.261,0,0,1,9.946-13.638A41.207,41.207,0,0,1,245.273,59.7a58.384,58.384,0,0,1,18.354-2.769A65.419,65.419,0,0,1,281.982,59.5a39.415,39.415,0,0,1,14.868,7.9A37.909,37.909,0,0,1,306.8,80.929q3.691,8.1,3.691,19.482v67.266q0,11.177-3.691,19.277a38.129,38.129,0,0,1-9.946,13.638,40.894,40.894,0,0,1-14.868,8.1,61.036,61.036,0,0,1-18.149,2.666A69.813,69.813,0,0,1,244.863,208.795Zm26.66-31.787a11.917,11.917,0,0,0,2.871-8.306V99.181q0-5.435-3.076-8.2a11.067,11.067,0,0,0-7.69-2.769q-10.254,0-10.254,10.972V168.5q0,5.435,2.563,8.408,2.563,3.076,7.9,3.076Q268.857,179.981,271.523,177.008Zm74.648-87.466h-28.1V59.293h92.183V89.542H382.266V209H346.172Zm83.774,109.307q-11.279-12.407-12.407-33.53l33.223-1.025q.205,2.666.615,5.64a21.776,21.776,0,0,0,1.538,5.845,13.988,13.988,0,0,0,3.281,4.614,8.623,8.623,0,0,0,5.845,1.948q4.819,0,6.563-3.281a15.419,15.419,0,0,0,1.641-7.178,13.773,13.773,0,0,0-3.9-9.639,135,135,0,0,0-10.562-9.946l-12.407-10.869q-11.484-10.254-17.534-20.2a44.014,44.014,0,0,1-6.152-23.276,44.185,44.185,0,0,1,2.666-15.688,37.351,37.351,0,0,1,21.533-22.148,49.448,49.448,0,0,1,18.97-3.384,50.08,50.08,0,0,1,14.663,2.153,32.033,32.033,0,0,1,12.715,7.28q5.537,5.127,9.331,14.253,3.589,8.818,4.1,22.354L472.4,103.795a55.778,55.778,0,0,0-.923-6.768,21.341,21.341,0,0,0-1.743-5.947,11.546,11.546,0,0,0-3.179-4.2,8.387,8.387,0,0,0-5.332-1.538q-4.614,0-6.46,3.179a13.3,13.3,0,0,0-1.948,6.665,10.4,10.4,0,0,0,1.436,5.332,25.274,25.274,0,0,0,3.9,5.127q2.769,2.769,5.229,4.819,1.743,1.436,5.229,4.717l12.2,10.664q12,10.767,18.252,21.021a44.181,44.181,0,0,1,6.255,23.481,40.906,40.906,0,0,1-3.076,15.894,39.268,39.268,0,0,1-8.716,13.022,40.185,40.185,0,0,1-13.74,8.818,48.968,48.968,0,0,1-18.149,3.281Q441.328,211.358,429.946,198.849Zm126.021,1.538q-9.126-11.484-9.126-31.89,0-15.073,6.665-25.635a54.171,54.171,0,0,1,17.329-17.227q-3.794-7.383-7.383-15.381a41.326,41.326,0,0,1-3.589-16.919,43,43,0,0,1,2.358-14.253A32.008,32.008,0,0,1,580.884,59.6a43.31,43.31,0,0,1,16.2-2.871q16.714,0,26.147,9.023,9.536,9.023,9.536,26.045a46.007,46.007,0,0,1-5.64,22.354,46.661,46.661,0,0,1-16.2,17.124,40.147,40.147,0,0,0,2.256,3.9q.1.205,1.487,2.307t2.1,3.23q2.461,3.9,3.486,5.742.41.82,1.23,2.2t1.025,1.794a57.372,57.372,0,0,0,1.333-6.665l.667-4.666q.461-3.23.667-4.46l25.84,2.769a111.383,111.383,0,0,1-2.358,12.2q-1.641,6.563-3.384,11.792-2.358,7.075-3.589,10.049a77.823,77.823,0,0,1-3.486,7.485,46.113,46.113,0,0,0,3.281,6.05q1.025,1.641,3.025,4.922t2.512,4.1q4.1,6.665,5.435,9.023,2.769,4.922,3.179,5.947H618.721l-5.742-9.639a38.808,38.808,0,0,1-14.458,9.536,47.118,47.118,0,0,1-15.791,2.871Q564.99,211.769,555.967,200.387Zm44.194-22.866a50.8,50.8,0,0,0-3.076-5.947q-1.743-2.974-5.024-8.306-3.9-6.357-5.127-8.408a50.8,50.8,0,0,1-3.076-5.947q-4.409,5.332-4.409,16.611a27.5,27.5,0,0,0,2.358,11.792q2.461,5.229,8.511,5.229A11.789,11.789,0,0,0,600.161,177.521Zm2.871-75.776a27.984,27.984,0,0,0,1.743-10.151q0-5.024-1.743-7.485a5.594,5.594,0,0,0-4.717-2.563,5.5,5.5,0,0,0-5.332,2.974,12.456,12.456,0,0,0-1.641,5.845,23.217,23.217,0,0,0,1.743,8,92.322,92.322,0,0,0,5.229,10.869A20.694,20.694,0,0,0,603.032,101.744Z" transform="translate(-4 12)" fill="#fff" stroke="#fff" stroke-width="2"/><path d="M7.383,59.293h48.3a56.316,56.316,0,0,1,17.637,2.563,35.865,35.865,0,0,1,13.638,8.1,34.851,34.851,0,0,1,8.716,14.15,63.648,63.648,0,0,1,3.076,20.918q0,16.3-4.512,25.635a34.187,34.187,0,0,1-11.895,14.048L100.591,209H63.369l-12.92-56.5H43.271V209H7.383ZM52.09,126.251a9.619,9.619,0,0,0,7.9-3.9q2.974-3.691,2.974-15.176,0-10.767-2.974-14.458a9.712,9.712,0,0,0-7.9-3.794H43.271v37.324Zm86.748,82.544a38.416,38.416,0,0,1-14.868-7.9,36.324,36.324,0,0,1-9.536-13.535q-3.486-8-3.486-19.482V100.411a46.869,46.869,0,0,1,3.589-18.765,39.261,39.261,0,0,1,9.946-13.638A41.207,41.207,0,0,1,139.248,59.7,58.384,58.384,0,0,1,157.6,56.935,65.419,65.419,0,0,1,175.957,59.5a39.415,39.415,0,0,1,14.868,7.9,37.909,37.909,0,0,1,9.946,13.535q3.691,8.1,3.691,19.482v67.266q0,11.177-3.691,19.277a38.129,38.129,0,0,1-9.946,13.638,40.894,40.894,0,0,1-14.868,8.1,61.036,61.036,0,0,1-18.149,2.666A69.813,69.813,0,0,1,138.838,208.795Zm26.66-31.787a11.917,11.917,0,0,0,2.871-8.306V99.181q0-5.435-3.076-8.2a11.067,11.067,0,0,0-7.69-2.769q-10.254,0-10.254,10.972V168.5q0,5.435,2.563,8.408,2.563,3.076,7.9,3.076Q162.832,179.981,165.5,177.008Zm63.677,24.1q-11.689-10.151-11.689-32.2V59.293h36.094v109q0,5.947,2.871,8.921a10.327,10.327,0,0,0,7.793,2.974,9.692,9.692,0,0,0,7.588-3.076q2.769-3.076,2.769-8.818v-109h34.146v109q0,10.869-3.589,18.662a38.788,38.788,0,0,1-10.049,13.433,43.292,43.292,0,0,1-14.766,8.2,58.318,58.318,0,0,1-18.149,2.769Q240.967,211.358,229.175,201.1ZM346.89,89.542h-28.1V59.293h92.183V89.542H382.983V209H346.89Zm74.751-30.249h78.34V89.542H457.324v28.1h33.838v30.454H457.324v30.454h42.861V209H421.641ZM522.334,198.849q-11.279-12.407-12.407-33.53l33.223-1.025q.205,2.666.615,5.64a21.776,21.776,0,0,0,1.538,5.845,13.988,13.988,0,0,0,3.281,4.614,8.623,8.623,0,0,0,5.845,1.948q4.819,0,6.563-3.281a15.419,15.419,0,0,0,1.641-7.178,13.773,13.773,0,0,0-3.9-9.639,135,135,0,0,0-10.562-9.946l-12.407-10.869q-11.484-10.254-17.534-20.2A44.014,44.014,0,0,1,512.08,97.95a44.185,44.185,0,0,1,2.666-15.688,37.351,37.351,0,0,1,21.533-22.148,49.448,49.448,0,0,1,18.97-3.384,50.08,50.08,0,0,1,14.663,2.153,32.033,32.033,0,0,1,12.715,7.28q5.537,5.127,9.331,14.253,3.589,8.818,4.1,22.354l-31.274,1.025a55.778,55.778,0,0,0-.923-6.768,21.341,21.341,0,0,0-1.743-5.947,11.546,11.546,0,0,0-3.179-4.2,8.387,8.387,0,0,0-5.332-1.538q-4.614,0-6.46,3.179a13.3,13.3,0,0,0-1.948,6.665,10.4,10.4,0,0,0,1.436,5.332,25.274,25.274,0,0,0,3.9,5.127q2.769,2.769,5.229,4.819,1.743,1.436,5.229,4.717l12.2,10.664q12,10.767,18.252,21.021a44.181,44.181,0,0,1,6.255,23.481,40.906,40.906,0,0,1-3.076,15.894,39.268,39.268,0,0,1-8.716,13.022,40.185,40.185,0,0,1-13.74,8.818,48.968,48.968,0,0,1-18.149,3.281Q533.716,211.358,522.334,198.849Zm86.44-26.147h31.172V209H608.774Z" transform="translate(-4 191)" fill="none" stroke="#fff" stroke-width="2"/></g></svg>