<svg xmlns="http://www.w3.org/2000/svg" xmlns:xlink="http://www.w3.org/1999/xlink" width="357" height="342" viewBox="0 0 357 342"><defs><clipPath id="a"><rect width="460.57" height="443.885" fill="none"/></clipPath><clipPath id="e"><rect width="357" height="342"/></clipPath></defs><g id="d" clip-path="url(#e)"><g transform="translate(-31.569)"><path d="M297.487,141.3,150.675,3l-8.6,57.926Z" transform="translate(86.304 1.823)" fill="none"/><g clip-path="url(#a)"><path d="M297.487,141.3,150.675,3l-8.6,57.926Z" transform="translate(86.304 1.823)" fill="none" stroke="#fff" stroke-linecap="round" stroke-linejoin="round" stroke-width="4"/></g><path d="M331.813,243.645,352.885,141.3,197.477,60.926,206.073,3,51.22,107.037l-.341.878L81.725,288.256Z" transform="translate(30.906 1.823)" fill="none"/><g clip-path="url(#a)"><path d="M331.813,243.645,352.885,141.3,197.477,60.926,206.073,3,51.22,107.037l-.341.878L81.725,288.256Z" transform="translate(30.906 1.823)" fill="none" stroke="#fff" stroke-linecap="round" stroke-linejoin="round" stroke-width="4"/></g><path d="M99.028,248.609,68.182,68.269,22.4,186.049l130,106.123,196.646-87.8.079-.378Z" transform="translate(13.604 41.469)" fill="none"/><path d="M99.028,248.609,68.182,68.269,22.4,186.049l130,106.123,196.646-87.8.079-.378Z" transform="translate(13.604 41.469)" fill="none" stroke="#fff" stroke-linecap="round" stroke-linejoin="round" stroke-width="4"/><g clip-path="url(#a)"><path d="M87.219,103.2q1.76-2.963.873-7.952a9.994,9.994,0,0,0-2.26-5.107,6.244,6.244,0,0,0-4.113-2.075l-.035-.2q4.485-2.252,3.247-9.206-.825-4.637-3.395-6.517a8.23,8.23,0,0,0-6.55-1.175L63.5,73.011l6.394,35.926,11.791-2.1a7.622,7.622,0,0,0,5.538-3.638M71.564,77.449l2.922-.521q2.77-.492,3.551,3.892.861,4.837-2.263,5.393l-2.569.457Zm7.272,23.917-2.922.521-1.677-9.423,2.67-.474q3.122-.557,3.948,4.08.854,4.786-2.019,5.3" transform="translate(38.57 42.99)" fill="#fff"/><path d="M86.283,104.1a11.223,11.223,0,0,0,8.023,1.119,11.18,11.18,0,0,0,7.055-3.88q2.467-3.062,1.607-7.9l-3.1-17.433q-.851-4.786-4.184-6.714a11.384,11.384,0,0,0-7.917-1.112,11.1,11.1,0,0,0-7.076,3.909,9.277,9.277,0,0,0-1.614,7.722l3.1,17.434q.87,4.887,4.105,6.857m-.048-25.827a3.542,3.542,0,0,1,.371-2.588,3.1,3.1,0,0,1,2.212-1.3,3.088,3.088,0,0,1,3.856,2.692l3.184,17.888a3.686,3.686,0,0,1-.391,2.615,3.528,3.528,0,0,1-4.787.852A3.769,3.769,0,0,1,89.4,96.063Z" transform="translate(47.906 41.268)" fill="#fff"/><path d="M109.522,102.971a10.965,10.965,0,0,0,6.976-3.892,9.211,9.211,0,0,0,1.622-7.671l-4.761-26.754-6.8,1.21,4.753,26.7a3.823,3.823,0,0,1-.288,2.757,2.911,2.911,0,0,1-2.149,1.368,3.112,3.112,0,0,1-2.508-.514,3.747,3.747,0,0,1-1.353-2.488l-4.753-26.7L93.1,68.258l4.8,26.957q.851,4.786,3.867,6.693t7.753,1.063" transform="translate(56.555 39.273)" fill="#fff"/><path d="M130.726,91.447l-10.278,1.829-5.309-29.828L108.083,64.7l6.394,35.925,17.333-3.085Z" transform="translate(65.654 38.541)" fill="#fff"/><path d="M144.283,93.247q2.332-2.807,1.533-7.29l-3.228-18.14a7.929,7.929,0,0,0-3.895-5.96,11.076,11.076,0,0,0-7.471-.956L120.84,62.747l6.4,35.925,10.329-1.839a10.837,10.837,0,0,0,6.718-3.586m-11.077-1.927-4.234-23.782,2.569-.457a3.1,3.1,0,0,1,3.959,2.675l3.041,17.079a3.773,3.773,0,0,1-.373,2.588,3.047,3.047,0,0,1-2.294,1.421Z" transform="translate(73.403 36.848)" fill="#fff"/><path d="M146.37,79.734l8.111-1.443-1.075-6.047-8.111,1.445-1.508-8.466,10.228-1.82-1.067-6-17.283,3.077,6.394,35.925,17.333-3.085-1.085-6.1-10.278,1.829Z" transform="translate(82.408 34.871)" fill="#fff"/><path d="M159.711,79.395l1.64-.291,6.983,12.271,7.383-1.313L167.626,76.9q4.048-3.269,2.574-11.591-1.955-10.985-10.771-9.415l-10.884,1.937,6.393,35.926,7.1-1.265ZM156.7,62.465l2.519-.448q3.125-.557,4.057,4.684,1.049,5.9-2.123,6.46l-2.471.44Z" transform="translate(90.231 33.835)" fill="#fff"/><path d="M148.964,131.276,129.475,92.314,106.37,96.425l34.795,62.46,7.7,43.284,21.874-3.893-7.677-43.129,11.078-70.784-20.792,3.7Z" transform="translate(64.613 51.245)" fill="#fff"/><path d="M199.744,79.62l10.445,58.689-.463.082L176.177,83.814l-22.183,3.949,19.548,109.828,19.256-3.427-11.707-65.773.461-.082L218.983,189.5l19.563-3.482L219,76.193Z" transform="translate(93.542 46.283)" fill="#fff"/><path d="M133.573,123.867q-5.929-33.305-32.66-28.547l-33,5.874L87.3,210.114l21.54-3.834-7.068-39.717,4.972-.886,21.172,37.207L150.3,198.9l-24.513-39.876q12.28-9.91,7.791-35.158m-40.938-8.634,7.639-1.36q9.471-1.685,12.3,14.2,3.18,17.872-6.441,19.585l-7.489,1.333Z" transform="translate(41.254 57.54)" fill="#fff"/></g></g></g></svg>