<svg xmlns="http://www.w3.org/2000/svg" xmlns:xlink="http://www.w3.org/1999/xlink" width="906" height="512" viewBox="0 0 906 512"><defs><clipPath id="b"><rect width="906" height="512"/></clipPath></defs><g id="a" clip-path="url(#b)"><path d="M330.341,208.795a40.241,40.241,0,0,1-14.663-7.69,34.778,34.778,0,0,1-9.741-12.92,44.682,44.682,0,0,1-3.589-18.457V97.745a37.478,37.478,0,0,1,13.945-30.352A45.01,45.01,0,0,1,331.059,59.6,60.338,60.338,0,0,1,349,56.935,55.156,55.156,0,0,1,365.512,59.4a39.9,39.9,0,0,1,13.74,7.28,36.494,36.494,0,0,1,9.331,12.2q3.486,7.075,3.486,17.124v16.2H359.462V98.565q0-5.127-2.974-7.793A10.79,10.79,0,0,0,349,88q-10.254,0-10.254,10.562V168.7q0,5.332,2.563,8.306t7.9,2.974a10.513,10.513,0,0,0,7.28-2.666q2.974-2.666,2.974-7.793V156.295h32.607v15.073a40.719,40.719,0,0,1-3.384,17.124A35.532,35.532,0,0,1,379.457,201a38.545,38.545,0,0,1-13.843,7.69,54.723,54.723,0,0,1-17.021,2.666A65.052,65.052,0,0,1,330.341,208.795Zm74.341-149.5H440.57v58.55h20.405V59.293h35.684V209H460.976V150.245H440.57V209H404.682Zm132.891-.205h49.116L615.194,209H579.1l-5.024-27.891H545.058L540.238,209H507.323ZM568.437,152.3l-8.2-52.91h-.615L550.8,152.3Zm57.524-93h35.684V178.546h42.861V209H625.961Zm90.645,0h35.889v62.344L777.1,59.293h35.068l-25.635,59.165L812.582,209H774.335l-14.253-61.523-7.588,14.663V209H716.605ZM864.979,201.1q-11.689-10.151-11.689-32.2V59.293h36.094v109q0,5.947,2.871,8.921a10.327,10.327,0,0,0,7.793,2.974,9.692,9.692,0,0,0,7.588-3.076q2.769-3.076,2.769-8.818v-109H944.55v109q0,10.869-3.589,18.662a38.788,38.788,0,0,1-10.049,13.433,43.292,43.292,0,0,1-14.766,8.2A58.318,58.318,0,0,1,898,211.358Q876.771,211.358,864.979,201.1ZM958.6,59.293h51.167q18.765,0,28.608,11.484,9.844,11.587,9.844,35.581t-9.331,37.427q-9.331,13.535-29.941,13.535H994.486V209H958.6ZM1003.3,128.4q4.922,0,7.383-5.127t2.461-16.1q0-10.562-2.461-14.561a8.1,8.1,0,0,0-7.383-4h-8.818V128.4Zm96.182,71.982q-9.126-11.484-9.126-31.89,0-15.073,6.665-25.635a54.171,54.171,0,0,1,17.329-17.227q-3.794-7.383-7.383-15.381a41.326,41.326,0,0,1-3.589-16.919,43,43,0,0,1,2.358-14.253A32.008,32.008,0,0,1,1124.4,59.6a43.31,43.31,0,0,1,16.2-2.871q16.714,0,26.147,9.023,9.536,9.023,9.536,26.045a46.007,46.007,0,0,1-5.64,22.354,46.661,46.661,0,0,1-16.2,17.124,40.147,40.147,0,0,0,2.256,3.9q.1.205,1.487,2.307t2.1,3.23q2.461,3.9,3.486,5.742.41.82,1.23,2.2t1.025,1.794a57.372,57.372,0,0,0,1.333-6.665l.667-4.666q.461-3.23.667-4.46l25.84,2.769a111.383,111.383,0,0,1-2.358,12.2q-1.641,6.563-3.384,11.792-2.358,7.075-3.589,10.049a77.823,77.823,0,0,1-3.486,7.485,46.113,46.113,0,0,0,3.281,6.05q1.025,1.641,3.025,4.922t2.512,4.1q4.1,6.665,5.435,9.023,2.769,4.922,3.179,5.947H1162.24l-5.742-9.639a38.808,38.808,0,0,1-14.458,9.536,47.118,47.118,0,0,1-15.791,2.871Q1108.51,211.769,1099.486,200.387Zm44.194-22.866a50.8,50.8,0,0,0-3.076-5.947q-1.743-2.974-5.024-8.306-3.9-6.357-5.127-8.408a50.8,50.8,0,0,1-3.076-5.947q-4.409,5.332-4.409,16.611a27.5,27.5,0,0,0,2.358,11.792q2.461,5.229,8.511,5.229A11.789,11.789,0,0,0,1143.681,177.521Zm2.871-75.776a27.984,27.984,0,0,0,1.743-10.151q0-5.024-1.743-7.485a5.594,5.594,0,0,0-4.717-2.563,5.5,5.5,0,0,0-5.332,2.974,12.456,12.456,0,0,0-1.641,5.845,23.217,23.217,0,0,0,1.743,8,92.322,92.322,0,0,0,5.229,10.869A20.694,20.694,0,0,0,1146.552,101.744Z" transform="translate(-295 -55)" fill="#fff" stroke="#fff" stroke-width="2"/><path d="M349.926,198.849q-11.279-12.407-12.407-33.53l33.223-1.025q.205,2.666.615,5.64a21.776,21.776,0,0,0,1.538,5.845,13.988,13.988,0,0,0,3.281,4.614,8.623,8.623,0,0,0,5.845,1.948q4.819,0,6.563-3.281a15.419,15.419,0,0,0,1.641-7.178,13.773,13.773,0,0,0-3.9-9.639,135,135,0,0,0-10.562-9.946l-12.407-10.869q-11.484-10.254-17.534-20.2a44.014,44.014,0,0,1-6.152-23.276,44.185,44.185,0,0,1,2.666-15.688,37.351,37.351,0,0,1,21.533-22.148,49.448,49.448,0,0,1,18.97-3.384A50.08,50.08,0,0,1,397.5,58.883a32.033,32.033,0,0,1,12.715,7.28q5.537,5.127,9.331,14.253,3.589,8.818,4.1,22.354l-31.274,1.025a55.778,55.778,0,0,0-.923-6.768,21.341,21.341,0,0,0-1.743-5.947,11.546,11.546,0,0,0-3.179-4.2,8.387,8.387,0,0,0-5.332-1.538q-4.614,0-6.46,3.179a13.3,13.3,0,0,0-1.948,6.665,10.4,10.4,0,0,0,1.436,5.332,25.274,25.274,0,0,0,3.9,5.127q2.769,2.769,5.229,4.819,1.743,1.436,5.229,4.717l12.2,10.664q12,10.767,18.252,21.021a44.181,44.181,0,0,1,6.255,23.481,40.906,40.906,0,0,1-3.076,15.894,39.268,39.268,0,0,1-8.716,13.022,40.185,40.185,0,0,1-13.74,8.818,48.968,48.968,0,0,1-18.149,3.281Q361.308,211.358,349.926,198.849ZM437.289,59.293h78.34V89.542H472.973v28.1h33.838v30.454H472.973v30.454h42.861V209H437.289Zm91.67,0H607.3V89.542H564.643v28.1H598.48v30.454H564.643v30.454H607.5V209H528.959ZM677.436,152.5l-32.71-93.208h38.247l14.663,51.885,14.253-51.885h34.248L713.427,152.5V209H677.436Zm98.232,56.294a38.416,38.416,0,0,1-14.868-7.9,36.324,36.324,0,0,1-9.536-13.535q-3.486-8-3.486-19.482V100.411a46.869,46.869,0,0,1,3.589-18.765,39.261,39.261,0,0,1,9.946-13.638A41.207,41.207,0,0,1,776.078,59.7a58.384,58.384,0,0,1,18.354-2.769A65.419,65.419,0,0,1,812.787,59.5a39.415,39.415,0,0,1,14.868,7.9A37.909,37.909,0,0,1,837.6,80.929q3.691,8.1,3.691,19.482v67.266q0,11.177-3.691,19.277a38.129,38.129,0,0,1-9.946,13.638,40.894,40.894,0,0,1-14.868,8.1,61.036,61.036,0,0,1-18.149,2.666A69.813,69.813,0,0,1,775.668,208.795Zm26.66-31.787A11.917,11.917,0,0,0,805.2,168.7V99.181q0-5.435-3.076-8.2a11.067,11.067,0,0,0-7.69-2.769q-10.254,0-10.254,10.972V168.5q0,5.435,2.563,8.408,2.563,3.076,7.9,3.076Q799.662,179.981,802.328,177.008ZM866,201.1q-11.689-10.151-11.689-32.2V59.293h36.094v109q0,5.947,2.871,8.921a10.327,10.327,0,0,0,7.793,2.974,9.692,9.692,0,0,0,7.588-3.076q2.769-3.076,2.769-8.818v-109h34.146v109q0,10.869-3.589,18.662a38.788,38.788,0,0,1-10.049,13.433,43.292,43.292,0,0,1-14.766,8.2,58.318,58.318,0,0,1-18.149,2.769Q877.8,211.358,866,201.1Zm151.86,7.69A38.416,38.416,0,0,1,1003,200.9a36.324,36.324,0,0,1-9.536-13.535q-3.486-8-3.486-19.482V100.411a46.869,46.869,0,0,1,3.589-18.765,39.261,39.261,0,0,1,9.946-13.638,41.207,41.207,0,0,1,14.766-8.306,58.384,58.384,0,0,1,18.354-2.769,65.419,65.419,0,0,1,18.354,2.563,39.415,39.415,0,0,1,14.868,7.9,37.909,37.909,0,0,1,9.946,13.535q3.691,8.1,3.691,19.482v67.266q0,11.177-3.691,19.277a38.129,38.129,0,0,1-9.946,13.638,40.894,40.894,0,0,1-14.868,8.1,61.036,61.036,0,0,1-18.149,2.666A69.813,69.813,0,0,1,1017.865,208.795Zm26.66-31.787a11.917,11.917,0,0,0,2.871-8.306V99.181q0-5.435-3.076-8.2a11.067,11.067,0,0,0-7.69-2.769q-10.254,0-10.254,10.972V168.5q0,5.435,2.563,8.408,2.563,3.076,7.9,3.076Q1041.859,179.981,1044.525,177.008Zm52.6-117.715h36.094l28.1,67.163h.718V59.293h31.685V209h-31.992l-32.3-77.109h-.615V209h-31.685Z" transform="translate(-295 124)" fill="none" stroke="#fff" stroke-width="2"/><path d="M392.377,89.542h-28.1V59.293h92.183V89.542H428.471V209H392.377Zm74.751-30.249h35.889v58.55h20.405V59.293h35.684V209H523.422V150.245H503.017V209H467.128Zm106.641,0h78.34V89.542H609.452v28.1H643.29v30.454H609.452v30.454h42.861V209H573.769Zm147.861,0H756.9l10.972,79.365h.615l11.792-79.365h33.735l10.972,78.955h.41l10.869-78.955h31.582L842.216,209.41H808.993l-13.022-85.62h-1.025l-13.638,85.62H747.47Zm172.983-.205h49.116L972.235,209H936.142l-5.024-27.891H902.1L897.279,209H864.364ZM925.478,152.3l-8.2-52.91h-.615l-8.818,52.91Zm57.524-93h35.684V178.546h42.861V209H983Zm90.645,0h35.684V178.546h42.861V209h-78.545ZM1163.368,172.7h31.172V209h-31.172Z" transform="translate(-295 300)" fill="#fff"/></g></svg>