<svg xmlns="http://www.w3.org/2000/svg" xmlns:xlink="http://www.w3.org/1999/xlink" width="483" height="533" viewBox="0 0 483 533"><defs><clipPath id="b"><rect width="483" height="533"/></clipPath></defs><g id="a" clip-path="url(#b)"><path d="M407.915,59.293H443.8V209H407.915Zm74.648,30.249h-28.1V59.293H546.65V89.542H518.657V209H482.563Zm84.595,4H556.392V59.293h31.172v32.3l-11.792,31.069H560.391ZM610.02,198.849q-11.279-12.407-12.407-33.53l33.223-1.025q.205,2.666.615,5.64a21.776,21.776,0,0,0,1.538,5.845,13.988,13.988,0,0,0,3.281,4.614,8.623,8.623,0,0,0,5.845,1.948q4.819,0,6.563-3.281a15.419,15.419,0,0,0,1.641-7.178,13.773,13.773,0,0,0-3.9-9.639,135,135,0,0,0-10.562-9.946l-12.407-10.869q-11.484-10.254-17.534-20.2a44.014,44.014,0,0,1-6.152-23.276,44.185,44.185,0,0,1,2.666-15.688,37.351,37.351,0,0,1,21.533-22.148,49.448,49.448,0,0,1,18.97-3.384A50.08,50.08,0,0,1,657.6,58.883a32.033,32.033,0,0,1,12.715,7.28q5.537,5.127,9.331,14.253,3.589,8.818,4.1,22.354l-31.274,1.025a55.778,55.778,0,0,0-.923-6.768A21.341,21.341,0,0,0,649.8,91.08a11.546,11.546,0,0,0-3.179-4.2,8.387,8.387,0,0,0-5.332-1.538q-4.614,0-6.46,3.179a13.3,13.3,0,0,0-1.948,6.665,10.4,10.4,0,0,0,1.436,5.332,25.274,25.274,0,0,0,3.9,5.127q2.769,2.769,5.229,4.819,1.743,1.436,5.229,4.717l12.2,10.664q12,10.767,18.252,21.021a44.181,44.181,0,0,1,6.255,23.481,40.906,40.906,0,0,1-3.076,15.894,39.268,39.268,0,0,1-8.716,13.022,40.185,40.185,0,0,1-13.74,8.818,48.968,48.968,0,0,1-18.149,3.281Q621.4,211.358,610.02,198.849Z" transform="translate(-207.5 -51)" fill="none" stroke="#fff" stroke-width="2"/><path d="M129.083,208.795a40.241,40.241,0,0,1-14.663-7.69,34.778,34.778,0,0,1-9.741-12.92,44.682,44.682,0,0,1-3.589-18.457V97.745a37.478,37.478,0,0,1,13.945-30.352A45.01,45.01,0,0,1,129.8,59.6a60.338,60.338,0,0,1,17.944-2.666A55.156,55.156,0,0,1,164.254,59.4a39.9,39.9,0,0,1,13.74,7.28,36.494,36.494,0,0,1,9.331,12.2q3.486,7.075,3.486,17.124v16.2H158.2V98.565q0-5.127-2.974-7.793A10.79,10.79,0,0,0,147.745,88q-10.254,0-10.254,10.562V168.7q0,5.332,2.563,8.306t7.9,2.974a10.513,10.513,0,0,0,7.28-2.666q2.974-2.666,2.974-7.793V156.295h32.607v15.073a40.719,40.719,0,0,1-3.384,17.124A35.532,35.532,0,0,1,178.2,201a38.545,38.545,0,0,1-13.843,7.69,54.723,54.723,0,0,1-17.021,2.666A65.052,65.052,0,0,1,129.083,208.795Zm74.341-149.5h35.684V178.546h42.861V209H203.424Zm90.645,0h35.889V209H294.068Zm50.552,0h46.143l13.022,57.114h.615l13.945-57.114h43.887V209H430.65V110.768h-.41l-14.253,64.395H391.378L376.51,110.768h-.41V209H344.62Zm132.275,0h53.936A49.16,49.16,0,0,1,545.7,61.344a27.868,27.868,0,0,1,11.587,6.87,32.213,32.213,0,0,1,7.485,12q2.563,7.075,2.563,17.739,0,15.894-5.64,23.994a28.7,28.7,0,0,1-13.843,11.074v.82A28.832,28.832,0,0,1,562.413,144.4q5.845,7.793,5.845,22.148,0,21.021-10.151,31.787Q548.058,209,532.062,209H476.9Zm45.732,120.688a7.711,7.711,0,0,0,7.178-4.2q2.256-4.1,2.256-11.484,0-8.2-2.461-11.895a8.281,8.281,0,0,0-7.383-3.691h-9.639v31.274Zm-.82-60.6q5.537,0,7.793-4,2.256-3.9,2.256-12.612,0-14.971-9.023-14.971H512.579v31.582Z" transform="translate(-91.5 133)" fill="none" stroke="#fff" stroke-width="2"/><path d="M815.043,89.542h-28.1V59.293H879.13V89.542H851.137V209H815.043Zm74.751-30.249h35.889V209H889.794Zm50.552,0h46.143l13.022,57.114h.615l13.945-57.114h43.887V209h-31.582V110.768h-.41l-14.253,64.395H987.1l-14.868-64.395h-.41V209H940.346Zm132.275,0h78.34V89.542H1108.3v28.1h33.838v30.454H1108.3v30.454h42.861V209h-78.545ZM1163.368,172.7h31.172V209h-31.172Z" transform="translate(-719 317)" fill="#fff"/></g></svg>