<svg xmlns="http://www.w3.org/2000/svg" xmlns:xlink="http://www.w3.org/1999/xlink" width="763" height="405" viewBox="0 0 763 405">
  <defs>
    <clipPath id="clip-climbing">
      <rect width="763" height="405"/>
    </clipPath>
  </defs>
  <g id="climbing" clip-path="url(#clip-climbing)">
    <path id="Path_122" data-name="Path 122" d="M34.761,208.692A41.544,41.544,0,0,1,20,200.8,37.013,37.013,0,0,1,9.946,187.672q-3.691-7.793-3.691-18.56V97.745A39.45,39.45,0,0,1,9.946,80.108,36.548,36.548,0,0,1,20.1,67.394,45.152,45.152,0,0,1,34.863,59.6a59.994,59.994,0,0,1,17.842-2.666,61.283,61.283,0,0,1,16.816,2.358,42.479,42.479,0,0,1,14.458,6.973A36.471,36.471,0,0,1,94.131,78.16q3.691,6.768,3.691,17.021V110.46H65.112V97.54q0-5.127-3.691-7.588a14.535,14.535,0,0,0-8.1-2.563,10.754,10.754,0,0,0-7.793,2.769q-2.871,2.769-2.871,8.2v70.547a13.161,13.161,0,0,0,2.563,8.511q2.666,3.281,7.9,3.281,9.844,0,9.844-10.356V156.09H49.731V129.43H97.822v42.656q0,19.072-12.2,29.121-12.3,10.151-32.5,10.151A61.744,61.744,0,0,1,34.761,208.692Zm76.7-149.4H189.8V89.542H147.144v28.1h33.838v30.454H147.144v30.454H190V209H111.46ZM227.227,89.542h-28.1V59.293h92.183V89.542H263.32V209H227.227ZM360.22,208.795a38.416,38.416,0,0,1-14.868-7.9,36.324,36.324,0,0,1-9.536-13.535q-3.486-8-3.486-19.482V100.411a46.869,46.869,0,0,1,3.589-18.765,39.261,39.261,0,0,1,9.946-13.638A41.207,41.207,0,0,1,360.63,59.7a58.384,58.384,0,0,1,18.354-2.769A65.419,65.419,0,0,1,397.339,59.5a39.415,39.415,0,0,1,14.868,7.9,37.909,37.909,0,0,1,9.946,13.535q3.691,8.1,3.691,19.482v67.266q0,11.177-3.691,19.277a38.129,38.129,0,0,1-9.946,13.638,40.894,40.894,0,0,1-14.868,8.1,61.036,61.036,0,0,1-18.149,2.666A69.813,69.813,0,0,1,360.22,208.795Zm26.66-31.787a11.917,11.917,0,0,0,2.871-8.306V99.181q0-5.435-3.076-8.2a11.067,11.067,0,0,0-7.69-2.769q-10.254,0-10.254,10.972V168.5q0,5.435,2.563,8.408,2.563,3.076,7.9,3.076Q384.214,179.981,386.88,177.008Zm52.6-117.715h36.094l28.1,67.163h.718V59.293h31.685V209H504.082l-32.3-77.109h-.615V209H439.482Z" transform="translate(0 13)" fill="#fff" stroke="#fff" stroke-width="2"/>
    <path id="Path_121" data-name="Path 121" d="M31.479,89.542H3.384V59.293H95.566V89.542H67.573V209H31.479ZM106.23,59.293h35.889v58.55h20.405V59.293h35.684V209H162.524V150.245H142.119V209H106.23Zm106.641,0h78.34V89.542H248.555v28.1h33.838v30.454H248.555v30.454h42.861V209H212.871Zm116.382,0h35.273L375.5,138.658h.615l11.792-79.365h33.735l10.972,78.955h.41l10.869-78.955h31.582L449.839,209.41H416.616l-13.022-85.62h-1.025l-13.638,85.62H355.093Zm172.983-.205h49.116L579.858,209H543.765l-5.024-27.891H509.722L504.9,209H471.987ZM533.1,152.3l-8.2-52.91h-.615l-8.818,52.91Zm57.524-93h35.684V178.546H669.17V209H590.625Zm90.645,0h35.684V178.546h42.861V209H681.27Z" transform="translate(0 192)" fill="none" stroke="#fff" stroke-width="2"/>
    <path id="Path_123" data-name="Path 123" d="M9.785-.059A11.5,11.5,0,0,1,5.6-2.256,9.937,9.937,0,0,1,2.813-5.947a12.766,12.766,0,0,1-1.025-5.273V-31.787a11.015,11.015,0,0,1,1.084-5.039,10.906,10.906,0,0,1,2.9-3.633A12.86,12.86,0,0,1,9.99-42.686a17.24,17.24,0,0,1,5.127-.762,15.759,15.759,0,0,1,4.717.7,11.4,11.4,0,0,1,3.926,2.08,10.427,10.427,0,0,1,2.666,3.486,10.981,10.981,0,0,1,1,4.893v4.629H18.105v-3.9a2.836,2.836,0,0,0-.85-2.227,3.083,3.083,0,0,0-2.139-.791q-2.93,0-2.93,3.018v20.039a3.52,3.52,0,0,0,.732,2.373,2.819,2.819,0,0,0,2.256.85,3,3,0,0,0,2.08-.762,2.836,2.836,0,0,0,.85-2.227v-3.779h9.316v4.307a11.634,11.634,0,0,1-.967,4.893,10.152,10.152,0,0,1-2.637,3.574,11.013,11.013,0,0,1-3.955,2.2A15.635,15.635,0,0,1,15,.674,18.586,18.586,0,0,1,9.785-.059Zm21.24-42.715h10.2V-8.7H53.467V0H31.025Zm25.9,0H67.178V0H56.924Zm14.443,0H84.551l3.721,16.318h.176l3.984-16.318h12.539V0H95.947V-28.066H95.83l-4.072,18.4H84.727l-4.248-18.4h-.117V0H71.367Zm37.793,0h15.41a14.046,14.046,0,0,1,4.248.586,7.962,7.962,0,0,1,3.311,1.963,9.2,9.2,0,0,1,2.139,3.428A15.037,15.037,0,0,1,135-31.729q0,4.541-1.611,6.855a8.2,8.2,0,0,1-3.955,3.164v.234a8.238,8.238,0,0,1,4.16,3.018,10.385,10.385,0,0,1,1.67,6.328q0,6.006-2.9,9.082A9.761,9.761,0,0,1,124.922,0H109.16ZM122.227-8.291a2.2,2.2,0,0,0,2.051-1.2,6.883,6.883,0,0,0,.645-3.281,6.3,6.3,0,0,0-.7-3.4,2.366,2.366,0,0,0-2.109-1.055h-2.754v8.936Zm-.234-17.314a2.341,2.341,0,0,0,2.227-1.143,7.537,7.537,0,0,0,.645-3.6q0-4.277-2.578-4.277h-2.93v9.023Zm17.021-17.168h10.254V0H139.014Zm14.443,0H163.77L171.8-23.584H172V-42.773h9.053V0h-9.141l-9.229-22.031h-.176V0h-9.053ZM193.066-.088a11.87,11.87,0,0,1-4.219-2.256,10.575,10.575,0,0,1-2.871-3.75,12.288,12.288,0,0,1-1.055-5.3V-31.787a11.271,11.271,0,0,1,1.055-5.039,10.442,10.442,0,0,1,2.9-3.633,12.9,12.9,0,0,1,4.219-2.227,17.141,17.141,0,0,1,5.1-.762,17.509,17.509,0,0,1,4.8.674,12.137,12.137,0,0,1,4.131,1.992,10.42,10.42,0,0,1,2.9,3.4,10.071,10.071,0,0,1,1.055,4.863v4.365h-9.346v-3.691a2.424,2.424,0,0,0-1.055-2.168,4.153,4.153,0,0,0-2.314-.732,3.073,3.073,0,0,0-2.227.791,3.111,3.111,0,0,0-.82,2.344v20.156a3.76,3.76,0,0,0,.732,2.432,2.736,2.736,0,0,0,2.256.938q2.813,0,2.813-2.959v-4.072h-3.779v-7.617h13.74v12.188q0,5.449-3.486,8.32a14.129,14.129,0,0,1-9.287,2.9A17.641,17.641,0,0,1,193.066-.088Z" transform="translate(8 46)" fill="#ff3b6a"/>
  </g>
</svg>
