<svg xmlns="http://www.w3.org/2000/svg" xmlns:xlink="http://www.w3.org/1999/xlink" width="745" height="525" viewBox="0 0 745 525"><defs><clipPath id="b"><rect width="745" height="525"/></clipPath></defs><g id="a" clip-path="url(#b)"><path d="M34.248,208.795a40.241,40.241,0,0,1-14.663-7.69,34.778,34.778,0,0,1-9.741-12.92,44.682,44.682,0,0,1-3.589-18.457V97.745a38.551,38.551,0,0,1,3.794-17.637A38.173,38.173,0,0,1,20.2,67.394,45.01,45.01,0,0,1,34.966,59.6,60.338,60.338,0,0,1,52.91,56.935,55.156,55.156,0,0,1,69.419,59.4a39.9,39.9,0,0,1,13.74,7.28,36.494,36.494,0,0,1,9.331,12.2Q95.977,85.953,95.977,96v16.2H63.369V98.565q0-5.127-2.974-7.793A10.79,10.79,0,0,0,52.91,88Q42.656,88,42.656,98.565V168.7q0,5.332,2.563,8.306t7.9,2.974a10.513,10.513,0,0,0,7.28-2.666q2.974-2.666,2.974-7.793V156.295H95.977v15.073a40.719,40.719,0,0,1-3.384,17.124A35.532,35.532,0,0,1,83.364,201a38.545,38.545,0,0,1-13.843,7.69A54.723,54.723,0,0,1,52.5,211.358,65.052,65.052,0,0,1,34.248,208.795Zm74.341-149.5h35.684V178.546h42.861V209H108.589Zm90.645,0h35.889V209H199.233Zm50.552,0h46.143l13.022,57.114h.615l13.945-57.114H367.4V209H335.815V110.768h-.41l-14.253,64.395H296.543l-14.868-64.395h-.41V209H249.785Zm132.275,0H436a49.16,49.16,0,0,1,14.868,2.051,27.868,27.868,0,0,1,11.587,6.87,32.213,32.213,0,0,1,7.485,12Q472.5,87.286,472.5,97.95q0,15.894-5.64,23.994a28.7,28.7,0,0,1-13.843,11.074v.82A28.832,28.832,0,0,1,467.578,144.4q5.845,7.793,5.845,22.148,0,21.021-10.151,31.787Q453.223,209,437.227,209H382.061Zm45.732,120.688a7.711,7.711,0,0,0,7.178-4.2q2.256-4.1,2.256-11.484,0-8.2-2.461-11.895a8.281,8.281,0,0,0-7.383-3.691h-9.639v31.274Zm-.82-60.6q5.537,0,7.793-4,2.256-3.9,2.256-12.612Q437.021,87.8,428,87.8H417.744v31.582Zm58.652,53.32H516.8V209H485.625Z" transform="translate(0 -52)" fill="none" stroke="#fff" stroke-width="2"/><path d="M7.383,59.293H61.318a49.16,49.16,0,0,1,14.868,2.051,27.868,27.868,0,0,1,11.587,6.87,32.213,32.213,0,0,1,7.485,12q2.563,7.075,2.563,17.739,0,15.894-5.64,23.994A28.7,28.7,0,0,1,78.34,133.019v.82A28.832,28.832,0,0,1,92.9,144.4q5.845,7.793,5.845,22.148,0,21.021-10.151,31.787Q78.545,209,62.549,209H7.383ZM53.115,179.981a7.711,7.711,0,0,0,7.178-4.2q2.256-4.1,2.256-11.484,0-8.2-2.461-11.895a8.281,8.281,0,0,0-7.383-3.691H43.066v31.274Zm-.82-60.6q5.537,0,7.793-4,2.256-3.9,2.256-12.612,0-14.971-9.023-14.971H43.066v31.582ZM111.87,59.293h48.3A56.316,56.316,0,0,1,177.8,61.856a35.865,35.865,0,0,1,13.638,8.1,34.851,34.851,0,0,1,8.716,14.15,63.648,63.648,0,0,1,3.076,20.918q0,16.3-4.512,25.635a34.187,34.187,0,0,1-11.895,14.048L205.078,209H167.856l-12.92-56.5h-7.178V209H111.87Zm44.707,66.958a9.619,9.619,0,0,0,7.9-3.9q2.974-3.691,2.974-15.176,0-10.767-2.974-14.458a9.712,9.712,0,0,0-7.9-3.794h-8.818v37.324Zm59.985-66.958H294.9V89.542H252.246v28.1h33.838v30.454H252.246v30.454h42.861V209H216.563Zm117.92-.205H383.6L412.1,209H376.011l-5.024-27.891H341.968L337.148,209H304.233ZM365.347,152.3l-8.2-52.91h-.615L347.71,152.3ZM438.56,89.542h-28.1V59.293h92.183V89.542H474.653V209H438.56Zm74.751-30.249H549.2v58.55H569.6V59.293h35.684V209H569.6V150.245H549.2V209H513.311Zm106.641,0h78.34V89.542H655.635v28.1h33.838v30.454H655.635v30.454H698.5V209H619.951ZM710.7,172.7H741.87V209H710.7Z" transform="translate(0 132)" fill="none" stroke="#fff" stroke-width="2"/><path d="M7.383,59.293H61.318a49.16,49.16,0,0,1,14.868,2.051,27.868,27.868,0,0,1,11.587,6.87,32.213,32.213,0,0,1,7.485,12q2.563,7.075,2.563,17.739,0,15.894-5.64,23.994A28.7,28.7,0,0,1,78.34,133.019v.82A28.832,28.832,0,0,1,92.9,144.4q5.845,7.793,5.845,22.148,0,21.021-10.151,31.787Q78.545,209,62.549,209H7.383ZM53.115,179.981a7.711,7.711,0,0,0,7.178-4.2q2.256-4.1,2.256-11.484,0-8.2-2.461-11.895a8.281,8.281,0,0,0-7.383-3.691H43.066v31.274Zm-.82-60.6q5.537,0,7.793-4,2.256-3.9,2.256-12.612,0-14.971-9.023-14.971H43.066v31.582ZM111.87,59.293h78.34V89.542H147.554v28.1h33.838v30.454H147.554v30.454h42.861V209H111.87Zm91.67,0h35.684V178.546h42.861V209H203.54Zm116.587,149.5a38.416,38.416,0,0,1-14.868-7.9,36.324,36.324,0,0,1-9.536-13.535q-3.486-8-3.486-19.482V100.411a46.869,46.869,0,0,1,3.589-18.765,39.261,39.261,0,0,1,9.946-13.638A41.207,41.207,0,0,1,320.537,59.7a58.384,58.384,0,0,1,18.354-2.769A65.419,65.419,0,0,1,357.246,59.5a39.415,39.415,0,0,1,14.868,7.9,37.909,37.909,0,0,1,9.946,13.535q3.691,8.1,3.691,19.482v67.266q0,11.177-3.691,19.277a38.129,38.129,0,0,1-9.946,13.638,40.894,40.894,0,0,1-14.868,8.1,61.036,61.036,0,0,1-18.149,2.666A69.813,69.813,0,0,1,320.127,208.795Zm26.66-31.787a11.917,11.917,0,0,0,2.871-8.306V99.181q0-5.435-3.076-8.2a11.067,11.067,0,0,0-7.69-2.769q-10.254,0-10.254,10.972V168.5q0,5.435,2.563,8.408,2.563,3.076,7.9,3.076Q344.121,179.981,346.787,177.008Zm52.6-117.715h36.094l28.1,67.163h.718V59.293h31.685V209H463.989l-32.3-77.109h-.615V209H399.39Zm138.633,149.4a41.544,41.544,0,0,1-14.766-7.9,37.013,37.013,0,0,1-10.049-13.125q-3.691-7.793-3.691-18.56V97.745a39.45,39.45,0,0,1,3.691-17.637,36.548,36.548,0,0,1,10.151-12.715A45.152,45.152,0,0,1,538.125,59.6a59.994,59.994,0,0,1,17.842-2.666,61.283,61.283,0,0,1,16.816,2.358,42.479,42.479,0,0,1,14.458,6.973A36.471,36.471,0,0,1,597.393,78.16q3.691,6.768,3.691,17.021V110.46h-32.71V97.54q0-5.127-3.691-7.588a14.535,14.535,0,0,0-8.1-2.563,10.754,10.754,0,0,0-7.793,2.769q-2.871,2.769-2.871,8.2v70.547a13.161,13.161,0,0,0,2.563,8.511q2.666,3.281,7.9,3.281,9.844,0,9.844-10.356V156.09H552.993V129.43h48.091v42.656q0,19.072-12.2,29.121-12.3,10.151-32.5,10.151A61.744,61.744,0,0,1,538.022,208.692ZM613.8,172.7h31.172V209H613.8Z" transform="translate(0 311)" fill="#fff"/></g></svg>