<svg xmlns="http://www.w3.org/2000/svg" xmlns:xlink="http://www.w3.org/1999/xlink" width="807" height="413" viewBox="0 0 807 413">
  <defs>
    <clipPath id="clip-contact-form">
      <rect width="807" height="413"/>
    </clipPath>
  </defs>
  <g id="contact-form" clip-path="url(#clip-contact-form)">
    <path id="Path_124" data-name="Path 124" d="M7.383,59.293H43.066V178.546H85.928V209H7.383Zm90.645,0h78.34V89.542H133.711v28.1h33.838v30.454H133.711v30.454h42.861V209H98.027ZM213.794,89.542H185.7V59.293h92.183V89.542H249.888V209H213.794Zm83.774,109.307q-11.279-12.407-12.407-33.53l33.223-1.025q.205,2.666.615,5.64a21.776,21.776,0,0,0,1.538,5.845,13.988,13.988,0,0,0,3.281,4.614,8.623,8.623,0,0,0,5.845,1.948q4.819,0,6.563-3.281a15.419,15.419,0,0,0,1.641-7.178,13.773,13.773,0,0,0-3.9-9.639,135,135,0,0,0-10.562-9.946L311,141.427q-11.484-10.254-17.534-20.2a44.014,44.014,0,0,1-6.152-23.276,44.185,44.185,0,0,1,2.666-15.688,37.351,37.351,0,0,1,21.533-22.148,49.448,49.448,0,0,1,18.97-3.384,50.08,50.08,0,0,1,14.663,2.153,32.033,32.033,0,0,1,12.715,7.28q5.537,5.127,9.331,14.253,3.589,8.818,4.1,22.354l-31.274,1.025a55.778,55.778,0,0,0-.923-6.768,21.341,21.341,0,0,0-1.743-5.947,11.546,11.546,0,0,0-3.179-4.2,8.387,8.387,0,0,0-5.332-1.538q-4.614,0-6.46,3.179a13.3,13.3,0,0,0-1.948,6.665,10.4,10.4,0,0,0,1.436,5.332,25.274,25.274,0,0,0,3.9,5.127q2.769,2.769,5.229,4.819,1.743,1.436,5.229,4.717l12.2,10.664q12,10.767,18.252,21.021a44.181,44.181,0,0,1,6.255,23.481,40.906,40.906,0,0,1-3.076,15.894,39.268,39.268,0,0,1-8.716,13.022,40.185,40.185,0,0,1-13.74,8.818,48.968,48.968,0,0,1-18.149,3.281Q308.95,211.358,297.568,198.849Z" transform="translate(-2 13)" fill="none" stroke="#fff" stroke-width="2"/>
    <path id="Path_126" data-name="Path 126" d="M34.248,208.795a40.241,40.241,0,0,1-14.663-7.69,34.778,34.778,0,0,1-9.741-12.92,44.682,44.682,0,0,1-3.589-18.457V97.745a38.551,38.551,0,0,1,3.794-17.637A38.173,38.173,0,0,1,20.2,67.394,45.01,45.01,0,0,1,34.966,59.6,60.338,60.338,0,0,1,52.91,56.935,55.156,55.156,0,0,1,69.419,59.4a39.9,39.9,0,0,1,13.74,7.28,36.494,36.494,0,0,1,9.331,12.2Q95.977,85.953,95.977,96v16.2H63.369V98.565q0-5.127-2.974-7.793A10.79,10.79,0,0,0,52.91,88Q42.656,88,42.656,98.565V168.7q0,5.332,2.563,8.306t7.9,2.974a10.513,10.513,0,0,0,7.28-2.666q2.974-2.666,2.974-7.793V156.295H95.977v15.073a40.719,40.719,0,0,1-3.384,17.124A35.532,35.532,0,0,1,83.364,201a38.545,38.545,0,0,1-13.843,7.69A54.723,54.723,0,0,1,52.5,211.358,65.052,65.052,0,0,1,34.248,208.795Zm74.341-149.5h35.889v58.55h20.405V59.293h35.684V209H164.883V150.245H144.478V209H108.589Zm132.891-.205H290.6L319.1,209H283.008l-5.024-27.891H248.965L244.146,209H211.23ZM272.344,152.3l-8.2-52.91h-.615l-8.818,52.91Zm73.213-62.754h-28.1V59.293h92.183V89.542H381.65V209H345.557Z" transform="translate(-2 192)" fill="#fff" stroke="#fff" stroke-width="2"/>
    <path id="Path_125" data-name="Path 125" d="M17.051.527q-.176.029-.469.073a3.253,3.253,0,0,1-.439.044q-.293.029-.908.029a19.947,19.947,0,0,1-5.42-.732A10.96,10.96,0,0,1,5.537-2.314,10.871,10.871,0,0,1,2.783-6.182a13.907,13.907,0,0,1-1-5.566V-31.025a13.391,13.391,0,0,1,1.025-5.361,11.217,11.217,0,0,1,2.842-3.9A12.072,12.072,0,0,1,9.9-42.656a17.135,17.135,0,0,1,5.273-.791,18.691,18.691,0,0,1,5.244.732A11.846,11.846,0,0,1,24.7-40.459a10.783,10.783,0,0,1,2.871,3.867,13.353,13.353,0,0,1,1.055,5.566v19.219a13.88,13.88,0,0,1-.586,4.1,10.394,10.394,0,0,1-1.582,3.193l3.721,2.4L23.818,5.713Zm.41-9.668a3.334,3.334,0,0,0,.85-2.373V-31.377a3,3,0,0,0-.908-2.344,3.2,3.2,0,0,0-2.227-.791q-2.988,0-2.988,3.135v19.8a3.477,3.477,0,0,0,.762,2.4,2.916,2.916,0,0,0,2.285.879A2.951,2.951,0,0,0,17.461-9.141ZM35.566-2.256q-3.34-2.9-3.34-9.2V-42.773H42.539v31.143a3.539,3.539,0,0,0,.82,2.549,2.951,2.951,0,0,0,2.227.85,2.769,2.769,0,0,0,2.168-.879,3.642,3.642,0,0,0,.791-2.52V-42.773H58.3v31.143A12.668,12.668,0,0,1,57.275-6.3,11.082,11.082,0,0,1,54.4-2.461,12.369,12.369,0,0,1,50.186-.117,16.662,16.662,0,0,1,45,.674Q38.936.674,35.566-2.256ZM62.314-42.773H84.7v8.643H72.51V-26.1h9.668v8.7H72.51v8.7H84.756V0H62.314ZM91.084-2.9q-3.223-3.545-3.545-9.58l9.492-.293q.059.762.176,1.611a6.222,6.222,0,0,0,.439,1.67,4,4,0,0,0,.938,1.318,2.464,2.464,0,0,0,1.67.557,1.927,1.927,0,0,0,1.875-.937,4.406,4.406,0,0,0,.469-2.051,3.935,3.935,0,0,0-1.113-2.754A38.57,38.57,0,0,0,98.467-16.2l-3.545-3.105a26.2,26.2,0,0,1-5.01-5.771,12.575,12.575,0,0,1-1.758-6.65,12.624,12.624,0,0,1,.762-4.482,11.126,11.126,0,0,1,2.314-3.75,11.061,11.061,0,0,1,3.838-2.578,14.128,14.128,0,0,1,5.42-.967,14.309,14.309,0,0,1,4.189.615,9.152,9.152,0,0,1,3.633,2.08,11.438,11.438,0,0,1,2.666,4.072,19.019,19.019,0,0,1,1.172,6.387l-8.936.293a15.937,15.937,0,0,0-.264-1.934,6.1,6.1,0,0,0-.5-1.7,3.3,3.3,0,0,0-.908-1.2,2.4,2.4,0,0,0-1.523-.439,1.954,1.954,0,0,0-1.846.908,3.8,3.8,0,0,0-.557,1.9A2.971,2.971,0,0,0,98.027-31a7.221,7.221,0,0,0,1.113,1.465q.791.791,1.494,1.377.5.41,1.494,1.348l3.486,3.047a27.671,27.671,0,0,1,5.215,6.006,12.623,12.623,0,0,1,1.787,6.709,11.687,11.687,0,0,1-.879,4.541,11.219,11.219,0,0,1-2.49,3.721,11.481,11.481,0,0,1-3.926,2.52,13.991,13.991,0,0,1-5.186.938Q94.336.674,91.084-2.9Zm30.938-31.23h-8.027v-8.643h26.338v8.643h-8V0H122.021Zm21.357-8.643h10.254V0H143.379ZM165.469-.059a10.976,10.976,0,0,1-4.248-2.256A10.378,10.378,0,0,1,158.5-6.182a13.907,13.907,0,0,1-1-5.566V-31.025a13.391,13.391,0,0,1,1.025-5.361,11.217,11.217,0,0,1,2.842-3.9,11.773,11.773,0,0,1,4.219-2.373,16.681,16.681,0,0,1,5.244-.791,18.691,18.691,0,0,1,5.244.732,11.261,11.261,0,0,1,4.248,2.256,10.831,10.831,0,0,1,2.842,3.867,13.353,13.353,0,0,1,1.055,5.566v19.219A13.2,13.2,0,0,1,183.164-6.3a10.894,10.894,0,0,1-2.842,3.9,11.684,11.684,0,0,1-4.248,2.314,17.439,17.439,0,0,1-5.186.762A19.947,19.947,0,0,1,165.469-.059Zm7.617-9.082a3.4,3.4,0,0,0,.82-2.373V-31.377a2.992,2.992,0,0,0-.879-2.344,3.162,3.162,0,0,0-2.2-.791q-2.93,0-2.93,3.135v19.8a3.568,3.568,0,0,0,.732,2.4,2.77,2.77,0,0,0,2.256.879A2.8,2.8,0,0,0,173.086-9.141Zm15.029-33.633h10.313l8.027,19.189h.205V-42.773h9.053V0h-9.141l-9.229-22.031h-.176V0h-9.053ZM222.656-2.9q-3.223-3.545-3.545-9.58l9.492-.293q.059.762.176,1.611a6.222,6.222,0,0,0,.439,1.67,4,4,0,0,0,.938,1.318,2.464,2.464,0,0,0,1.67.557,1.927,1.927,0,0,0,1.875-.937,4.406,4.406,0,0,0,.469-2.051,3.935,3.935,0,0,0-1.113-2.754,38.57,38.57,0,0,0-3.018-2.842l-3.545-3.105a26.2,26.2,0,0,1-5.01-5.771,12.575,12.575,0,0,1-1.758-6.65,12.624,12.624,0,0,1,.762-4.482,11.126,11.126,0,0,1,2.314-3.75,11.061,11.061,0,0,1,3.838-2.578,14.128,14.128,0,0,1,5.42-.967,14.309,14.309,0,0,1,4.189.615,9.152,9.152,0,0,1,3.633,2.08,11.438,11.438,0,0,1,2.666,4.072,19.019,19.019,0,0,1,1.172,6.387l-8.936.293a15.937,15.937,0,0,0-.264-1.934,6.1,6.1,0,0,0-.5-1.7,3.3,3.3,0,0,0-.908-1.2,2.4,2.4,0,0,0-1.523-.439,1.954,1.954,0,0,0-1.846.908,3.8,3.8,0,0,0-.557,1.9A2.971,2.971,0,0,0,229.6-31a7.221,7.221,0,0,0,1.113,1.465q.791.791,1.494,1.377.5.41,1.494,1.348l3.486,3.047a27.671,27.671,0,0,1,5.215,6.006,12.623,12.623,0,0,1,1.787,6.709,11.687,11.687,0,0,1-.879,4.541,11.219,11.219,0,0,1-2.49,3.721,11.481,11.481,0,0,1-3.926,2.52,13.991,13.991,0,0,1-5.186.938Q225.908.674,222.656-2.9Zm30-11.191a17.052,17.052,0,0,1,.762-5.332,18.314,18.314,0,0,1,1.992-4.219q.439-.674,1.318-1.963a16.911,16.911,0,0,0,1.2-2.08,13.584,13.584,0,0,0,.879-2.373,10.713,10.713,0,0,0,.322-2.812,2.481,2.481,0,0,0-.527-1.67,1.9,1.9,0,0,0-1.523-.615,1.637,1.637,0,0,0-1.523.674,3.32,3.32,0,0,0-.439,1.787v3.281h-8.174v-3.457a11.2,11.2,0,0,1,.791-4.277,9.913,9.913,0,0,1,2.2-3.311,9.38,9.38,0,0,1,3.4-2.168,12.606,12.606,0,0,1,4.424-.762,11.054,11.054,0,0,1,7.939,2.783q2.959,2.813,2.988,8.027a13.629,13.629,0,0,1-.41,3.428,17.362,17.362,0,0,1-1,2.9,17.551,17.551,0,0,1-1.348,2.49q-.674,1.025-1.465,2.168-1.084,1.641-2.168,3.486a7.529,7.529,0,0,0-1.113,3.9v1.2h-8.525Zm-.234,3.721h9.346V0h-9.346Z" transform="translate(6 46)" fill="#ff3b6a"/>
  </g>
</svg>
