<svg xmlns="http://www.w3.org/2000/svg" xmlns:xlink="http://www.w3.org/1999/xlink" width="514" height="405" viewBox="0 0 514 405">
  <defs>
    <clipPath id="clip-Contact-us">
      <rect width="514" height="405"/>
    </clipPath>
  </defs>
  <g id="Contact-us" clip-path="url(#clip-Contact-us)">
    <path id="Path_127" data-name="Path 127" d="M34.761,208.692A41.544,41.544,0,0,1,20,200.8,37.013,37.013,0,0,1,9.946,187.672q-3.691-7.793-3.691-18.56V97.745A39.45,39.45,0,0,1,9.946,80.108,36.548,36.548,0,0,1,20.1,67.394,45.152,45.152,0,0,1,34.863,59.6a59.994,59.994,0,0,1,17.842-2.666,61.283,61.283,0,0,1,16.816,2.358,42.479,42.479,0,0,1,14.458,6.973A36.471,36.471,0,0,1,94.131,78.16q3.691,6.768,3.691,17.021V110.46H65.112V97.54q0-5.127-3.691-7.588a14.535,14.535,0,0,0-8.1-2.563,10.754,10.754,0,0,0-7.793,2.769q-2.871,2.769-2.871,8.2v70.547a13.161,13.161,0,0,0,2.563,8.511q2.666,3.281,7.9,3.281,9.844,0,9.844-10.356V156.09H49.731V129.43H97.822v42.656q0,19.072-12.2,29.121-12.3,10.151-32.5,10.151A61.744,61.744,0,0,1,34.761,208.692Zm76.7-149.4H189.8V89.542H147.144v28.1h33.838v30.454H147.144v30.454H190V209H111.46ZM227.227,89.542h-28.1V59.293h92.183V89.542H263.32V209H227.227Zm106.23-30.249h35.889V209H333.457Zm50.552,0H420.1l28.1,67.163h.718V59.293H480.6V209H448.608l-32.3-77.109h-.615V209H384.009Z" transform="translate(0 12)" fill="none" stroke="#fff" stroke-width="2"/>
    <path id="Path_129" data-name="Path 129" d="M31.479,89.542H3.384V59.293H95.566V89.542H67.573V209H31.479Zm99.463,119.253a38.416,38.416,0,0,1-14.868-7.9,36.324,36.324,0,0,1-9.536-13.535q-3.486-8-3.486-19.482V100.411a46.869,46.869,0,0,1,3.589-18.765,39.261,39.261,0,0,1,9.946-13.638A41.207,41.207,0,0,1,131.353,59.7a58.384,58.384,0,0,1,18.354-2.769A65.419,65.419,0,0,1,168.062,59.5a39.415,39.415,0,0,1,14.868,7.9,37.909,37.909,0,0,1,9.946,13.535q3.691,8.1,3.691,19.482v67.266q0,11.177-3.691,19.277a38.129,38.129,0,0,1-9.946,13.638,40.894,40.894,0,0,1-14.868,8.1,61.036,61.036,0,0,1-18.149,2.666A69.813,69.813,0,0,1,130.942,208.795Zm26.66-31.787a11.917,11.917,0,0,0,2.871-8.306V99.181q0-5.435-3.076-8.2a11.067,11.067,0,0,0-7.69-2.769q-10.254,0-10.254,10.972V168.5q0,5.435,2.563,8.408,2.563,3.076,7.9,3.076Q154.937,179.981,157.6,177.008Zm63.677,24.1q-11.689-10.151-11.689-32.2V59.293h36.094v109q0,5.947,2.871,8.921a10.327,10.327,0,0,0,7.793,2.974,9.692,9.692,0,0,0,7.588-3.076q2.769-3.076,2.769-8.818v-109H300.85v109q0,10.869-3.589,18.662a38.788,38.788,0,0,1-10.049,13.433,43.292,43.292,0,0,1-14.766,8.2,58.318,58.318,0,0,1-18.149,2.769Q233.071,211.358,221.279,201.1Zm120.483,7.69A40.241,40.241,0,0,1,327.1,201.1a34.778,34.778,0,0,1-9.741-12.92,44.682,44.682,0,0,1-3.589-18.457V97.745a37.478,37.478,0,0,1,13.945-30.352A45.01,45.01,0,0,1,342.48,59.6a60.338,60.338,0,0,1,17.944-2.666A55.156,55.156,0,0,1,376.934,59.4a39.9,39.9,0,0,1,13.74,7.28A36.494,36.494,0,0,1,400,78.878q3.486,7.075,3.486,17.124v16.2H370.884V98.565q0-5.127-2.974-7.793A10.79,10.79,0,0,0,360.425,88q-10.254,0-10.254,10.562V168.7q0,5.332,2.563,8.306t7.9,2.974a10.513,10.513,0,0,0,7.28-2.666q2.974-2.666,2.974-7.793V156.295h32.607v15.073a40.719,40.719,0,0,1-3.384,17.124A35.532,35.532,0,0,1,390.879,201a38.545,38.545,0,0,1-13.843,7.69,54.723,54.723,0,0,1-17.021,2.666A65.052,65.052,0,0,1,341.763,208.795ZM416.1,59.293h35.889v58.55H472.4V59.293h35.684V209H472.4V150.245H451.992V209H416.1Z" transform="translate(0 191)" fill="#fff" stroke="#fff" stroke-width="2"/>
    <path id="Path_128" data-name="Path 128" d="M9.785-.059A11.5,11.5,0,0,1,5.6-2.256,9.937,9.937,0,0,1,2.813-5.947a12.766,12.766,0,0,1-1.025-5.273V-31.787a11.015,11.015,0,0,1,1.084-5.039,10.906,10.906,0,0,1,2.9-3.633A12.86,12.86,0,0,1,9.99-42.686a17.24,17.24,0,0,1,5.127-.762,15.759,15.759,0,0,1,4.717.7,11.4,11.4,0,0,1,3.926,2.08,10.427,10.427,0,0,1,2.666,3.486,10.981,10.981,0,0,1,1,4.893v4.629H18.105v-3.9a2.836,2.836,0,0,0-.85-2.227,3.083,3.083,0,0,0-2.139-.791q-2.93,0-2.93,3.018v20.039a3.52,3.52,0,0,0,.732,2.373,2.819,2.819,0,0,0,2.256.85,3,3,0,0,0,2.08-.762,2.836,2.836,0,0,0,.85-2.227v-3.779h9.316v4.307a11.634,11.634,0,0,1-.967,4.893,10.152,10.152,0,0,1-2.637,3.574,11.013,11.013,0,0,1-3.955,2.2A15.635,15.635,0,0,1,15,.674,18.586,18.586,0,0,1,9.785-.059Zm28.887,0a10.976,10.976,0,0,1-4.248-2.256A10.378,10.378,0,0,1,31.7-6.182a13.907,13.907,0,0,1-1-5.566V-31.025a13.391,13.391,0,0,1,1.025-5.361,11.217,11.217,0,0,1,2.842-3.9,11.773,11.773,0,0,1,4.219-2.373,16.681,16.681,0,0,1,5.244-.791,18.691,18.691,0,0,1,5.244.732,11.261,11.261,0,0,1,4.248,2.256,10.831,10.831,0,0,1,2.842,3.867,13.353,13.353,0,0,1,1.055,5.566v19.219A13.2,13.2,0,0,1,56.367-6.3a10.894,10.894,0,0,1-2.842,3.9A11.684,11.684,0,0,1,49.277-.088a17.439,17.439,0,0,1-5.186.762A19.947,19.947,0,0,1,38.672-.059Zm7.617-9.082a3.4,3.4,0,0,0,.82-2.373V-31.377a2.992,2.992,0,0,0-.879-2.344,3.162,3.162,0,0,0-2.2-.791q-2.93,0-2.93,3.135v19.8a3.568,3.568,0,0,0,.732,2.4,2.77,2.77,0,0,0,2.256.879A2.8,2.8,0,0,0,46.289-9.141ZM61.318-42.773H71.631l8.027,19.189h.205V-42.773h9.053V0H79.775L70.547-22.031h-.176V0H61.318ZM99.99-34.131H91.963v-8.643H118.3v8.643h-8V0H99.99Zm26.455-8.7h14.033L148.623,0H138.311l-1.436-7.969h-8.291L127.207,0h-9.4ZM135.264-16.2,132.92-31.318h-.176L130.225-16.2Zm23.2,16.143a11.5,11.5,0,0,1-4.189-2.2,9.937,9.937,0,0,1-2.783-3.691,12.766,12.766,0,0,1-1.025-5.273V-31.787a11.015,11.015,0,0,1,1.084-5.039,10.906,10.906,0,0,1,2.9-3.633,12.86,12.86,0,0,1,4.219-2.227,17.24,17.24,0,0,1,5.127-.762,15.759,15.759,0,0,1,4.717.7,11.4,11.4,0,0,1,3.926,2.08,10.427,10.427,0,0,1,2.666,3.486,10.981,10.981,0,0,1,1,4.893v4.629h-9.316v-3.9a2.836,2.836,0,0,0-.85-2.227,3.083,3.083,0,0,0-2.139-.791q-2.93,0-2.93,3.018v20.039a3.52,3.52,0,0,0,.732,2.373,2.819,2.819,0,0,0,2.256.85,3,3,0,0,0,2.08-.762,2.836,2.836,0,0,0,.85-2.227v-3.779H176.1v4.307a11.634,11.634,0,0,1-.967,4.893A10.152,10.152,0,0,1,172.5-2.285a11.013,11.013,0,0,1-3.955,2.2,15.635,15.635,0,0,1-4.863.762A18.586,18.586,0,0,1,158.467-.059Zm27.539-34.072h-8.027v-8.643h26.338v8.643h-8V0H186.006ZM219.521-2.256q-3.34-2.9-3.34-9.2V-42.773h10.313v31.143a3.539,3.539,0,0,0,.82,2.549,2.951,2.951,0,0,0,2.227.85,2.769,2.769,0,0,0,2.168-.879,3.642,3.642,0,0,0,.791-2.52V-42.773h9.756v31.143A12.668,12.668,0,0,1,241.23-6.3a11.082,11.082,0,0,1-2.871,3.838,12.369,12.369,0,0,1-4.219,2.344,16.662,16.662,0,0,1-5.186.791Q222.891.674,219.521-2.256Zm29.5-.645q-3.223-3.545-3.545-9.58l9.492-.293q.059.762.176,1.611a6.222,6.222,0,0,0,.439,1.67,4,4,0,0,0,.938,1.318,2.464,2.464,0,0,0,1.67.557,1.927,1.927,0,0,0,1.875-.937,4.406,4.406,0,0,0,.469-2.051,3.935,3.935,0,0,0-1.113-2.754,38.57,38.57,0,0,0-3.018-2.842l-3.545-3.105a26.2,26.2,0,0,1-5.01-5.771,12.575,12.575,0,0,1-1.758-6.65,12.624,12.624,0,0,1,.762-4.482,11.126,11.126,0,0,1,2.314-3.75,11.061,11.061,0,0,1,3.838-2.578,14.128,14.128,0,0,1,5.42-.967,14.309,14.309,0,0,1,4.189.615,9.152,9.152,0,0,1,3.633,2.08,11.438,11.438,0,0,1,2.666,4.072,19.019,19.019,0,0,1,1.172,6.387l-8.936.293a15.937,15.937,0,0,0-.264-1.934,6.1,6.1,0,0,0-.5-1.7,3.3,3.3,0,0,0-.908-1.2,2.4,2.4,0,0,0-1.523-.439,1.954,1.954,0,0,0-1.846.908,3.8,3.8,0,0,0-.557,1.9,2.971,2.971,0,0,0,.41,1.523,7.221,7.221,0,0,0,1.113,1.465q.791.791,1.494,1.377.5.41,1.494,1.348l3.486,3.047a27.671,27.671,0,0,1,5.215,6.006,12.623,12.623,0,0,1,1.787,6.709,11.687,11.687,0,0,1-.879,4.541,11.219,11.219,0,0,1-2.49,3.721,11.481,11.481,0,0,1-3.926,2.52,13.991,13.991,0,0,1-5.186.938Q252.275.674,249.023-2.9Z" transform="translate(8 45)" fill="#ff3b6a"/>
  </g>
</svg>
