<svg xmlns="http://www.w3.org/2000/svg" xmlns:xlink="http://www.w3.org/1999/xlink" width="940" height="425" viewBox="0 0 940 425"><defs><clipPath id="b"><rect width="940" height="425"/></clipPath></defs><g id="a" clip-path="url(#b)"><path d="M34.761,208.692A41.544,41.544,0,0,1,20,200.8,37.013,37.013,0,0,1,9.946,187.672q-3.691-7.793-3.691-18.56V97.745A39.45,39.45,0,0,1,9.946,80.108,36.548,36.548,0,0,1,20.1,67.394,45.152,45.152,0,0,1,34.863,59.6a59.994,59.994,0,0,1,17.842-2.666,61.283,61.283,0,0,1,16.816,2.358,42.479,42.479,0,0,1,14.458,6.973A36.471,36.471,0,0,1,94.131,78.16q3.691,6.768,3.691,17.021V110.46H65.112V97.54q0-5.127-3.691-7.588a14.535,14.535,0,0,0-8.1-2.563,10.754,10.754,0,0,0-7.793,2.769q-2.871,2.769-2.871,8.2v70.547a13.161,13.161,0,0,0,2.563,8.511q2.666,3.281,7.9,3.281,9.844,0,9.844-10.356V156.09H49.731V129.43H97.822v42.656q0,19.072-12.2,29.121-12.3,10.151-32.5,10.151A61.744,61.744,0,0,1,34.761,208.692Zm103.462.1a38.416,38.416,0,0,1-14.868-7.9,36.324,36.324,0,0,1-9.536-13.535q-3.486-8-3.486-19.482V100.411a46.869,46.869,0,0,1,3.589-18.765,39.261,39.261,0,0,1,9.946-13.638A41.207,41.207,0,0,1,138.633,59.7a58.384,58.384,0,0,1,18.354-2.769A65.419,65.419,0,0,1,175.342,59.5a39.415,39.415,0,0,1,14.868,7.9,37.909,37.909,0,0,1,9.946,13.535q3.691,8.1,3.691,19.482v67.266q0,11.177-3.691,19.277a38.129,38.129,0,0,1-9.946,13.638,40.894,40.894,0,0,1-14.868,8.1,61.036,61.036,0,0,1-18.149,2.666A69.813,69.813,0,0,1,138.223,208.795Zm26.66-31.787a11.917,11.917,0,0,0,2.871-8.306V99.181q0-5.435-3.076-8.2a11.067,11.067,0,0,0-7.69-2.769q-10.254,0-10.254,10.972V168.5q0,5.435,2.563,8.408,2.563,3.076,7.9,3.076Q162.217,179.981,164.883,177.008Zm74.648-87.466h-28.1V59.293h92.183V89.542H275.625V209H239.531Z" transform="translate(634.246 12)" fill="none" stroke="#fff" stroke-width="2"/><path d="M59.678,210.846q-.615.1-1.641.256a11.384,11.384,0,0,1-1.538.154q-1.025.1-3.179.1a69.813,69.813,0,0,1-18.97-2.563,38.361,38.361,0,0,1-14.971-7.9,38.047,38.047,0,0,1-9.639-13.535q-3.486-8-3.486-19.482V100.411A46.869,46.869,0,0,1,9.844,81.646,39.261,39.261,0,0,1,19.79,68.009,42.251,42.251,0,0,1,34.658,59.7a59.973,59.973,0,0,1,18.457-2.769A65.419,65.419,0,0,1,71.47,59.5a41.46,41.46,0,0,1,14.971,7.9A37.742,37.742,0,0,1,96.489,80.929q3.691,8.1,3.691,19.482v67.266a48.579,48.579,0,0,1-2.051,14.355,36.378,36.378,0,0,1-5.537,11.177l13.022,8.408L83.364,229Zm1.436-33.838a11.667,11.667,0,0,0,2.974-8.306V99.181q0-5.332-3.179-8.2a11.209,11.209,0,0,0-7.793-2.769q-10.459,0-10.459,10.972V168.5q0,5.435,2.666,8.408,2.769,3.076,8,3.076A10.327,10.327,0,0,0,61.113,177.008Zm63.369,24.1q-11.689-10.151-11.689-32.2V59.293h36.094v109q0,5.947,2.871,8.921a10.327,10.327,0,0,0,7.793,2.974,9.692,9.692,0,0,0,7.588-3.076q2.769-3.076,2.769-8.818v-109h34.146v109q0,10.869-3.589,18.662a38.788,38.788,0,0,1-10.049,13.433,43.292,43.292,0,0,1-14.766,8.2,58.318,58.318,0,0,1-18.149,2.769Q136.274,211.358,124.482,201.1ZM218.1,59.293h78.34V89.542H253.784v28.1h33.838v30.454H253.784v30.454h42.861V209H218.1ZM318.794,198.849q-11.279-12.407-12.407-33.53l33.223-1.025q.205,2.666.615,5.64a21.776,21.776,0,0,0,1.538,5.845,13.988,13.988,0,0,0,3.281,4.614,8.623,8.623,0,0,0,5.845,1.948q4.819,0,6.563-3.281a15.419,15.419,0,0,0,1.641-7.178,13.773,13.773,0,0,0-3.9-9.639,135,135,0,0,0-10.562-9.946l-12.407-10.869q-11.484-10.254-17.534-20.2A44.014,44.014,0,0,1,308.54,97.95a44.185,44.185,0,0,1,2.666-15.688,37.351,37.351,0,0,1,21.533-22.148,49.448,49.448,0,0,1,18.97-3.384,50.08,50.08,0,0,1,14.663,2.153,32.033,32.033,0,0,1,12.715,7.28q5.537,5.127,9.331,14.253,3.589,8.818,4.1,22.354l-31.274,1.025a55.778,55.778,0,0,0-.923-6.768,21.341,21.341,0,0,0-1.743-5.947,11.546,11.546,0,0,0-3.179-4.2,8.387,8.387,0,0,0-5.332-1.538q-4.614,0-6.46,3.179a13.3,13.3,0,0,0-1.948,6.665,10.4,10.4,0,0,0,1.436,5.332,25.274,25.274,0,0,0,3.9,5.127q2.769,2.769,5.229,4.819,1.743,1.436,5.229,4.717l12.2,10.664q12,10.767,18.252,21.021a44.181,44.181,0,0,1,6.255,23.481,40.906,40.906,0,0,1-3.076,15.894,39.268,39.268,0,0,1-8.716,13.022,40.185,40.185,0,0,1-13.74,8.818,48.968,48.968,0,0,1-18.149,3.281Q330.176,211.358,318.794,198.849ZM427.075,89.542h-28.1V59.293h92.183V89.542H463.169V209H427.075Zm74.751-30.249h35.889V209H501.826Zm77.314,149.5a38.416,38.416,0,0,1-14.868-7.9,36.324,36.324,0,0,1-9.536-13.535q-3.486-8-3.486-19.482V100.411a46.869,46.869,0,0,1,3.589-18.765,39.261,39.261,0,0,1,9.946-13.638A41.207,41.207,0,0,1,579.551,59.7a58.384,58.384,0,0,1,18.354-2.769A65.419,65.419,0,0,1,616.26,59.5a39.415,39.415,0,0,1,14.868,7.9,37.909,37.909,0,0,1,9.946,13.535q3.691,8.1,3.691,19.482v67.266q0,11.177-3.691,19.277a38.129,38.129,0,0,1-9.946,13.638,40.894,40.894,0,0,1-14.868,8.1,61.036,61.036,0,0,1-18.149,2.666A69.813,69.813,0,0,1,579.141,208.795Zm26.66-31.787a11.917,11.917,0,0,0,2.871-8.306V99.181q0-5.435-3.076-8.2a11.067,11.067,0,0,0-7.69-2.769q-10.254,0-10.254,10.972V168.5q0,5.435,2.563,8.408,2.563,3.076,7.9,3.076Q603.135,179.981,605.8,177.008ZM658.4,59.293H694.5l28.1,67.163h.718V59.293H755V209H723l-32.3-77.109h-.615V209H658.4ZM779.3,198.849q-11.279-12.407-12.407-33.53l33.223-1.025q.205,2.666.615,5.64a21.776,21.776,0,0,0,1.538,5.845,13.988,13.988,0,0,0,3.281,4.614,8.623,8.623,0,0,0,5.845,1.948q4.819,0,6.563-3.281a15.419,15.419,0,0,0,1.641-7.178,13.773,13.773,0,0,0-3.9-9.639,135,135,0,0,0-10.562-9.946l-12.407-10.869q-11.484-10.254-17.534-20.2a44.014,44.014,0,0,1-6.152-23.276,44.185,44.185,0,0,1,2.666-15.688,37.351,37.351,0,0,1,21.533-22.148,49.448,49.448,0,0,1,18.97-3.384,50.08,50.08,0,0,1,14.663,2.153,32.033,32.033,0,0,1,12.715,7.28q5.537,5.127,9.331,14.253,3.589,8.818,4.1,22.354l-31.274,1.025a55.778,55.778,0,0,0-.923-6.768,21.341,21.341,0,0,0-1.743-5.947,11.546,11.546,0,0,0-3.179-4.2,8.387,8.387,0,0,0-5.332-1.538q-4.614,0-6.46,3.179a13.3,13.3,0,0,0-1.948,6.665,10.4,10.4,0,0,0,1.436,5.332,25.274,25.274,0,0,0,3.9,5.127q2.769,2.769,5.229,4.819,1.743,1.436,5.229,4.717l12.2,10.664q12,10.767,18.252,21.021a44.181,44.181,0,0,1,6.255,23.481,40.906,40.906,0,0,1-3.076,15.894,39.268,39.268,0,0,1-8.716,13.022,40.185,40.185,0,0,1-13.74,8.818,48.968,48.968,0,0,1-18.149,3.281Q790.679,211.358,779.3,198.849Zm105-39.17a59.681,59.681,0,0,1,2.666-18.662,64.1,64.1,0,0,1,6.973-14.766q1.538-2.358,4.614-6.87a59.187,59.187,0,0,0,4.2-7.28,47.544,47.544,0,0,0,3.076-8.306,37.5,37.5,0,0,0,1.128-9.844,8.683,8.683,0,0,0-1.846-5.845,6.637,6.637,0,0,0-5.332-2.153q-3.9,0-5.332,2.358a11.619,11.619,0,0,0-1.538,6.255v11.484H864.3v-12.1A39.185,39.185,0,0,1,867.07,78.98a34.7,34.7,0,0,1,7.69-11.587,32.829,32.829,0,0,1,11.895-7.588,44.119,44.119,0,0,1,15.483-2.666q17.534,0,27.788,9.741,10.356,9.844,10.459,28.1a47.7,47.7,0,0,1-1.436,12,60.766,60.766,0,0,1-3.486,10.151,61.428,61.428,0,0,1-4.717,8.716q-2.358,3.589-5.127,7.588-3.794,5.742-7.588,12.2a26.35,26.35,0,0,0-3.9,13.638v4.2H884.3Zm-.82,13.022h32.71V209h-32.71Z" transform="translate(-2.754 191)" fill="#fff" stroke="#fff" stroke-width="2"/><path d="M2.109-42.773H24.492v8.643H12.3v8.32h9.668v8.76H12.3V0H2.109Zm30.645-.059H46.787L54.932,0H44.619L43.184-7.969H34.893L33.516,0h-9.4ZM41.572-16.2,39.229-31.318h-.176L36.533-16.2ZM72.949.527Q72.773.557,72.48.6a3.253,3.253,0,0,1-.439.044q-.293.029-.908.029a19.947,19.947,0,0,1-5.42-.732,10.96,10.96,0,0,1-4.277-2.256,10.871,10.871,0,0,1-2.754-3.867,13.907,13.907,0,0,1-1-5.566V-31.025a13.391,13.391,0,0,1,1.025-5.361,11.217,11.217,0,0,1,2.842-3.9A12.072,12.072,0,0,1,65.8-42.656a17.135,17.135,0,0,1,5.273-.791,18.691,18.691,0,0,1,5.244.732A11.846,11.846,0,0,1,80.6-40.459a10.783,10.783,0,0,1,2.871,3.867,13.353,13.353,0,0,1,1.055,5.566v19.219a13.88,13.88,0,0,1-.586,4.1,10.394,10.394,0,0,1-1.582,3.193l3.721,2.4L79.717,5.713Zm.41-9.668a3.334,3.334,0,0,0,.85-2.373V-31.377a3,3,0,0,0-.908-2.344,3.2,3.2,0,0,0-2.227-.791q-2.988,0-2.988,3.135v19.8a3.477,3.477,0,0,0,.762,2.4,2.916,2.916,0,0,0,2.285.879A2.951,2.951,0,0,0,73.359-9.141Zm17.7,6.24q-3.223-3.545-3.545-9.58L97-12.773q.059.762.176,1.611a6.222,6.222,0,0,0,.439,1.67,4,4,0,0,0,.938,1.318,2.464,2.464,0,0,0,1.67.557,1.927,1.927,0,0,0,1.875-.937,4.406,4.406,0,0,0,.469-2.051,3.935,3.935,0,0,0-1.113-2.754A38.57,38.57,0,0,0,98.438-16.2l-3.545-3.105a26.2,26.2,0,0,1-5.01-5.771,12.575,12.575,0,0,1-1.758-6.65,12.624,12.624,0,0,1,.762-4.482,11.126,11.126,0,0,1,2.314-3.75,11.061,11.061,0,0,1,3.838-2.578,14.128,14.128,0,0,1,5.42-.967,14.309,14.309,0,0,1,4.189.615,9.152,9.152,0,0,1,3.633,2.08,11.438,11.438,0,0,1,2.666,4.072,19.019,19.019,0,0,1,1.172,6.387l-8.936.293a15.937,15.937,0,0,0-.264-1.934,6.1,6.1,0,0,0-.5-1.7,3.3,3.3,0,0,0-.908-1.2,2.4,2.4,0,0,0-1.523-.439,1.954,1.954,0,0,0-1.846.908,3.8,3.8,0,0,0-.557,1.9A2.971,2.971,0,0,0,98-31a7.221,7.221,0,0,0,1.113,1.465q.791.791,1.494,1.377.5.41,1.494,1.348l3.486,3.047a27.671,27.671,0,0,1,5.215,6.006,12.623,12.623,0,0,1,1.787,6.709,11.687,11.687,0,0,1-.879,4.541,11.219,11.219,0,0,1-2.49,3.721,11.481,11.481,0,0,1-3.926,2.52,13.991,13.991,0,0,1-5.186.938Q94.307.674,91.055-2.9Z" transform="translate(824.891 45)" fill="#ff3b6a"/></g></svg>