<svg xmlns="http://www.w3.org/2000/svg" xmlns:xlink="http://www.w3.org/1999/xlink" width="671" height="525" viewBox="0 0 671 525"><defs><clipPath id="b"><rect width="671" height="525"/></clipPath></defs><g id="a" clip-path="url(#b)"><text transform="translate(453 -140)" fill="#707070" font-size="20" font-family="HelveticaNeue, Helvetica Neue"><tspan x="0" y="19">Roots &amp; Routes</tspan></text><path d="M7.383,59.293h78.34V89.542H43.066v29.121H76.9v30.659H43.066V209H7.383Zm90.439,0h35.889V209H97.822Zm50.552,0h48.3a56.316,56.316,0,0,1,17.637,2.563,35.865,35.865,0,0,1,13.638,8.1,34.851,34.851,0,0,1,8.716,14.15,63.648,63.648,0,0,1,3.076,20.918q0,16.3-4.512,25.635a34.187,34.187,0,0,1-11.895,14.048L241.582,209H204.36l-12.92-56.5h-7.178V209H148.374Zm44.707,66.958a9.619,9.619,0,0,0,7.9-3.9q2.974-3.691,2.974-15.176,0-10.767-2.974-14.458a9.712,9.712,0,0,0-7.9-3.794h-8.818v37.324Zm69.009,72.6q-11.279-12.407-12.407-33.53l33.223-1.025q.205,2.666.615,5.64a21.776,21.776,0,0,0,1.538,5.845,13.988,13.988,0,0,0,3.281,4.614,8.623,8.623,0,0,0,5.845,1.948q4.819,0,6.563-3.281a15.419,15.419,0,0,0,1.641-7.178,13.773,13.773,0,0,0-3.9-9.639A135,135,0,0,0,287.93,152.3l-12.407-10.869q-11.484-10.254-17.534-20.2a44.014,44.014,0,0,1-6.152-23.276A44.185,44.185,0,0,1,254.5,82.262a37.351,37.351,0,0,1,21.533-22.148A49.448,49.448,0,0,1,295,56.729a50.08,50.08,0,0,1,14.663,2.153,32.033,32.033,0,0,1,12.715,7.28q5.537,5.127,9.331,14.253,3.589,8.818,4.1,22.354l-31.274,1.025a55.778,55.778,0,0,0-.923-6.768,21.341,21.341,0,0,0-1.743-5.947,11.546,11.546,0,0,0-3.179-4.2,8.387,8.387,0,0,0-5.332-1.538q-4.614,0-6.46,3.179a13.3,13.3,0,0,0-1.948,6.665,10.4,10.4,0,0,0,1.436,5.332,25.274,25.274,0,0,0,3.9,5.127q2.769,2.769,5.229,4.819,1.743,1.436,5.229,4.717l12.2,10.664q12,10.767,18.252,21.021a44.181,44.181,0,0,1,6.255,23.481,40.906,40.906,0,0,1-3.076,15.894,39.268,39.268,0,0,1-8.716,13.022,40.185,40.185,0,0,1-13.74,8.818,48.968,48.968,0,0,1-18.149,3.281Q273.472,211.358,262.09,198.849ZM370.371,89.542h-28.1V59.293h92.183V89.542H406.465V209H370.371Z" transform="translate(-4 -55.5)" fill="none" stroke="#fff" stroke-width="2"/><path d="M7.383,59.293H43.271v58.55H63.677V59.293H99.36V209H63.677V150.245H43.271V209H7.383Zm133.4,149.5a38.416,38.416,0,0,1-14.868-7.9,36.324,36.324,0,0,1-9.536-13.535q-3.486-8-3.486-19.482V100.411a46.869,46.869,0,0,1,3.589-18.765,39.261,39.261,0,0,1,9.946-13.638A41.207,41.207,0,0,1,141.2,59.7a58.384,58.384,0,0,1,18.354-2.769A65.419,65.419,0,0,1,177.905,59.5a39.415,39.415,0,0,1,14.868,7.9,37.909,37.909,0,0,1,9.946,13.535q3.691,8.1,3.691,19.482v67.266q0,11.177-3.691,19.277a38.129,38.129,0,0,1-9.946,13.638,40.894,40.894,0,0,1-14.868,8.1,61.036,61.036,0,0,1-18.149,2.666A69.813,69.813,0,0,1,140.786,208.795Zm26.66-31.787a11.917,11.917,0,0,0,2.871-8.306V99.181q0-5.435-3.076-8.2a11.067,11.067,0,0,0-7.69-2.769q-10.254,0-10.254,10.972V168.5q0,5.435,2.563,8.408,2.563,3.076,7.9,3.076Q164.78,179.981,167.446,177.008Zm52.6-117.715h35.684V178.546h42.861V209H220.049Zm90.645,0h47.168a58.646,58.646,0,0,1,17.227,2.358,40.71,40.71,0,0,1,13.945,7.178,35.673,35.673,0,0,1,9.331,12,37.924,37.924,0,0,1,3.486,16.919v71.367q0,10.459-3.486,17.842a35.119,35.119,0,0,1-9.331,12.407,40.71,40.71,0,0,1-13.945,7.178A58.3,58.3,0,0,1,357.861,209H310.693ZM354.58,178.546q6.152,0,8.613-3.589a14.2,14.2,0,0,0,2.461-8.408V101.026a11.8,11.8,0,0,0-2.769-8.2q-2.769-3.076-8.716-3.076h-7.793v88.8Zm116.382-89h-28.1V59.293h92.183V89.542H507.056V209H470.962Zm99.463,119.253a38.416,38.416,0,0,1-14.868-7.9,36.324,36.324,0,0,1-9.536-13.535q-3.486-8-3.486-19.482V100.411a46.869,46.869,0,0,1,3.589-18.765,39.261,39.261,0,0,1,9.946-13.638A41.207,41.207,0,0,1,570.835,59.7a58.384,58.384,0,0,1,18.354-2.769A65.419,65.419,0,0,1,607.544,59.5a39.415,39.415,0,0,1,14.868,7.9,37.909,37.909,0,0,1,9.946,13.535q3.691,8.1,3.691,19.482v67.266q0,11.177-3.691,19.277a38.129,38.129,0,0,1-9.946,13.638,40.894,40.894,0,0,1-14.868,8.1,61.036,61.036,0,0,1-18.149,2.666A69.813,69.813,0,0,1,570.425,208.795Zm26.66-31.787a11.917,11.917,0,0,0,2.871-8.306V99.181q0-5.435-3.076-8.2a11.067,11.067,0,0,0-7.69-2.769q-10.254,0-10.254,10.972V168.5q0,5.435,2.563,8.408,2.563,3.076,7.9,3.076Q594.419,179.981,597.085,177.008Z" transform="translate(-4 128.5)" fill="none" stroke="#fff" stroke-width="2"/><path d="M31.479,89.542H3.384V59.293H95.566V89.542H67.573V209H31.479Zm99.463,119.253a38.416,38.416,0,0,1-14.868-7.9,36.324,36.324,0,0,1-9.536-13.535q-3.486-8-3.486-19.482V100.411a46.869,46.869,0,0,1,3.589-18.765,39.261,39.261,0,0,1,9.946-13.638A41.207,41.207,0,0,1,131.353,59.7a58.384,58.384,0,0,1,18.354-2.769A65.419,65.419,0,0,1,168.062,59.5a39.415,39.415,0,0,1,14.868,7.9,37.909,37.909,0,0,1,9.946,13.535q3.691,8.1,3.691,19.482v67.266q0,11.177-3.691,19.277a38.129,38.129,0,0,1-9.946,13.638,40.894,40.894,0,0,1-14.868,8.1,61.036,61.036,0,0,1-18.149,2.666A69.813,69.813,0,0,1,130.942,208.795Zm26.66-31.787a11.917,11.917,0,0,0,2.871-8.306V99.181q0-5.435-3.076-8.2a11.067,11.067,0,0,0-7.69-2.769q-10.254,0-10.254,10.972V168.5q0,5.435,2.563,8.408,2.563,3.076,7.9,3.076Q154.937,179.981,157.6,177.008Zm52.6-117.715h51.167q18.765,0,28.608,11.484,9.844,11.587,9.844,35.581t-9.331,37.427q-9.331,13.535-29.941,13.535H246.094V209H210.205ZM254.912,128.4q4.922,0,7.383-5.127t2.461-16.1q0-10.562-2.461-14.561a8.1,8.1,0,0,0-7.383-4h-8.818V128.4Zm115.767,80.391a38.416,38.416,0,0,1-14.868-7.9,36.324,36.324,0,0,1-9.536-13.535q-3.486-8-3.486-19.482V100.411a46.869,46.869,0,0,1,3.589-18.765,39.261,39.261,0,0,1,9.946-13.638A41.207,41.207,0,0,1,371.089,59.7a58.384,58.384,0,0,1,18.354-2.769A65.419,65.419,0,0,1,407.8,59.5a39.415,39.415,0,0,1,14.868,7.9,37.909,37.909,0,0,1,9.946,13.535q3.691,8.1,3.691,19.482v67.266q0,11.177-3.691,19.277a38.129,38.129,0,0,1-9.946,13.638,40.894,40.894,0,0,1-14.868,8.1,61.036,61.036,0,0,1-18.149,2.666A69.813,69.813,0,0,1,370.679,208.795Zm26.66-31.787a11.917,11.917,0,0,0,2.871-8.306V99.181q0-5.435-3.076-8.2a11.067,11.067,0,0,0-7.69-2.769q-10.254,0-10.254,10.972V168.5q0,5.435,2.563,8.408,2.563,3.076,7.9,3.076Q394.673,179.981,397.339,177.008Zm63.677,24.1q-11.689-10.151-11.689-32.2V59.293H485.42v109q0,5.947,2.871,8.921a10.327,10.327,0,0,0,7.793,2.974,9.692,9.692,0,0,0,7.588-3.076q2.769-3.076,2.769-8.818v-109h34.146v109q0,10.869-3.589,18.662a38.788,38.788,0,0,1-10.049,13.433,43.292,43.292,0,0,1-14.766,8.2,58.318,58.318,0,0,1-18.149,2.769Q472.808,211.358,461.016,201.1ZM578.73,89.542h-28.1V59.293h92.183V89.542H614.824V209H578.73ZM640.972,172.7h31.172V209H640.972Z" transform="translate(-4 307.5)" fill="#fff"/></g></svg>