<svg xmlns="http://www.w3.org/2000/svg" xmlns:xlink="http://www.w3.org/1999/xlink" width="597" height="338" viewBox="0 0 597 338"><defs><clipPath id="b"><rect width="597" height="338"/></clipPath></defs><g id="a" clip-path="url(#b)"><path d="M7.383,59.293h78.34V89.542H43.066v29.121H76.9v30.659H43.066V209H7.383Zm90.439,0h35.889V209H97.822Zm50.552,0h48.3a56.316,56.316,0,0,1,17.637,2.563,35.865,35.865,0,0,1,13.638,8.1,34.851,34.851,0,0,1,8.716,14.15,63.648,63.648,0,0,1,3.076,20.918q0,16.3-4.512,25.635a34.187,34.187,0,0,1-11.895,14.048L241.582,209H204.36l-12.92-56.5h-7.178V209H148.374Zm44.707,66.958a9.619,9.619,0,0,0,7.9-3.9q2.974-3.691,2.974-15.176,0-10.767-2.974-14.458a9.712,9.712,0,0,0-7.9-3.794h-8.818v37.324Zm69.009,72.6q-11.279-12.407-12.407-33.53l33.223-1.025q.205,2.666.615,5.64a21.776,21.776,0,0,0,1.538,5.845,13.988,13.988,0,0,0,3.281,4.614,8.623,8.623,0,0,0,5.845,1.948q4.819,0,6.563-3.281a15.419,15.419,0,0,0,1.641-7.178,13.773,13.773,0,0,0-3.9-9.639A135,135,0,0,0,287.93,152.3l-12.407-10.869q-11.484-10.254-17.534-20.2a44.014,44.014,0,0,1-6.152-23.276A44.185,44.185,0,0,1,254.5,82.262a37.351,37.351,0,0,1,21.533-22.148A49.448,49.448,0,0,1,295,56.729a50.08,50.08,0,0,1,14.663,2.153,32.033,32.033,0,0,1,12.715,7.28q5.537,5.127,9.331,14.253,3.589,8.818,4.1,22.354l-31.274,1.025a55.778,55.778,0,0,0-.923-6.768,21.341,21.341,0,0,0-1.743-5.947,11.546,11.546,0,0,0-3.179-4.2,8.387,8.387,0,0,0-5.332-1.538q-4.614,0-6.46,3.179a13.3,13.3,0,0,0-1.948,6.665,10.4,10.4,0,0,0,1.436,5.332,25.274,25.274,0,0,0,3.9,5.127q2.769,2.769,5.229,4.819,1.743,1.436,5.229,4.717l12.2,10.664q12,10.767,18.252,21.021a44.181,44.181,0,0,1,6.255,23.481,40.906,40.906,0,0,1-3.076,15.894,39.268,39.268,0,0,1-8.716,13.022,40.185,40.185,0,0,1-13.74,8.818,48.968,48.968,0,0,1-18.149,3.281Q273.472,211.358,262.09,198.849ZM370.371,89.542h-28.1V59.293h92.183V89.542H406.465V209H370.371Z" transform="translate(-3 -55)" fill="none" stroke="#fff" stroke-width="2"/><path d="M34.248,208.795a40.241,40.241,0,0,1-14.663-7.69,34.778,34.778,0,0,1-9.741-12.92,44.682,44.682,0,0,1-3.589-18.457V97.745a38.551,38.551,0,0,1,3.794-17.637A38.173,38.173,0,0,1,20.2,67.394,45.01,45.01,0,0,1,34.966,59.6,60.338,60.338,0,0,1,52.91,56.935,55.156,55.156,0,0,1,69.419,59.4a39.9,39.9,0,0,1,13.74,7.28,36.494,36.494,0,0,1,9.331,12.2Q95.977,85.953,95.977,96v16.2H63.369V98.565q0-5.127-2.974-7.793A10.79,10.79,0,0,0,52.91,88Q42.656,88,42.656,98.565V168.7q0,5.332,2.563,8.306t7.9,2.974a10.513,10.513,0,0,0,7.28-2.666q2.974-2.666,2.974-7.793V156.295H95.977v15.073a40.719,40.719,0,0,1-3.384,17.124A35.532,35.532,0,0,1,83.364,201a38.545,38.545,0,0,1-13.843,7.69A54.723,54.723,0,0,1,52.5,211.358,65.052,65.052,0,0,1,34.248,208.795Zm74.341-149.5h35.684V178.546h42.861V209H108.589Zm90.645,0h35.889V209H199.233Zm50.552,0h46.143l13.022,57.114h.615l13.945-57.114H367.4V209H335.815V110.768h-.41l-14.253,64.395H296.543l-14.868-64.395h-.41V209H249.785Zm132.275,0H436a49.16,49.16,0,0,1,14.868,2.051,27.868,27.868,0,0,1,11.587,6.87,32.213,32.213,0,0,1,7.485,12Q472.5,87.286,472.5,97.95q0,15.894-5.64,23.994a28.7,28.7,0,0,1-13.843,11.074v.82A28.832,28.832,0,0,1,467.578,144.4q5.845,7.793,5.845,22.148,0,21.021-10.151,31.787Q453.223,209,437.227,209H382.061Zm45.732,120.688a7.711,7.711,0,0,0,7.178-4.2q2.256-4.1,2.256-11.484,0-8.2-2.461-11.895a8.281,8.281,0,0,0-7.383-3.691h-9.639v31.274Zm-.82-60.6q5.537,0,7.793-4,2.256-3.9,2.256-12.612Q437.021,87.8,428,87.8H417.744v31.582Zm77.212,40.3a59.681,59.681,0,0,1,2.666-18.662,64.1,64.1,0,0,1,6.973-14.766q1.538-2.358,4.614-6.87a59.187,59.187,0,0,0,4.2-7.28,47.544,47.544,0,0,0,3.076-8.306,37.5,37.5,0,0,0,1.128-9.844A8.683,8.683,0,0,0,525,88.106a6.637,6.637,0,0,0-5.332-2.153q-3.9,0-5.332,2.358a11.619,11.619,0,0,0-1.538,6.255v11.484H484.189v-12.1a39.185,39.185,0,0,1,2.769-14.971,34.7,34.7,0,0,1,7.69-11.587,32.829,32.829,0,0,1,11.895-7.588,44.119,44.119,0,0,1,15.483-2.666q17.534,0,27.788,9.741,10.356,9.844,10.459,28.1a47.7,47.7,0,0,1-1.436,12,60.766,60.766,0,0,1-3.486,10.151,61.428,61.428,0,0,1-4.717,8.716q-2.358,3.589-5.127,7.588-3.794,5.742-7.588,12.2a26.35,26.35,0,0,0-3.9,13.638v4.2H504.185Zm-.82,13.022h32.71V209h-32.71Z" transform="translate(-3 124)" fill="#fff"/></g></svg>