<svg xmlns="http://www.w3.org/2000/svg" xmlns:xlink="http://www.w3.org/1999/xlink" width="678" height="524" viewBox="0 0 678 524"><defs><clipPath id="b"><rect width="678" height="524"/></clipPath></defs><g id="a" clip-path="url(#b)"><path d="M34.761,208.692A41.544,41.544,0,0,1,20,200.8,37.013,37.013,0,0,1,9.946,187.672q-3.691-7.793-3.691-18.56V97.745A39.45,39.45,0,0,1,9.946,80.108,36.548,36.548,0,0,1,20.1,67.394,45.152,45.152,0,0,1,34.863,59.6a59.994,59.994,0,0,1,17.842-2.666,61.283,61.283,0,0,1,16.816,2.358,42.479,42.479,0,0,1,14.458,6.973A36.471,36.471,0,0,1,94.131,78.16q3.691,6.768,3.691,17.021V110.46H65.112V97.54q0-5.127-3.691-7.588a14.535,14.535,0,0,0-8.1-2.563,10.754,10.754,0,0,0-7.793,2.769q-2.871,2.769-2.871,8.2v70.547a13.161,13.161,0,0,0,2.563,8.511q2.666,3.281,7.9,3.281,9.844,0,9.844-10.356V156.09H49.731V129.43H97.822v42.656q0,19.072-12.2,29.121-12.3,10.151-32.5,10.151A61.744,61.744,0,0,1,34.761,208.692Zm103.462.1a38.416,38.416,0,0,1-14.868-7.9,36.324,36.324,0,0,1-9.536-13.535q-3.486-8-3.486-19.482V100.411a46.869,46.869,0,0,1,3.589-18.765,39.261,39.261,0,0,1,9.946-13.638A41.207,41.207,0,0,1,138.633,59.7a58.384,58.384,0,0,1,18.354-2.769A65.419,65.419,0,0,1,175.342,59.5a39.415,39.415,0,0,1,14.868,7.9,37.909,37.909,0,0,1,9.946,13.535q3.691,8.1,3.691,19.482v67.266q0,11.177-3.691,19.277a38.129,38.129,0,0,1-9.946,13.638,40.894,40.894,0,0,1-14.868,8.1,61.036,61.036,0,0,1-18.149,2.666A69.813,69.813,0,0,1,138.223,208.795Zm26.66-31.787a11.917,11.917,0,0,0,2.871-8.306V99.181q0-5.435-3.076-8.2a11.067,11.067,0,0,0-7.69-2.769q-10.254,0-10.254,10.972V168.5q0,5.435,2.563,8.408,2.563,3.076,7.9,3.076Q162.217,179.981,164.883,177.008Zm79.365,31.787a38.416,38.416,0,0,1-14.868-7.9,36.324,36.324,0,0,1-9.536-13.535q-3.486-8-3.486-19.482V100.411a46.869,46.869,0,0,1,3.589-18.765,39.261,39.261,0,0,1,9.946-13.638A41.207,41.207,0,0,1,244.658,59.7a58.384,58.384,0,0,1,18.354-2.769A65.419,65.419,0,0,1,281.367,59.5a39.415,39.415,0,0,1,14.868,7.9,37.909,37.909,0,0,1,9.946,13.535q3.691,8.1,3.691,19.482v67.266q0,11.177-3.691,19.277a38.129,38.129,0,0,1-9.946,13.638,40.894,40.894,0,0,1-14.868,8.1,61.036,61.036,0,0,1-18.149,2.666A69.813,69.813,0,0,1,244.248,208.795Zm26.66-31.787a11.917,11.917,0,0,0,2.871-8.306V99.181q0-5.435-3.076-8.2a11.067,11.067,0,0,0-7.69-2.769q-10.254,0-10.254,10.972V168.5q0,5.435,2.563,8.408,2.563,3.076,7.9,3.076Q268.242,179.981,270.908,177.008Zm52.6-117.715h47.168a58.646,58.646,0,0,1,17.227,2.358,40.71,40.71,0,0,1,13.945,7.178,35.673,35.673,0,0,1,9.331,12,37.924,37.924,0,0,1,3.486,16.919v71.367q0,10.459-3.486,17.842a35.119,35.119,0,0,1-9.331,12.407,40.71,40.71,0,0,1-13.945,7.178A58.3,58.3,0,0,1,370.679,209H323.511ZM367.4,178.546q6.152,0,8.613-3.589a14.2,14.2,0,0,0,2.461-8.408V101.026a11.8,11.8,0,0,0-2.769-8.2q-2.769-3.076-8.716-3.076h-7.793v88.8Z" transform="translate(0 -53)" fill="none" stroke="#fff" stroke-width="2"/><path d="M0,59.293H35.273l14.048,86.748h.82L64.087,59.293H96.182L67.163,209.41H29.224Zm103.462,0h35.889V209H103.462Zm50.552,0h53.936a49.16,49.16,0,0,1,14.868,2.051,27.868,27.868,0,0,1,11.587,6.87,32.213,32.213,0,0,1,7.485,12q2.563,7.075,2.563,17.739,0,15.894-5.64,23.994a28.7,28.7,0,0,1-13.843,11.074v.82A28.832,28.832,0,0,1,239.531,144.4q5.845,7.793,5.845,22.148,0,21.021-10.151,31.787Q225.176,209,209.18,209H154.014Zm45.732,120.688a7.711,7.711,0,0,0,7.178-4.2q2.256-4.1,2.256-11.484,0-8.2-2.461-11.895a8.281,8.281,0,0,0-7.383-3.691H189.7v31.274Zm-.82-60.6q5.537,0,7.793-4,2.256-3.9,2.256-12.612,0-14.971-9.023-14.971H189.7v31.582ZM258.5,59.293h78.34V89.542H294.185v28.1h33.838v30.454H294.185v30.454h42.861V209H258.5ZM359.194,198.849q-11.279-12.407-12.407-33.53l33.223-1.025q.205,2.666.615,5.64a21.776,21.776,0,0,0,1.538,5.845,13.988,13.988,0,0,0,3.281,4.614,8.623,8.623,0,0,0,5.845,1.948q4.819,0,6.563-3.281a15.419,15.419,0,0,0,1.641-7.178,13.773,13.773,0,0,0-3.9-9.639,135,135,0,0,0-10.562-9.946l-12.407-10.869q-11.484-10.254-17.534-20.2A44.014,44.014,0,0,1,348.94,97.95a44.185,44.185,0,0,1,2.666-15.688A37.351,37.351,0,0,1,373.14,60.113a49.448,49.448,0,0,1,18.97-3.384,50.08,50.08,0,0,1,14.663,2.153,32.033,32.033,0,0,1,12.715,7.28q5.537,5.127,9.331,14.253,3.589,8.818,4.1,22.354l-31.274,1.025a55.778,55.778,0,0,0-.923-6.768,21.341,21.341,0,0,0-1.743-5.947,11.546,11.546,0,0,0-3.179-4.2,8.387,8.387,0,0,0-5.332-1.538q-4.614,0-6.46,3.179a13.3,13.3,0,0,0-1.948,6.665,10.4,10.4,0,0,0,1.436,5.332,25.274,25.274,0,0,0,3.9,5.127q2.769,2.769,5.229,4.819,1.743,1.436,5.229,4.717l12.2,10.664q12,10.767,18.252,21.021a44.181,44.181,0,0,1,6.255,23.481,40.906,40.906,0,0,1-3.076,15.894,39.268,39.268,0,0,1-8.716,13.022,40.185,40.185,0,0,1-13.74,8.818,48.968,48.968,0,0,1-18.149,3.281Q370.576,211.358,359.194,198.849Z" transform="translate(0 131)" fill="none" stroke="#fff" stroke-width="2"/><path d="M33.633,59.088H82.749L111.255,209H75.161l-5.024-27.891H41.118L36.3,209H3.384ZM64.5,152.3l-8.2-52.91h-.615L46.86,152.3Zm57.524-93h35.684V178.546h42.861V209H122.021Zm76.494,0h35.273l10.972,79.365h.615l11.792-79.365H290.9l10.972,78.955h.41l10.869-78.955h31.582L319.1,209.41H285.879l-13.022-85.62h-1.025l-13.638,85.62H224.355ZM371.5,59.088h49.116L449.121,209H413.027L408,181.109H378.984L374.165,209H341.25ZM402.363,152.3l-8.2-52.91h-.615l-8.818,52.91Zm72.393.205-32.71-93.208h38.247l14.663,51.885,14.253-51.885h34.248L510.747,152.5V209H474.756Zm81.519,46.348Q545,186.441,543.867,165.318l33.223-1.025q.205,2.666.615,5.64a21.776,21.776,0,0,0,1.538,5.845,13.988,13.988,0,0,0,3.281,4.614,8.623,8.623,0,0,0,5.845,1.948q4.819,0,6.563-3.281a15.419,15.419,0,0,0,1.641-7.178,13.773,13.773,0,0,0-3.9-9.639,135,135,0,0,0-10.562-9.946l-12.407-10.869q-11.484-10.254-17.534-20.2a44.014,44.014,0,0,1-6.152-23.276,44.185,44.185,0,0,1,2.666-15.688A37.351,37.351,0,0,1,570.22,60.113a49.448,49.448,0,0,1,18.97-3.384,50.08,50.08,0,0,1,14.663,2.153,32.033,32.033,0,0,1,12.715,7.28Q622.1,71.29,625.9,80.416q3.589,8.818,4.1,22.354l-31.274,1.025a55.778,55.778,0,0,0-.923-6.768,21.341,21.341,0,0,0-1.743-5.947,11.546,11.546,0,0,0-3.179-4.2,8.387,8.387,0,0,0-5.332-1.538q-4.614,0-6.46,3.179a13.3,13.3,0,0,0-1.948,6.665,10.4,10.4,0,0,0,1.436,5.332,25.274,25.274,0,0,0,3.9,5.127q2.769,2.769,5.229,4.819,1.743,1.436,5.229,4.717l12.2,10.664q12,10.767,18.252,21.021a44.181,44.181,0,0,1,6.255,23.481,40.906,40.906,0,0,1-3.076,15.894,39.268,39.268,0,0,1-8.716,13.022,40.185,40.185,0,0,1-13.74,8.818,48.968,48.968,0,0,1-18.149,3.281Q567.656,211.358,556.274,198.849Zm86.44-26.147h31.172V209H642.715Z" transform="translate(0 310)" fill="#fff"/></g></svg>