<svg xmlns="http://www.w3.org/2000/svg" xmlns:xlink="http://www.w3.org/1999/xlink" width="1130" height="662" viewBox="0 0 1130 662"><defs><clipPath id="b"><rect width="1130" height="662"/></clipPath></defs><g id="a" clip-path="url(#b)"><g transform="translate(-140 -415.755)"><path d="M7.383,59.589h40.4V228.113H7.383Zm56.906,0h40.63l31.627,75.6h.808v-75.6h35.667V228.113H137.007l-36.36-86.8h-.693v86.8H64.288Zm125.238,0h53.1a66.017,66.017,0,0,1,19.392,2.655,45.828,45.828,0,0,1,15.7,8.08,40.156,40.156,0,0,1,10.5,13.5q3.925,7.964,3.925,19.045v80.337q0,11.774-3.925,20.084a39.532,39.532,0,0,1-10.5,13.967,45.827,45.827,0,0,1-15.7,8.08,65.623,65.623,0,0,1-19.392,2.77h-53.1Zm49.4,134.242q6.926,0,9.7-4.04a15.99,15.99,0,0,0,2.77-9.465V106.568q0-5.771-3.117-9.234t-9.811-3.463H229.7v99.96ZM337.5,227.882a43.244,43.244,0,0,1-16.737-8.888,40.89,40.89,0,0,1-10.735-15.236q-3.924-9-3.924-21.931V105.876a52.76,52.76,0,0,1,4.04-21.123,44.2,44.2,0,0,1,11.2-15.352,46.386,46.386,0,0,1,16.621-9.35,65.723,65.723,0,0,1,20.661-3.117,73.642,73.642,0,0,1,20.661,2.886,44.369,44.369,0,0,1,16.737,8.888,42.674,42.674,0,0,1,11.2,15.236q4.155,9.119,4.155,21.931V181.6q0,12.582-4.155,21.7a42.921,42.921,0,0,1-11.2,15.352,46.034,46.034,0,0,1-16.737,9.119,68.707,68.707,0,0,1-20.431,3A78.587,78.587,0,0,1,337.5,227.882ZM367.515,192.1a13.415,13.415,0,0,0,3.232-9.35v-78.26q0-6.118-3.463-9.234a12.458,12.458,0,0,0-8.657-3.117q-11.543,0-11.543,12.351v78.029q0,6.118,2.886,9.465,2.886,3.463,8.888,3.463Q364.514,195.447,367.515,192.1Zm89.341,35.782a43.244,43.244,0,0,1-16.737-8.888,40.889,40.889,0,0,1-10.735-15.236q-3.924-9-3.925-21.931V105.876a52.76,52.76,0,0,1,4.04-21.123A44.2,44.2,0,0,1,440.7,69.4a46.386,46.386,0,0,1,16.621-9.35,65.722,65.722,0,0,1,20.661-3.117,73.642,73.642,0,0,1,20.661,2.886,44.368,44.368,0,0,1,16.737,8.888,42.674,42.674,0,0,1,11.2,15.236q4.155,9.119,4.155,21.931V181.6q0,12.582-4.155,21.7a42.921,42.921,0,0,1-11.2,15.352,46.032,46.032,0,0,1-16.737,9.119,68.707,68.707,0,0,1-20.431,3A78.586,78.586,0,0,1,456.856,227.882ZM486.867,192.1a13.415,13.415,0,0,0,3.232-9.35v-78.26q0-6.118-3.463-9.234a12.458,12.458,0,0,0-8.657-3.117q-11.543,0-11.543,12.351v78.029q0,6.118,2.886,9.465,2.886,3.463,8.888,3.463Q483.866,195.447,486.867,192.1Zm59.214-132.51h54.366A63.394,63.394,0,0,1,620.3,62.475a40.373,40.373,0,0,1,15.352,9.119,39.233,39.233,0,0,1,9.811,15.929q3.463,9.927,3.463,23.547,0,18.353-5.079,28.857-5.079,10.388-13.39,15.814L651,228.113H609.1l-14.544-63.6h-8.08v63.6h-40.4Zm50.326,75.374a10.829,10.829,0,0,0,8.888-4.386q3.347-4.155,3.347-17.083,0-12.12-3.347-16.275a10.933,10.933,0,0,0-8.888-4.271h-9.927v42.015Z" transform="translate(137.535 436.131)" fill="none" stroke="#fff" stroke-width="3"/><path d="M7.383,59.589H68.1A55.339,55.339,0,0,1,84.834,61.9a31.371,31.371,0,0,1,13.043,7.734,36.262,36.262,0,0,1,8.426,13.5q2.886,7.964,2.886,19.969,0,17.891-6.348,27.01a32.312,32.312,0,0,1-15.583,12.466v.923a32.456,32.456,0,0,1,16.391,11.889q6.579,8.772,6.579,24.932,0,23.663-11.427,35.782-11.312,12-29.318,12H7.383Zm51.48,135.858a8.68,8.68,0,0,0,8.08-4.732q2.539-4.617,2.539-12.928,0-9.234-2.77-13.39a9.322,9.322,0,0,0-8.311-4.155H47.551v35.205ZM57.94,127.23q6.233,0,8.772-4.5,2.539-4.386,2.539-14.2,0-16.852-10.158-16.852H47.551V127.23Zm97.19,100.652a43.244,43.244,0,0,1-16.737-8.888,40.889,40.889,0,0,1-10.735-15.236q-3.925-9-3.925-21.931V105.876a52.76,52.76,0,0,1,4.04-21.123A44.2,44.2,0,0,1,138.97,69.4a46.387,46.387,0,0,1,16.622-9.35,65.723,65.723,0,0,1,20.661-3.117,73.642,73.642,0,0,1,20.661,2.886,44.369,44.369,0,0,1,16.737,8.888,42.674,42.674,0,0,1,11.2,15.236Q229,93.063,229,105.876V181.6q0,12.582-4.155,21.7a42.921,42.921,0,0,1-11.2,15.352,46.034,46.034,0,0,1-16.737,9.119,68.707,68.707,0,0,1-20.431,3A78.587,78.587,0,0,1,155.129,227.882ZM185.141,192.1a13.415,13.415,0,0,0,3.232-9.35v-78.26q0-6.118-3.463-9.234a12.458,12.458,0,0,0-8.657-3.117q-11.543,0-11.543,12.351v78.029q0,6.118,2.886,9.465,2.886,3.463,8.888,3.463Q182.139,195.447,185.141,192.1Zm71.68,27.125q-13.159-11.427-13.159-36.244V59.589h40.63v122.7q0,6.695,3.232,10.042a11.625,11.625,0,0,0,8.772,3.347,10.91,10.91,0,0,0,8.542-3.463q3.117-3.463,3.117-9.927V59.589h38.437v122.7q0,12.235-4.04,21.008a43.664,43.664,0,0,1-11.312,15.121,48.734,48.734,0,0,1-16.621,9.234,65.648,65.648,0,0,1-20.431,3.117Q270.095,230.768,256.821,219.225ZM362.206,59.589h40.169V193.831h48.249v34.282H362.206Zm102.038,0h53.1a66.017,66.017,0,0,1,19.392,2.655,45.827,45.827,0,0,1,15.7,8.08,40.156,40.156,0,0,1,10.5,13.5q3.925,7.964,3.925,19.045v80.337q0,11.774-3.925,20.084a39.532,39.532,0,0,1-10.5,13.967,45.827,45.827,0,0,1-15.7,8.08,65.622,65.622,0,0,1-19.392,2.77h-53.1Zm49.4,134.242q6.926,0,9.7-4.04a15.99,15.99,0,0,0,2.77-9.465V106.568q0-5.771-3.117-9.234t-9.811-3.463h-8.772v99.96ZM582.094,59.589h88.186V93.64H622.263v31.627h38.091v34.282H622.263v34.282h48.249v34.282H582.094Zm103.192,0h54.366a63.394,63.394,0,0,1,19.854,2.886,40.374,40.374,0,0,1,15.352,9.119,39.233,39.233,0,0,1,9.811,15.929q3.463,9.927,3.463,23.547,0,18.353-5.079,28.857-5.079,10.388-13.39,15.814l20.546,72.373h-41.9l-14.544-63.6h-8.08v63.6h-40.4Zm50.326,75.374a10.829,10.829,0,0,0,8.888-4.386q3.347-4.155,3.347-17.083,0-12.12-3.347-16.275a10.933,10.933,0,0,0-8.888-4.271h-9.927v42.015Zm67.525-75.374h40.4V228.113h-40.4Zm56.906,0h40.63l31.627,75.6h.808v-75.6h35.667V228.113H932.762l-36.359-86.8h-.693v86.8H860.043ZM1016.1,227.767a46.765,46.765,0,0,1-16.621-8.888A41.665,41.665,0,0,1,988.167,204.1q-4.155-8.772-4.155-20.892V102.875q0-11.427,4.155-19.853a41.143,41.143,0,0,1,11.427-14.313,50.828,50.828,0,0,1,16.621-8.772,67.534,67.534,0,0,1,20.084-3,68.985,68.985,0,0,1,18.93,2.655,47.818,47.818,0,0,1,16.275,7.849,41.053,41.053,0,0,1,11.427,13.39q4.156,7.618,4.156,19.161v17.2h-36.821V102.644q0-5.771-4.155-8.542a16.362,16.362,0,0,0-9.119-2.886q-5.54,0-8.772,3.117t-3.232,9.234v79.414q0,6,2.886,9.58,3,3.694,8.888,3.694,11.081,0,11.081-11.658V168.553h-14.89V138.542h54.135v48.018q0,21.469-13.736,32.781-13.851,11.427-36.59,11.427A69.5,69.5,0,0,1,1016.1,227.767Z" transform="translate(140.912 637.629)" fill="#fff" stroke="#fff" stroke-width="1"/><path d="M18.581,216.711q-12.7-13.967-13.967-37.745l37.4-1.154q.231,3,.693,6.349a24.513,24.513,0,0,0,1.731,6.579,15.746,15.746,0,0,0,3.694,5.194,9.707,9.707,0,0,0,6.579,2.193q5.425,0,7.387-3.694a17.357,17.357,0,0,0,1.847-8.08,15.5,15.5,0,0,0-4.386-10.85,151.959,151.959,0,0,0-11.889-11.2L33.7,152.072Q20.774,140.53,13.964,129.333a49.546,49.546,0,0,1-6.926-26.2,49.739,49.739,0,0,1,3-17.66A43.837,43.837,0,0,1,19.158,70.7,43.578,43.578,0,0,1,34.279,60.539a55.663,55.663,0,0,1,21.354-3.809,56.374,56.374,0,0,1,16.506,2.424,36.059,36.059,0,0,1,14.313,8.2q6.233,5.771,10.5,16.044,4.04,9.927,4.617,25.163l-35.205,1.154a62.789,62.789,0,0,0-1.039-7.618A24.023,24.023,0,0,0,63.367,95.4a13,13,0,0,0-3.578-4.733,9.441,9.441,0,0,0-6-1.731q-5.194,0-7.272,3.578a14.968,14.968,0,0,0-2.193,7.5,11.706,11.706,0,0,0,1.616,6,28.451,28.451,0,0,0,4.386,5.771q3.117,3.117,5.887,5.425,1.962,1.616,5.887,5.31l13.736,12q13.5,12.12,20.546,23.663a49.735,49.735,0,0,1,7.041,26.433,46.047,46.047,0,0,1-3.463,17.891,44.2,44.2,0,0,1-9.811,14.659A45.235,45.235,0,0,1,74.678,227.1a55.122,55.122,0,0,1-20.431,3.694Q31.393,230.794,18.581,216.711Zm98.344-157.1h57.6q21.123,0,32.2,12.928,11.081,13.043,11.081,40.053t-10.5,42.131q-10.5,15.236-33.7,15.236H157.324v58.175h-40.4Zm50.326,77.8q5.541,0,8.311-5.771t2.77-18.122q0-11.889-2.77-16.391a9.121,9.121,0,0,0-8.311-4.5h-9.927v44.786Zm83.685-78.029h55.29l32.089,168.754h-40.63l-5.656-31.4H259.362l-5.425,31.4H216.885Zm34.744,104.923-9.234-59.56h-.693l-9.927,59.56Zm91.418,63.6a45.3,45.3,0,0,1-16.506-8.657,39.149,39.149,0,0,1-10.966-14.544,50.3,50.3,0,0,1-4.04-20.777V102.9q0-11.427,4.271-19.853a42.971,42.971,0,0,1,11.427-14.313,50.667,50.667,0,0,1,16.621-8.772,67.922,67.922,0,0,1,20.2-3,62.089,62.089,0,0,1,18.584,2.77,44.917,44.917,0,0,1,15.467,8.2,41.08,41.08,0,0,1,10.5,13.736q3.925,7.964,3.925,19.276v18.237H409.879V103.824q0-5.771-3.347-8.772a12.146,12.146,0,0,0-8.426-3.117q-11.543,0-11.543,11.889v78.952q0,6,2.886,9.35t8.888,3.347a11.835,11.835,0,0,0,8.2-3q3.347-3,3.347-8.772v-14.89h36.706v16.968a45.837,45.837,0,0,1-3.809,19.276,40,40,0,0,1-10.388,14.082,43.389,43.389,0,0,1-15.583,8.657,61.6,61.6,0,0,1-19.161,3A73.228,73.228,0,0,1,377.1,227.908ZM460.782,59.615h88.186V93.666H500.951v31.627h38.091v34.282H500.951v34.282H549.2v34.282H460.782ZM562.935,187.278h35.09v40.861h-35.09Z" transform="translate(140.564 835.725)" fill="none" stroke="#fff" stroke-width="3"/><path d="M1.758-35.52H16.424q5.379,0,8.2,3.292,2.822,3.321,2.822,10.2T24.772-11.3q-2.675,3.88-8.582,3.88H12.045V7.392H1.758ZM14.573-15.71a2.259,2.259,0,0,0,2.116-1.47,11.273,11.273,0,0,0,.705-4.615,8.642,8.642,0,0,0-.705-4.174,2.323,2.323,0,0,0-2.116-1.146H12.045v11.4ZM31.062-35.52H53.517v8.671H41.29V-18.8h9.7v8.729h-9.7v8.729H53.576V7.392H31.062Zm26.276,0H67.684l8.053,19.252h.206V-35.52h9.082V7.392h-9.17L66.6-14.711H66.42v22.1H57.338Zm31.89,0h13.844a16.142,16.142,0,0,1,5.055.735,10.28,10.28,0,0,1,3.909,2.322,9.99,9.99,0,0,1,2.5,4.056,18.244,18.244,0,0,1,.882,6,17.153,17.153,0,0,1-1.293,7.348,9.8,9.8,0,0,1-3.409,4.027l5.232,18.429H105.276L101.573-8.8H99.515V7.392H89.228Zm12.815,19.193a2.757,2.757,0,0,0,2.263-1.117q.852-1.058.852-4.35,0-3.086-.852-4.144a2.784,2.784,0,0,0-2.263-1.088H99.515v10.7ZM125.469-8.8,116.093-35.52h10.963l4.2,14.872,4.085-14.872h9.817L135.785-8.8V7.392H125.469ZM147.277-35.52h10.346l8.053,19.252h.206V-35.52h9.082V7.392h-9.17l-9.258-22.1h-.176v22.1h-9.082ZM190.248,4.923q-2.616-3.292-2.616-9.141a13.494,13.494,0,0,1,1.91-7.348A15.528,15.528,0,0,1,194.51-16.5q-1.088-2.116-2.116-4.409a11.846,11.846,0,0,1-1.029-4.85,12.326,12.326,0,0,1,.676-4.085,9.356,9.356,0,0,1,2-3.321,9.3,9.3,0,0,1,3.351-2.263,12.414,12.414,0,0,1,4.644-.823,10.4,10.4,0,0,1,7.495,2.586q2.733,2.586,2.733,7.466a13.187,13.187,0,0,1-1.617,6.407A13.375,13.375,0,0,1,206-14.887a11.51,11.51,0,0,0,.647,1.117q.029.059.426.661t.6.926q.705,1.117,1,1.646.118.235.353.632t.294.514a16.445,16.445,0,0,0,.382-1.91l.191-1.337q.132-.926.191-1.279l7.407.794a31.932,31.932,0,0,1-.676,3.5q-.47,1.881-.97,3.38-.676,2.028-1.029,2.88a22.306,22.306,0,0,1-1,2.146,13.22,13.22,0,0,0,.941,1.734q.294.47.867,1.411t.72,1.176q1.176,1.91,1.558,2.586.794,1.411.911,1.7H208.236L206.59,4.629a11.124,11.124,0,0,1-4.144,2.733,13.506,13.506,0,0,1-4.526.823Q192.835,8.186,190.248,4.923Zm12.668-6.554a14.561,14.561,0,0,0-.882-1.7q-.5-.852-1.44-2.381-1.117-1.822-1.47-2.41a14.561,14.561,0,0,1-.882-1.7,7.4,7.4,0,0,0-1.264,4.761,7.883,7.883,0,0,0,.676,3.38,2.484,2.484,0,0,0,2.44,1.5A3.379,3.379,0,0,0,202.916-1.631Zm.823-21.721a8.021,8.021,0,0,0,.5-2.91,3.73,3.73,0,0,0-.5-2.146,1.6,1.6,0,0,0-1.352-.735,1.576,1.576,0,0,0-1.528.852,3.57,3.57,0,0,0-.47,1.675,6.655,6.655,0,0,0,.5,2.293,26.466,26.466,0,0,0,1.5,3.116A5.932,5.932,0,0,0,203.739-23.352ZM230.486-35.52h22.455v8.671H240.714V-18.5h9.7v8.788h-9.7V7.392H230.486Zm30.744-.059h14.079L283.48,7.392H273.134L271.694-.6h-8.318l-1.381,7.995h-9.435Zm8.847,26.717-2.351-15.166h-.176L265.022-8.862ZM286.566-35.52h10.228V-1.337H309.08V7.392H286.566Zm25.983,0h13.226l3.733,16.371h.176l4-16.371h12.58V7.392h-9.053V-20.765h-.118L333.005-2.307h-7.054l-4.262-18.458h-.118V7.392h-9.023ZM358.135,7.333a11.011,11.011,0,0,1-4.262-2.263,10.412,10.412,0,0,1-2.733-3.88,13.953,13.953,0,0,1-1-5.584v-19.34a13.435,13.435,0,0,1,1.029-5.379,11.253,11.253,0,0,1,2.851-3.909,11.812,11.812,0,0,1,4.232-2.381,16.735,16.735,0,0,1,5.261-.794,18.752,18.752,0,0,1,5.261.735,11.3,11.3,0,0,1,4.262,2.263,10.866,10.866,0,0,1,2.851,3.88,13.4,13.4,0,0,1,1.058,5.584V-4.453a13.239,13.239,0,0,1-1.058,5.526,10.929,10.929,0,0,1-2.851,3.909A11.722,11.722,0,0,1,368.775,7.3a17.5,17.5,0,0,1-5.2.764A20.012,20.012,0,0,1,358.135,7.333Zm7.642-9.112a3.416,3.416,0,0,0,.823-2.381V-24.087a3,3,0,0,0-.882-2.351,3.172,3.172,0,0,0-2.2-.794q-2.939,0-2.939,3.145V-4.218a3.58,3.58,0,0,0,.735,2.41,2.779,2.779,0,0,0,2.263.882A2.807,2.807,0,0,0,365.777-1.778ZM384.03,5.129q-3.351-2.91-3.351-9.229V-35.52h10.346V-4.276a3.55,3.55,0,0,0,.823,2.557,2.96,2.96,0,0,0,2.234.852,2.778,2.778,0,0,0,2.175-.882,3.654,3.654,0,0,0,.794-2.528V-35.52h9.788V-4.276a12.709,12.709,0,0,1-1.029,5.349,11.118,11.118,0,0,1-2.88,3.85A12.41,12.41,0,0,1,398.7,7.275a16.716,16.716,0,0,1-5.2.794Q387.41,8.068,384.03,5.129Zm33.742-31.978h-8.053V-35.52h26.423v8.671h-8.024V7.392H417.772ZM439.2-35.52h10.287v16.783h5.849V-35.52h10.228V7.392H455.335V-9.449h-5.849V7.392H439.2ZM472.588-25.7H469.5V-35.52h8.935v9.258l-3.38,8.906h-4.409ZM484.874,4.482Q481.64.926,481.317-5.129l9.523-.294q.059.764.176,1.617a6.243,6.243,0,0,0,.441,1.675A4.01,4.01,0,0,0,492.4-.808a2.472,2.472,0,0,0,1.675.558,1.933,1.933,0,0,0,1.881-.941,4.42,4.42,0,0,0,.47-2.057,3.948,3.948,0,0,0-1.117-2.763,38.691,38.691,0,0,0-3.027-2.851l-3.556-3.116a26.287,26.287,0,0,1-5.026-5.79,12.616,12.616,0,0,1-1.763-6.672,12.665,12.665,0,0,1,.764-4.5,11.162,11.162,0,0,1,2.322-3.762,11.1,11.1,0,0,1,3.85-2.586,14.174,14.174,0,0,1,5.438-.97,14.355,14.355,0,0,1,4.2.617,9.182,9.182,0,0,1,3.645,2.087,11.475,11.475,0,0,1,2.675,4.085,19.08,19.08,0,0,1,1.176,6.407l-8.965.294a15.985,15.985,0,0,0-.265-1.94,6.116,6.116,0,0,0-.5-1.7,3.309,3.309,0,0,0-.911-1.205,2.4,2.4,0,0,0-1.528-.441,1.961,1.961,0,0,0-1.852.911,3.812,3.812,0,0,0-.558,1.91,2.981,2.981,0,0,0,.411,1.528,7.244,7.244,0,0,0,1.117,1.47q.794.794,1.5,1.381.5.411,1.5,1.352l3.5,3.057a27.76,27.76,0,0,1,5.232,6.025,12.664,12.664,0,0,1,1.793,6.731,11.725,11.725,0,0,1-.882,4.556A11.256,11.256,0,0,1,503.1,4.6a11.518,11.518,0,0,1-3.939,2.528,14.036,14.036,0,0,1-5.2.941Q488.136,8.068,484.874,4.482Z" transform="translate(140 453.247)" fill="#fff"/></g></g></svg>