<svg xmlns="http://www.w3.org/2000/svg" xmlns:xlink="http://www.w3.org/1999/xlink" width="901" height="528" viewBox="0 0 901 528"><defs><clipPath id="b"><rect width="901" height="528"/></clipPath></defs><g id="a" clip-path="url(#b)"><path d="M310.858,59.293H357l13.022,57.114h.615l13.945-57.114h43.887V209H396.889V110.768h-.41l-14.253,64.395H357.616l-14.868-64.395h-.41V209H310.858ZM469.9,208.795a38.416,38.416,0,0,1-14.868-7.9,36.324,36.324,0,0,1-9.536-13.535q-3.486-8-3.486-19.482V100.411a46.869,46.869,0,0,1,3.589-18.765,39.261,39.261,0,0,1,9.946-13.638A41.207,41.207,0,0,1,470.307,59.7a58.384,58.384,0,0,1,18.354-2.769A65.419,65.419,0,0,1,507.016,59.5a39.415,39.415,0,0,1,14.868,7.9,37.909,37.909,0,0,1,9.946,13.535q3.691,8.1,3.691,19.482v67.266q0,11.177-3.691,19.277a38.129,38.129,0,0,1-9.946,13.638,40.894,40.894,0,0,1-14.868,8.1,61.036,61.036,0,0,1-18.149,2.666A69.813,69.813,0,0,1,469.9,208.795Zm26.66-31.787a11.917,11.917,0,0,0,2.871-8.306V99.181q0-5.435-3.076-8.2a11.067,11.067,0,0,0-7.69-2.769q-10.254,0-10.254,10.972V168.5q0,5.435,2.563,8.408,2.563,3.076,7.9,3.076Q493.891,179.981,496.557,177.008Zm52.6-117.715h48.3a56.316,56.316,0,0,1,17.637,2.563,35.865,35.865,0,0,1,13.638,8.1,34.851,34.851,0,0,1,8.716,14.15,63.648,63.648,0,0,1,3.076,20.918q0,16.3-4.512,25.635a34.187,34.187,0,0,1-11.895,14.048L642.367,209H605.146l-12.92-56.5h-7.178V209H549.159Zm44.707,66.958a9.619,9.619,0,0,0,7.9-3.9q2.974-3.691,2.974-15.176,0-10.767-2.974-14.458a9.712,9.712,0,0,0-7.9-3.794h-8.818v37.324Zm59.985-66.958h78.34V89.542H689.535v28.1h33.838v30.454H689.535v30.454H732.4V209H653.852ZM801.1,89.542H773V59.293h92.183V89.542H837.191V209H801.1Zm74.751-30.249h35.889v58.55h20.405V59.293h35.684V209H932.143V150.245H911.737V209H875.849Zm132.891-.205h49.116L1086.361,209h-36.094l-5.024-27.891h-29.019L1011.405,209H978.49ZM1039.6,152.3l-8.2-52.91h-.615l-8.818,52.91Zm57.524-93h36.094l28.1,67.163h.718V59.293h31.685V209h-31.992l-32.3-77.109h-.615V209h-31.685Z" transform="translate(-302 -53)" fill="#fff" stroke="#fff" stroke-width="2"/><path d="M674.257,201.1q-11.382-10.151-11.382-31.582V153.116h34.043v17.637a12.5,12.5,0,0,0,1.948,7.178q2.051,2.974,7.075,2.974,5.127,0,7.075-3.179a14.579,14.579,0,0,0,1.948-7.588V59.293h35.889V168.087q0,20.815-11.689,31.992-11.792,11.279-32.4,11.279Q685.741,211.358,674.257,201.1Zm101.719,0q-11.689-10.151-11.689-32.2V59.293H800.38v109q0,5.947,2.871,8.921a10.327,10.327,0,0,0,7.793,2.974,9.692,9.692,0,0,0,7.588-3.076q2.769-3.076,2.769-8.818v-109h34.146v109q0,10.869-3.589,18.662a38.788,38.788,0,0,1-10.049,13.433,43.292,43.292,0,0,1-14.766,8.2,58.318,58.318,0,0,1-18.149,2.769Q787.768,211.358,775.976,201.1Zm103.257-2.256q-11.279-12.407-12.407-33.53l33.223-1.025q.205,2.666.615,5.64a21.776,21.776,0,0,0,1.538,5.845,13.988,13.988,0,0,0,3.281,4.614,8.623,8.623,0,0,0,5.845,1.948q4.819,0,6.563-3.281a15.419,15.419,0,0,0,1.641-7.178,13.773,13.773,0,0,0-3.9-9.639,135,135,0,0,0-10.562-9.946l-12.407-10.869q-11.484-10.254-17.534-20.2a44.014,44.014,0,0,1-6.152-23.276,44.185,44.185,0,0,1,2.666-15.688,37.351,37.351,0,0,1,21.533-22.148,49.448,49.448,0,0,1,18.97-3.384,50.08,50.08,0,0,1,14.663,2.153,32.033,32.033,0,0,1,12.715,7.28q5.537,5.127,9.331,14.253,3.589,8.818,4.1,22.354l-31.274,1.025a55.778,55.778,0,0,0-.923-6.768,21.341,21.341,0,0,0-1.743-5.947,11.546,11.546,0,0,0-3.179-4.2,8.387,8.387,0,0,0-5.332-1.538q-4.614,0-6.46,3.179a13.3,13.3,0,0,0-1.948,6.665,10.4,10.4,0,0,0,1.436,5.332,25.274,25.274,0,0,0,3.9,5.127q2.769,2.769,5.229,4.819,1.743,1.436,5.229,4.717l12.2,10.664q12,10.767,18.252,21.021a44.181,44.181,0,0,1,6.255,23.481,40.906,40.906,0,0,1-3.076,15.894,39.268,39.268,0,0,1-8.716,13.022,40.185,40.185,0,0,1-13.74,8.818,48.968,48.968,0,0,1-18.149,3.281Q890.614,211.358,879.232,198.849ZM987.514,89.542h-28.1V59.293H1051.6V89.542h-27.993V209H987.514Zm132.48-30.454h49.116L1197.616,209h-36.094l-5.024-27.891h-29.019L1122.66,209h-32.915Zm30.864,93.208-8.2-52.91h-.615l-8.818,52.91Z" transform="translate(-302 126)" fill="none" stroke="#fff" stroke-width="2"/><path d="M711.991,208.795a40.241,40.241,0,0,1-14.663-7.69,34.778,34.778,0,0,1-9.741-12.92A44.682,44.682,0,0,1,684,169.728V97.745a37.478,37.478,0,0,1,13.945-30.352A45.01,45.01,0,0,1,712.709,59.6a60.338,60.338,0,0,1,17.944-2.666A55.156,55.156,0,0,1,747.162,59.4a39.9,39.9,0,0,1,13.74,7.28,36.494,36.494,0,0,1,9.331,12.2Q773.72,85.953,773.72,96v16.2H741.112V98.565q0-5.127-2.974-7.793A10.79,10.79,0,0,0,730.653,88Q720.4,88,720.4,98.565V168.7q0,5.332,2.563,8.306t7.9,2.974a10.513,10.513,0,0,0,7.28-2.666q2.974-2.666,2.974-7.793V156.295H773.72v15.073a40.719,40.719,0,0,1-3.384,17.124A35.532,35.532,0,0,1,761.107,201a38.545,38.545,0,0,1-13.843,7.69,54.723,54.723,0,0,1-17.021,2.666A65.052,65.052,0,0,1,711.991,208.795Zm74.341-149.5h35.684V178.546h42.861V209H786.332Zm90.645,0h35.889V209H876.977Zm50.552,0h46.143l13.022,57.114h.615l13.945-57.114h43.887V209h-31.582V110.768h-.41L998.9,175.162H974.286l-14.868-64.395h-.41V209H927.528Zm132.275,0h53.936a49.16,49.16,0,0,1,14.868,2.051,27.868,27.868,0,0,1,11.587,6.87,32.213,32.213,0,0,1,7.485,12q2.563,7.075,2.563,17.739,0,15.894-5.64,23.994a28.7,28.7,0,0,1-13.843,11.074v.82a28.832,28.832,0,0,1,14.561,10.562q5.845,7.793,5.845,22.148,0,21.021-10.151,31.787Q1130.966,209,1114.97,209H1059.8Zm45.732,120.688a7.711,7.711,0,0,0,7.178-4.2q2.256-4.1,2.256-11.484,0-8.2-2.461-11.895a8.281,8.281,0,0,0-7.383-3.691h-9.639v31.274Zm-.82-60.6q5.537,0,7.793-4,2.256-3.9,2.256-12.612,0-14.971-9.023-14.971h-10.254v31.582Zm58.652,53.32h31.172V209h-31.172Z" transform="translate(-302 302)" fill="#fff"/></g></svg>