<svg xmlns="http://www.w3.org/2000/svg" xmlns:xlink="http://www.w3.org/1999/xlink" width="554" height="529" viewBox="0 0 554 529"><defs><clipPath id="b"><rect width="554" height="529"/></clipPath></defs><g id="a" clip-path="url(#b)"><path d="M7.383,59.293H58.55q18.765,0,28.608,11.484Q97,82.364,97,106.358t-9.331,37.427Q78.34,157.32,57.729,157.32H43.271V209H7.383ZM52.09,128.4q4.922,0,7.383-5.127t2.461-16.1q0-10.562-2.461-14.561a8.1,8.1,0,0,0-7.383-4H43.271V128.4Zm57.524-69.111H145.3V178.546h42.861V209H109.614Zm117.51-.205H276.24L304.746,209H268.652l-5.024-27.891H234.609L229.79,209H196.875ZM257.988,152.3l-8.2-52.91h-.615l-8.818,52.91Zm57.524-93h36.094l28.1,67.163h.718V59.293H412.1V209H380.112l-32.3-77.109H347.2V209H315.513Z" transform="translate(4.5 -53)" fill="none" stroke="#fff" stroke-width="2"/><path d="M32.71,152.5,0,59.293H38.247L52.91,111.178,67.163,59.293h34.248L68.7,152.5V209H32.71Zm98.232,56.294a38.416,38.416,0,0,1-14.868-7.9,36.324,36.324,0,0,1-9.536-13.535q-3.486-8-3.486-19.482V100.411a46.869,46.869,0,0,1,3.589-18.765,39.261,39.261,0,0,1,9.946-13.638A41.207,41.207,0,0,1,131.353,59.7a58.384,58.384,0,0,1,18.354-2.769A65.419,65.419,0,0,1,168.062,59.5a39.415,39.415,0,0,1,14.868,7.9,37.909,37.909,0,0,1,9.946,13.535q3.691,8.1,3.691,19.482v67.266q0,11.177-3.691,19.277a38.129,38.129,0,0,1-9.946,13.638,40.894,40.894,0,0,1-14.868,8.1,61.036,61.036,0,0,1-18.149,2.666A69.813,69.813,0,0,1,130.942,208.795Zm26.66-31.787a11.917,11.917,0,0,0,2.871-8.306V99.181q0-5.435-3.076-8.2a11.067,11.067,0,0,0-7.69-2.769q-10.254,0-10.254,10.972V168.5q0,5.435,2.563,8.408,2.563,3.076,7.9,3.076Q154.937,179.981,157.6,177.008Zm63.677,24.1q-11.689-10.151-11.689-32.2V59.293h36.094v109q0,5.947,2.871,8.921a10.327,10.327,0,0,0,7.793,2.974,9.692,9.692,0,0,0,7.588-3.076q2.769-3.076,2.769-8.818v-109H300.85v109q0,10.869-3.589,18.662a38.788,38.788,0,0,1-10.049,13.433,43.292,43.292,0,0,1-14.766,8.2,58.318,58.318,0,0,1-18.149,2.769Q233.071,211.358,221.279,201.1ZM314.9,59.293h48.3a56.316,56.316,0,0,1,17.637,2.563,35.865,35.865,0,0,1,13.638,8.1,34.851,34.851,0,0,1,8.716,14.15,63.648,63.648,0,0,1,3.076,20.918q0,16.3-4.512,25.635a34.187,34.187,0,0,1-11.895,14.048L408.105,209H370.884l-12.92-56.5h-7.178V209H314.9ZM359.6,126.251a9.619,9.619,0,0,0,7.9-3.9q2.974-3.691,2.974-15.176,0-10.767-2.974-14.458a9.712,9.712,0,0,0-7.9-3.794h-8.818v37.324Z" transform="translate(4.5 131)" fill="none" stroke="#fff" stroke-width="2"/><path d="M7.383,59.293h48.3a56.316,56.316,0,0,1,17.637,2.563,35.865,35.865,0,0,1,13.638,8.1,34.851,34.851,0,0,1,8.716,14.15,63.648,63.648,0,0,1,3.076,20.918q0,16.3-4.512,25.635a34.187,34.187,0,0,1-11.895,14.048L100.591,209H63.369l-12.92-56.5H43.271V209H7.383ZM52.09,126.251a9.619,9.619,0,0,0,7.9-3.9q2.974-3.691,2.974-15.176,0-10.767-2.974-14.458a9.712,9.712,0,0,0-7.9-3.794H43.271v37.324Zm86.748,82.544a38.416,38.416,0,0,1-14.868-7.9,36.324,36.324,0,0,1-9.536-13.535q-3.486-8-3.486-19.482V100.411a46.869,46.869,0,0,1,3.589-18.765,39.261,39.261,0,0,1,9.946-13.638A41.207,41.207,0,0,1,139.248,59.7,58.384,58.384,0,0,1,157.6,56.935,65.419,65.419,0,0,1,175.957,59.5a39.415,39.415,0,0,1,14.868,7.9,37.909,37.909,0,0,1,9.946,13.535q3.691,8.1,3.691,19.482v67.266q0,11.177-3.691,19.277a38.129,38.129,0,0,1-9.946,13.638,40.894,40.894,0,0,1-14.868,8.1,61.036,61.036,0,0,1-18.149,2.666A69.813,69.813,0,0,1,138.838,208.795Zm26.66-31.787a11.917,11.917,0,0,0,2.871-8.306V99.181q0-5.435-3.076-8.2a11.067,11.067,0,0,0-7.69-2.769q-10.254,0-10.254,10.972V168.5q0,5.435,2.563,8.408,2.563,3.076,7.9,3.076Q162.832,179.981,165.5,177.008Zm63.677,24.1q-11.689-10.151-11.689-32.2V59.293h36.094v109q0,5.947,2.871,8.921a10.327,10.327,0,0,0,7.793,2.974,9.692,9.692,0,0,0,7.588-3.076q2.769-3.076,2.769-8.818v-109h34.146v109q0,10.869-3.589,18.662a38.788,38.788,0,0,1-10.049,13.433,43.292,43.292,0,0,1-14.766,8.2,58.318,58.318,0,0,1-18.149,2.769Q240.967,211.358,229.175,201.1ZM346.89,89.542h-28.1V59.293h92.183V89.542H382.983V209H346.89Zm74.751-30.249h78.34V89.542H457.324v28.1h33.838v30.454H457.324v30.454h42.861V209H421.641ZM512.388,172.7H543.56V209H512.388Z" transform="translate(4 310)" fill="#fff"/></g></svg>