<svg xmlns="http://www.w3.org/2000/svg" xmlns:xlink="http://www.w3.org/1999/xlink" width="1011" height="407" viewBox="0 0 1011 407"><defs><clipPath id="b"><rect width="1011" height="407"/></clipPath></defs><g id="a" clip-path="url(#b)"><path d="M7.383,59.293H58.55q18.765,0,28.608,11.484Q97,82.364,97,106.358t-9.331,37.427Q78.34,157.32,57.729,157.32H43.271V209H7.383ZM52.09,128.4q4.922,0,7.383-5.127t2.461-16.1q0-10.562-2.461-14.561a8.1,8.1,0,0,0-7.383-4H43.271V128.4Zm74.341-69.316h49.116L204.053,209H167.959l-5.024-27.891H133.916L129.1,209H96.182ZM157.295,152.3l-8.2-52.91h-.615l-8.818,52.91Zm65.317,46.553q-11.279-12.407-12.407-33.53l33.223-1.025q.205,2.666.615,5.64a21.776,21.776,0,0,0,1.538,5.845,13.988,13.988,0,0,0,3.281,4.614,8.623,8.623,0,0,0,5.845,1.948q4.819,0,6.563-3.281a15.419,15.419,0,0,0,1.641-7.178,13.773,13.773,0,0,0-3.9-9.639,135,135,0,0,0-10.562-9.946l-12.407-10.869q-11.484-10.254-17.534-20.2a44.014,44.014,0,0,1-6.152-23.276,44.185,44.185,0,0,1,2.666-15.688,37.351,37.351,0,0,1,21.533-22.148,49.448,49.448,0,0,1,18.97-3.384,50.08,50.08,0,0,1,14.663,2.153,32.033,32.033,0,0,1,12.715,7.28q5.537,5.127,9.331,14.253,3.589,8.818,4.1,22.354l-31.274,1.025a55.778,55.778,0,0,0-.923-6.768A21.341,21.341,0,0,0,262.4,91.08a11.546,11.546,0,0,0-3.179-4.2,8.387,8.387,0,0,0-5.332-1.538q-4.614,0-6.46,3.179a13.3,13.3,0,0,0-1.948,6.665,10.4,10.4,0,0,0,1.436,5.332,25.274,25.274,0,0,0,3.9,5.127q2.769,2.769,5.229,4.819,1.743,1.436,5.229,4.717l12.2,10.664q12,10.767,18.252,21.021a44.181,44.181,0,0,1,6.255,23.481,40.906,40.906,0,0,1-3.076,15.894,39.268,39.268,0,0,1-8.716,13.022,40.185,40.185,0,0,1-13.74,8.818,48.968,48.968,0,0,1-18.149,3.281Q233.994,211.358,222.612,198.849Zm95.977,0q-11.279-12.407-12.407-33.53l33.223-1.025q.205,2.666.615,5.64a21.776,21.776,0,0,0,1.538,5.845,13.988,13.988,0,0,0,3.281,4.614,8.623,8.623,0,0,0,5.845,1.948q4.819,0,6.563-3.281a15.419,15.419,0,0,0,1.641-7.178,13.773,13.773,0,0,0-3.9-9.639,135,135,0,0,0-10.562-9.946l-12.407-10.869q-11.484-10.254-17.534-20.2a44.014,44.014,0,0,1-6.152-23.276A44.185,44.185,0,0,1,311,82.262a37.351,37.351,0,0,1,21.533-22.148,49.448,49.448,0,0,1,18.97-3.384,50.08,50.08,0,0,1,14.663,2.153,32.033,32.033,0,0,1,12.715,7.28q5.537,5.127,9.331,14.253,3.589,8.818,4.1,22.354l-31.274,1.025a55.778,55.778,0,0,0-.923-6.768,21.341,21.341,0,0,0-1.743-5.947,11.546,11.546,0,0,0-3.179-4.2,8.387,8.387,0,0,0-5.332-1.538q-4.614,0-6.46,3.179a13.3,13.3,0,0,0-1.948,6.665,10.4,10.4,0,0,0,1.436,5.332,25.274,25.274,0,0,0,3.9,5.127q2.769,2.769,5.229,4.819,1.743,1.436,5.229,4.717l12.2,10.664q12,10.767,18.252,21.021a44.181,44.181,0,0,1,6.255,23.481,40.906,40.906,0,0,1-3.076,15.894,39.268,39.268,0,0,1-8.716,13.022,40.185,40.185,0,0,1-13.74,8.818,48.968,48.968,0,0,1-18.149,3.281Q329.971,211.358,318.589,198.849ZM405.952,59.293h78.34V89.542H441.636v28.1h33.838v30.454H441.636v30.454H484.5V209H405.952ZM506.646,198.849q-11.279-12.407-12.407-33.53l33.223-1.025q.205,2.666.615,5.64a21.776,21.776,0,0,0,1.538,5.845,13.988,13.988,0,0,0,3.281,4.614,8.623,8.623,0,0,0,5.845,1.948q4.819,0,6.563-3.281a15.419,15.419,0,0,0,1.641-7.178,13.773,13.773,0,0,0-3.9-9.639,135,135,0,0,0-10.562-9.946l-12.407-10.869q-11.484-10.254-17.534-20.2a44.014,44.014,0,0,1-6.152-23.276,44.185,44.185,0,0,1,2.666-15.688,37.351,37.351,0,0,1,21.533-22.148,49.448,49.448,0,0,1,18.97-3.384,50.08,50.08,0,0,1,14.663,2.153,32.033,32.033,0,0,1,12.715,7.28q5.537,5.127,9.331,14.253,3.589,8.818,4.1,22.354L549.1,103.795a55.778,55.778,0,0,0-.923-6.768,21.341,21.341,0,0,0-1.743-5.947,11.546,11.546,0,0,0-3.179-4.2,8.387,8.387,0,0,0-5.332-1.538q-4.614,0-6.46,3.179a13.3,13.3,0,0,0-1.948,6.665,10.4,10.4,0,0,0,1.436,5.332,25.274,25.274,0,0,0,3.9,5.127q2.769,2.769,5.229,4.819,1.743,1.436,5.229,4.717l12.2,10.664q12,10.767,18.252,21.021a44.181,44.181,0,0,1,6.255,23.481,40.906,40.906,0,0,1-3.076,15.894,39.268,39.268,0,0,1-8.716,13.022,40.185,40.185,0,0,1-13.74,8.818,48.968,48.968,0,0,1-18.149,3.281Q518.027,211.358,506.646,198.849Zm126.021,1.538Q623.54,188.9,623.54,168.5q0-15.073,6.665-25.635a54.171,54.171,0,0,1,17.329-17.227q-3.794-7.383-7.383-15.381a41.326,41.326,0,0,1-3.589-16.919,43,43,0,0,1,2.358-14.253A32.008,32.008,0,0,1,657.583,59.6a43.31,43.31,0,0,1,16.2-2.871q16.714,0,26.147,9.023,9.536,9.023,9.536,26.045a46.007,46.007,0,0,1-5.64,22.354,46.661,46.661,0,0,1-16.2,17.124,40.147,40.147,0,0,0,2.256,3.9q.1.205,1.487,2.307t2.1,3.23q2.461,3.9,3.486,5.742.41.82,1.23,2.2t1.025,1.794a57.372,57.372,0,0,0,1.333-6.665l.667-4.666q.461-3.23.667-4.46l25.84,2.769a111.383,111.383,0,0,1-2.358,12.2q-1.641,6.563-3.384,11.792-2.358,7.075-3.589,10.049a77.823,77.823,0,0,1-3.486,7.485,46.113,46.113,0,0,0,3.281,6.05q1.025,1.641,3.025,4.922t2.512,4.1q4.1,6.665,5.435,9.023,2.769,4.922,3.179,5.947H695.42l-5.742-9.639A38.808,38.808,0,0,1,675.22,208.9a47.118,47.118,0,0,1-15.791,2.871Q641.689,211.769,632.666,200.387Zm44.194-22.866a50.8,50.8,0,0,0-3.076-5.947q-1.743-2.974-5.024-8.306-3.9-6.357-5.127-8.408a50.8,50.8,0,0,1-3.076-5.947q-4.409,5.332-4.409,16.611a27.5,27.5,0,0,0,2.358,11.792q2.461,5.229,8.511,5.229A11.789,11.789,0,0,0,676.86,177.521Zm2.871-75.776a27.984,27.984,0,0,0,1.743-10.151q0-5.024-1.743-7.485a5.594,5.594,0,0,0-4.717-2.563,5.5,5.5,0,0,0-5.332,2.974,12.456,12.456,0,0,0-1.641,5.845,23.217,23.217,0,0,0,1.743,8,92.322,92.322,0,0,0,5.229,10.869A20.694,20.694,0,0,0,679.731,101.744Z" transform="translate(-2 12)" fill="none" stroke="#fff" stroke-width="2"/><path d="M7.383,59.293H53.525l13.022,57.114h.615L81.108,59.293H125V209H93.413V110.768H93L78.75,175.162H54.141L39.272,110.768h-.41V209H7.383Zm132.275,0H218V89.542H175.342v28.1H209.18v30.454H175.342v30.454H218.2V209H139.658Zm91.67,0h46.143l13.022,57.114h.615l13.945-57.114H348.94V209H317.358V110.768h-.41L302.7,175.162H278.086l-14.868-64.395h-.41V209H231.328Zm132.275,0h53.936a49.16,49.16,0,0,1,14.868,2.051,27.868,27.868,0,0,1,11.587,6.87,32.213,32.213,0,0,1,7.485,12q2.563,7.075,2.563,17.739,0,15.894-5.64,23.994a28.7,28.7,0,0,1-13.843,11.074v.82A28.832,28.832,0,0,1,449.121,144.4q5.845,7.793,5.845,22.148,0,21.021-10.151,31.787Q434.766,209,418.77,209H363.6Zm45.732,120.688a7.711,7.711,0,0,0,7.178-4.2q2.256-4.1,2.256-11.484,0-8.2-2.461-11.895a8.281,8.281,0,0,0-7.383-3.691h-9.639v31.274Zm-.82-60.6q5.537,0,7.793-4,2.256-3.9,2.256-12.612,0-14.971-9.023-14.971H399.287v31.582Zm59.575-60.088h78.34V89.542H503.774v28.1h33.838v30.454H503.774v30.454h42.861V209H468.091Zm91.67,0h48.3a56.316,56.316,0,0,1,17.637,2.563,35.865,35.865,0,0,1,13.638,8.1,34.851,34.851,0,0,1,8.716,14.15,63.648,63.648,0,0,1,3.076,20.918q0,16.3-4.512,25.635a34.187,34.187,0,0,1-11.895,14.048L652.969,209H615.747l-12.92-56.5h-7.178V209H559.761Zm44.707,66.958a9.619,9.619,0,0,0,7.9-3.9q2.974-3.691,2.974-15.176,0-10.767-2.974-14.458a9.712,9.712,0,0,0-7.9-3.794h-8.818v37.324Zm69.009,72.6q-11.279-12.407-12.407-33.53l33.223-1.025q.205,2.666.615,5.64a21.776,21.776,0,0,0,1.538,5.845,13.988,13.988,0,0,0,3.281,4.614,8.623,8.623,0,0,0,5.845,1.948q4.819,0,6.563-3.281a15.419,15.419,0,0,0,1.641-7.178,13.773,13.773,0,0,0-3.9-9.639,135,135,0,0,0-10.562-9.946l-12.407-10.869q-11.484-10.254-17.534-20.2a44.014,44.014,0,0,1-6.152-23.276,44.185,44.185,0,0,1,2.666-15.688,37.351,37.351,0,0,1,21.533-22.148,49.448,49.448,0,0,1,18.97-3.384,50.08,50.08,0,0,1,14.663,2.153,32.033,32.033,0,0,1,12.715,7.28q5.537,5.127,9.331,14.253,3.589,8.818,4.1,22.354l-31.274,1.025A55.778,55.778,0,0,0,715,97.027a21.341,21.341,0,0,0-1.743-5.947,11.546,11.546,0,0,0-3.179-4.2,8.387,8.387,0,0,0-5.332-1.538q-4.614,0-6.46,3.179a13.3,13.3,0,0,0-1.948,6.665,10.4,10.4,0,0,0,1.436,5.332,25.274,25.274,0,0,0,3.9,5.127q2.769,2.769,5.229,4.819,1.743,1.436,5.229,4.717l12.2,10.664q12,10.767,18.252,21.021a44.181,44.181,0,0,1,6.255,23.481,40.906,40.906,0,0,1-3.076,15.894,39.268,39.268,0,0,1-8.716,13.022,40.185,40.185,0,0,1-13.74,8.818,48.968,48.968,0,0,1-18.149,3.281Q684.858,211.358,673.477,198.849ZM760.84,59.293h35.889v58.55h20.405V59.293h35.684V209H817.134V150.245H796.729V209H760.84Zm106.641,0h35.889V209H867.48Zm50.552,0H969.2q18.765,0,28.608,11.484,9.844,11.587,9.844,35.581t-9.331,37.427q-9.331,13.535-29.941,13.535H953.921V209H918.032ZM962.739,128.4q4.922,0,7.383-5.127t2.461-16.1q0-10.562-2.461-14.561a8.1,8.1,0,0,0-7.383-4h-8.818V128.4Z" transform="translate(-2 191)" fill="#fff" stroke="#fff" stroke-width="2"/><path d="M2.109-42.773H16.729q5.361,0,8.174,3.281,2.813,3.311,2.813,10.166T25.049-18.633q-2.666,3.867-8.555,3.867H12.363V0H2.109ZM14.883-23.027a2.252,2.252,0,0,0,2.109-1.465,11.237,11.237,0,0,0,.7-4.6,8.614,8.614,0,0,0-.7-4.16,2.315,2.315,0,0,0-2.109-1.143h-2.52v11.367ZM31.318-42.773h13.8a16.09,16.09,0,0,1,5.039.732,10.247,10.247,0,0,1,3.9,2.314,9.958,9.958,0,0,1,2.49,4.043,18.185,18.185,0,0,1,.879,5.977,17.1,17.1,0,0,1-1.289,7.324,9.768,9.768,0,0,1-3.4,4.014L57.949,0H47.314L43.623-16.143H41.572V0H31.318ZM44.092-23.643a2.748,2.748,0,0,0,2.256-1.113q.85-1.055.85-4.336,0-3.076-.85-4.131a2.775,2.775,0,0,0-2.256-1.084h-2.52v10.664ZM61.23-42.773H71.484V0H61.23ZM83.35-.059a11.5,11.5,0,0,1-4.189-2.2,9.937,9.937,0,0,1-2.783-3.691,12.766,12.766,0,0,1-1.025-5.273V-31.787a11.015,11.015,0,0,1,1.084-5.039,10.906,10.906,0,0,1,2.9-3.633,12.86,12.86,0,0,1,4.219-2.227,17.24,17.24,0,0,1,5.127-.762,15.759,15.759,0,0,1,4.717.7,11.4,11.4,0,0,1,3.926,2.08,10.427,10.427,0,0,1,2.666,3.486,10.981,10.981,0,0,1,1,4.893v4.629H91.67v-3.9a2.836,2.836,0,0,0-.85-2.227,3.083,3.083,0,0,0-2.139-.791q-2.93,0-2.93,3.018v20.039a3.52,3.52,0,0,0,.732,2.373,2.819,2.819,0,0,0,2.256.85,3,3,0,0,0,2.08-.762,2.836,2.836,0,0,0,.85-2.227v-3.779h9.316v4.307a11.634,11.634,0,0,1-.967,4.893,10.152,10.152,0,0,1-2.637,3.574,11.013,11.013,0,0,1-3.955,2.2,15.635,15.635,0,0,1-4.863.762A18.586,18.586,0,0,1,83.35-.059Zm21.24-42.715h22.383v8.643H114.785V-26.1h9.668v8.7h-9.668v8.7h12.246V0H104.59ZM133.359-2.9q-3.223-3.545-3.545-9.58l9.492-.293q.059.762.176,1.611a6.222,6.222,0,0,0,.439,1.67,4,4,0,0,0,.938,1.318,2.464,2.464,0,0,0,1.67.557,1.927,1.927,0,0,0,1.875-.937,4.406,4.406,0,0,0,.469-2.051,3.935,3.935,0,0,0-1.113-2.754,38.57,38.57,0,0,0-3.018-2.842L137.2-19.307a26.2,26.2,0,0,1-5.01-5.771,12.575,12.575,0,0,1-1.758-6.65,12.624,12.624,0,0,1,.762-4.482,11.126,11.126,0,0,1,2.314-3.75,11.061,11.061,0,0,1,3.838-2.578,14.128,14.128,0,0,1,5.42-.967,14.309,14.309,0,0,1,4.189.615,9.152,9.152,0,0,1,3.633,2.08,11.438,11.438,0,0,1,2.666,4.072,19.019,19.019,0,0,1,1.172,6.387l-8.936.293a15.937,15.937,0,0,0-.264-1.934,6.1,6.1,0,0,0-.5-1.7,3.3,3.3,0,0,0-.908-1.2,2.4,2.4,0,0,0-1.523-.439,1.954,1.954,0,0,0-1.846.908,3.8,3.8,0,0,0-.557,1.9A2.971,2.971,0,0,0,140.3-31a7.221,7.221,0,0,0,1.113,1.465q.791.791,1.494,1.377.5.41,1.494,1.348l3.486,3.047a27.671,27.671,0,0,1,5.215,6.006,12.623,12.623,0,0,1,1.787,6.709,11.687,11.687,0,0,1-.879,4.541,11.219,11.219,0,0,1-2.49,3.721A11.481,11.481,0,0,1,147.6-.264a13.991,13.991,0,0,1-5.186.938Q136.611.674,133.359-2.9Z" transform="translate(6 45)" fill="#ff3b6a"/></g></svg>