<svg xmlns="http://www.w3.org/2000/svg" xmlns:xlink="http://www.w3.org/1999/xlink" width="224" height="321" viewBox="0 0 224 321"><defs><clipPath id="a"><rect width="219.676" height="315.494" fill="none"/></clipPath><clipPath id="c"><rect width="224" height="321"/></clipPath></defs><g id="b" clip-path="url(#c)"><g transform="translate(2 2)"><g clip-path="url(#a)"><path d="M193.288,165.809l-.149-.126a81.282,81.282,0,0,0-18.634-11.759c-4.581-2.171-10.012-3.908-13.2-5.406-2.34-1.016-4.067-2.636-2.284-5.056,16.384-2.862,34.616-9.7,43.457-20.508q13.544-16.575,14.247-40.4.6-20.59-7.174-35.77a73.76,73.76,0,0,0-21.385-25.476A95.465,95.465,0,0,0,156.372,5.836,154.783,154.783,0,0,0,118.395.079a163.875,163.875,0,0,0-36.12,2.783,108.89,108.89,0,0,0-31.3,11c-9.423,5.117-16.78,9.829-23.624,18.495-6.756,8.554-1.032,1.349-7.171,9.078l-.026.033-.034.043.013.017a.9.9,0,0,0-.025.688c6.434,12.154,10.549,18.937,19.453,34.321,4.353,7.3,4.119,6.7,6.355,10.376,2.1,3.607,3.591,4.458,7.336,2.291C61.86,84.226,79.343,71.94,88.82,66.331c6.143-3.956,7.955-.45,11.148,4.782,2.954,4.987,14.277,23.324,17.077,28.176,5.049,8.3,2.7,9.354-5.695,14.5-5.635,3.473-16.35,11.226-22.489,15.009-2.9,1.8-5.551,3.345-8.178,5.193-3,2.153-3.55,3.665-2.146,6.7,3.671,7.027,11.158,18.882,15.177,25.856,4.358,7.05,7.877,14,12.634,20.386,5.43,7.332,15.044,9.687,23.055,4.508,4.887-2.476,8.613-9.117,14.519-5.4,6.114,4.227,11.919,10.6,17.79,15.743,2.671,2.567,5.64,5.224,6.9,8.677,2.8,9.6-8.919,23.165-16.564,28.8-16.8,14-41.865,16.124-61.011,7.24-15.552-7.176-24.522-22.616-33.248-36.952-3.83-5.815-6.016-11.915-12.425-8.535-10.134,5.738-28.04,16.686-39.1,23.193A22.264,22.264,0,0,0,1.8,227.5c-2.548,2.485-1.99,5.969-.769,8.975C3.338,242.118,7.987,249.976,11.6,256c10.06,16.364,22.2,30.808,37.587,40.676C66.924,308.047,90,316.48,112.117,315.4c22.181-.5,41.354-5.783,59.421-15.979,14.358-7.9,26.9-18.242,35.4-32.167,20.409-31.983,16.609-76.8-13.648-101.446" fill="#fff"/></g></g></g></svg>