<svg xmlns="http://www.w3.org/2000/svg" xmlns:xlink="http://www.w3.org/1999/xlink" width="706" height="520" viewBox="0 0 706 520"><defs><clipPath id="b"><rect width="706" height="520"/></clipPath></defs><g id="a" clip-path="url(#b)"><path d="M31.479,89.542H3.384V59.293H95.566V89.542H67.573V209H31.479ZM106.23,59.293h78.34V89.542H141.914v28.1h33.838v30.454H141.914v30.454h42.861V209H106.23Zm117.92-.205h49.116L301.772,209H265.679l-5.024-27.891H231.636L226.816,209H193.9ZM255.015,152.3l-8.2-52.91H246.2l-8.818,52.91Zm57.524-93h46.143L371.7,116.407h.615l13.945-57.114h43.887V209H398.569V110.768h-.41l-14.253,64.395H359.3l-14.868-64.395h-.41V209H312.539Z" transform="translate(-1 -57)" fill="#fff" stroke="#fff" stroke-width="2"/><path d="M7.383,59.293H61.318a49.16,49.16,0,0,1,14.868,2.051,27.868,27.868,0,0,1,11.587,6.87,32.213,32.213,0,0,1,7.485,12q2.563,7.075,2.563,17.739,0,15.894-5.64,23.994A28.7,28.7,0,0,1,78.34,133.019v.82A28.832,28.832,0,0,1,92.9,144.4q5.845,7.793,5.845,22.148,0,21.021-10.151,31.787Q78.545,209,62.549,209H7.383ZM53.115,179.981a7.711,7.711,0,0,0,7.178-4.2q2.256-4.1,2.256-11.484,0-8.2-2.461-11.895a8.281,8.281,0,0,0-7.383-3.691H43.066v31.274Zm-.82-60.6q5.537,0,7.793-4,2.256-3.9,2.256-12.612,0-14.971-9.023-14.971H43.066v31.582Zm86.338,89.414a38.416,38.416,0,0,1-14.868-7.9,36.324,36.324,0,0,1-9.536-13.535q-3.486-8-3.486-19.482V100.411a46.869,46.869,0,0,1,3.589-18.765,39.261,39.261,0,0,1,9.946-13.638A41.207,41.207,0,0,1,139.043,59.7,58.384,58.384,0,0,1,157.4,56.935,65.419,65.419,0,0,1,175.752,59.5a39.415,39.415,0,0,1,14.868,7.9,37.909,37.909,0,0,1,9.946,13.535q3.691,8.1,3.691,19.482v67.266q0,11.177-3.691,19.277a38.129,38.129,0,0,1-9.946,13.638,40.894,40.894,0,0,1-14.868,8.1,61.036,61.036,0,0,1-18.149,2.666A69.813,69.813,0,0,1,138.633,208.795Zm26.66-31.787a11.917,11.917,0,0,0,2.871-8.306V99.181q0-5.435-3.076-8.2a11.067,11.067,0,0,0-7.69-2.769q-10.254,0-10.254,10.972V168.5q0,5.435,2.563,8.408,2.563,3.076,7.9,3.076Q162.627,179.981,165.293,177.008Zm63.677,24.1q-11.689-10.151-11.689-32.2V59.293h36.094v109q0,5.947,2.871,8.921a10.327,10.327,0,0,0,7.793,2.974,9.692,9.692,0,0,0,7.588-3.076q2.769-3.076,2.769-8.818v-109H308.54v109q0,10.869-3.589,18.662A38.788,38.788,0,0,1,294.9,200.387a43.292,43.292,0,0,1-14.766,8.2,58.318,58.318,0,0,1-18.149,2.769Q240.762,211.358,228.97,201.1ZM322.588,59.293h35.684V178.546h42.861V209H322.588Zm90.645,0H460.4a58.646,58.646,0,0,1,17.227,2.358,40.71,40.71,0,0,1,13.945,7.178,35.673,35.673,0,0,1,9.331,12,37.924,37.924,0,0,1,3.486,16.919v71.367q0,10.459-3.486,17.842a35.119,35.119,0,0,1-9.331,12.407,40.71,40.71,0,0,1-13.945,7.178A58.3,58.3,0,0,1,460.4,209H413.232Zm43.887,119.253q6.152,0,8.613-3.589a14.2,14.2,0,0,0,2.461-8.408V101.026a11.8,11.8,0,0,0-2.769-8.2q-2.769-3.076-8.716-3.076h-7.793v88.8ZM517.925,59.293h78.34V89.542H553.608v28.1h33.838v30.454H553.608v30.454H596.47V209H517.925Zm91.67,0h48.3a56.316,56.316,0,0,1,17.637,2.563,35.865,35.865,0,0,1,13.638,8.1,34.851,34.851,0,0,1,8.716,14.15,63.648,63.648,0,0,1,3.076,20.918q0,16.3-4.512,25.635a34.187,34.187,0,0,1-11.895,14.048L702.8,209H665.581l-12.92-56.5h-7.178V209H609.595ZM654.3,126.251a9.619,9.619,0,0,0,7.9-3.9q2.974-3.691,2.974-15.176,0-10.767-2.974-14.458a9.712,9.712,0,0,0-7.9-3.794h-8.818v37.324Z" transform="translate(-1 127)" fill="none" stroke="#fff" stroke-width="2"/><path d="M7.383,59.293h48.3a56.316,56.316,0,0,1,17.637,2.563,35.865,35.865,0,0,1,13.638,8.1,34.851,34.851,0,0,1,8.716,14.15,63.648,63.648,0,0,1,3.076,20.918q0,16.3-4.512,25.635a34.187,34.187,0,0,1-11.895,14.048L100.591,209H63.369l-12.92-56.5H43.271V209H7.383ZM52.09,126.251a9.619,9.619,0,0,0,7.9-3.9q2.974-3.691,2.974-15.176,0-10.767-2.974-14.458a9.712,9.712,0,0,0-7.9-3.794H43.271v37.324Zm81.724,26.25L101.1,59.293h38.247l14.663,51.885,14.253-51.885h34.248L169.8,152.5V209H133.813ZM209.9,59.293h36.094l28.1,67.163h.718V59.293h31.685V209H274.5l-32.3-77.109h-.615V209H209.9Z" transform="translate(-1 306)" fill="none" stroke="#fff" stroke-width="2"/></g></svg>