<svg xmlns="http://www.w3.org/2000/svg" xmlns:xlink="http://www.w3.org/1999/xlink" width="984" height="406" viewBox="0 0 984 406"><defs><clipPath id="b"><rect width="984" height="406"/></clipPath></defs><g id="a" clip-path="url(#b)"><path d="M17.021,198.849Q5.742,186.441,4.614,165.318l33.223-1.025q.205,2.666.615,5.64a21.776,21.776,0,0,0,1.538,5.845,13.988,13.988,0,0,0,3.281,4.614,8.623,8.623,0,0,0,5.845,1.948q4.819,0,6.563-3.281a15.419,15.419,0,0,0,1.641-7.178,13.773,13.773,0,0,0-3.9-9.639A135,135,0,0,0,42.861,152.3L30.454,141.427q-11.484-10.254-17.534-20.2A44.014,44.014,0,0,1,6.768,97.95,44.185,44.185,0,0,1,9.434,82.262a38.943,38.943,0,0,1,8.1-13.125,38.712,38.712,0,0,1,13.433-9.023,49.448,49.448,0,0,1,18.97-3.384A50.08,50.08,0,0,1,64.6,58.883a32.033,32.033,0,0,1,12.715,7.28q5.537,5.127,9.331,14.253,3.589,8.818,4.1,22.354l-31.274,1.025a55.778,55.778,0,0,0-.923-6.768,21.341,21.341,0,0,0-1.743-5.947,11.546,11.546,0,0,0-3.179-4.2A8.387,8.387,0,0,0,48.3,85.338q-4.614,0-6.46,3.179a13.3,13.3,0,0,0-1.948,6.665,10.4,10.4,0,0,0,1.436,5.332,25.274,25.274,0,0,0,3.9,5.127q2.769,2.769,5.229,4.819,1.743,1.436,5.229,4.717l12.2,10.664q12,10.767,18.252,21.021a44.181,44.181,0,0,1,6.255,23.481,40.906,40.906,0,0,1-3.076,15.894A39.268,39.268,0,0,1,80.6,199.259a40.185,40.185,0,0,1-13.74,8.818,48.968,48.968,0,0,1-18.149,3.281Q28.4,211.358,17.021,198.849ZM104.385,59.293h35.889V209H104.385Zm77.93,149.4a41.544,41.544,0,0,1-14.766-7.9A37.013,37.013,0,0,1,157.5,187.672q-3.691-7.793-3.691-18.56V97.745A39.45,39.45,0,0,1,157.5,80.108a36.548,36.548,0,0,1,10.151-12.715A45.152,45.152,0,0,1,182.417,59.6a59.994,59.994,0,0,1,17.842-2.666,61.283,61.283,0,0,1,16.816,2.358,42.479,42.479,0,0,1,14.458,6.973A36.471,36.471,0,0,1,241.685,78.16q3.691,6.768,3.691,17.021V110.46h-32.71V97.54q0-5.127-3.691-7.588a14.535,14.535,0,0,0-8.1-2.563,10.754,10.754,0,0,0-7.793,2.769q-2.871,2.769-2.871,8.2v70.547a13.161,13.161,0,0,0,2.563,8.511q2.666,3.281,7.9,3.281,9.844,0,9.844-10.356V156.09H197.285V129.43h48.091v42.656q0,19.072-12.2,29.121-12.3,10.151-32.5,10.151A61.744,61.744,0,0,1,182.314,208.692Zm76.7-149.4h36.094l28.1,67.163h.718V59.293h31.685V209H323.613l-32.3-77.109H290.7V209H259.014Zm142.734,0h53.936a49.16,49.16,0,0,1,14.868,2.051,27.868,27.868,0,0,1,11.587,6.87,32.213,32.213,0,0,1,7.485,12q2.563,7.075,2.563,17.739,0,15.894-5.64,23.994a28.7,28.7,0,0,1-13.843,11.074v.82A28.832,28.832,0,0,1,487.266,144.4q5.845,7.793,5.845,22.148,0,21.021-10.151,31.787Q472.91,209,456.914,209H401.748ZM447.48,179.981a7.711,7.711,0,0,0,7.178-4.2q2.256-4.1,2.256-11.484,0-8.2-2.461-11.895a8.281,8.281,0,0,0-7.383-3.691h-9.639v31.274Zm-.82-60.6q5.537,0,7.793-4,2.256-3.9,2.256-12.612,0-14.971-9.023-14.971H437.432v31.582Zm59.575-60.088h78.34V89.542H541.919v28.1h33.838v30.454H541.919v30.454H584.78V209H506.235Zm91.67,0h78.34V89.542H633.589v29.121h33.838v30.659H633.589V209H597.905Zm116.382,149.5a38.416,38.416,0,0,1-14.868-7.9,36.324,36.324,0,0,1-9.536-13.535q-3.486-8-3.486-19.482V100.411a46.869,46.869,0,0,1,3.589-18.765,39.261,39.261,0,0,1,9.946-13.638A41.207,41.207,0,0,1,714.7,59.7a58.384,58.384,0,0,1,18.354-2.769A65.419,65.419,0,0,1,751.406,59.5a39.415,39.415,0,0,1,14.868,7.9,37.909,37.909,0,0,1,9.946,13.535q3.691,8.1,3.691,19.482v67.266q0,11.177-3.691,19.277a38.129,38.129,0,0,1-9.946,13.638,40.894,40.894,0,0,1-14.868,8.1,61.036,61.036,0,0,1-18.149,2.666A69.813,69.813,0,0,1,714.287,208.795Zm26.66-31.787a11.917,11.917,0,0,0,2.871-8.306V99.181q0-5.435-3.076-8.2a11.067,11.067,0,0,0-7.69-2.769q-10.254,0-10.254,10.972V168.5q0,5.435,2.563,8.408,2.563,3.076,7.9,3.076Q738.281,179.981,740.947,177.008Zm52.6-117.715h48.3a56.316,56.316,0,0,1,17.637,2.563,35.865,35.865,0,0,1,13.638,8.1,34.851,34.851,0,0,1,8.716,14.15,63.648,63.648,0,0,1,3.076,20.918q0,16.3-4.512,25.635a34.187,34.187,0,0,1-11.895,14.048L886.758,209H849.536l-12.92-56.5h-7.178V209H793.55Zm44.707,66.958a9.619,9.619,0,0,0,7.9-3.9q2.974-3.691,2.974-15.176,0-10.767-2.974-14.458a9.712,9.712,0,0,0-7.9-3.794h-8.818v37.324Zm59.985-66.958h78.34V89.542H933.926v28.1h33.838v30.454H933.926v30.454h42.861V209H898.242Z" transform="translate(2 12)" fill="none" stroke="#fff" stroke-width="2"/><path d="M32.71,152.5,0,59.293H38.247L52.91,111.178,67.163,59.293h34.248L68.7,152.5V209H32.71Zm98.232,56.294a38.416,38.416,0,0,1-14.868-7.9,36.324,36.324,0,0,1-9.536-13.535q-3.486-8-3.486-19.482V100.411a46.869,46.869,0,0,1,3.589-18.765,39.261,39.261,0,0,1,9.946-13.638A41.207,41.207,0,0,1,131.353,59.7a58.384,58.384,0,0,1,18.354-2.769A65.419,65.419,0,0,1,168.062,59.5a39.415,39.415,0,0,1,14.868,7.9,37.909,37.909,0,0,1,9.946,13.535q3.691,8.1,3.691,19.482v67.266q0,11.177-3.691,19.277a38.129,38.129,0,0,1-9.946,13.638,40.894,40.894,0,0,1-14.868,8.1,61.036,61.036,0,0,1-18.149,2.666A69.813,69.813,0,0,1,130.942,208.795Zm26.66-31.787a11.917,11.917,0,0,0,2.871-8.306V99.181q0-5.435-3.076-8.2a11.067,11.067,0,0,0-7.69-2.769q-10.254,0-10.254,10.972V168.5q0,5.435,2.563,8.408,2.563,3.076,7.9,3.076Q154.937,179.981,157.6,177.008Zm63.677,24.1q-11.689-10.151-11.689-32.2V59.293h36.094v109q0,5.947,2.871,8.921a10.327,10.327,0,0,0,7.793,2.974,9.692,9.692,0,0,0,7.588-3.076q2.769-3.076,2.769-8.818v-109H300.85v109q0,10.869-3.589,18.662a38.788,38.788,0,0,1-10.049,13.433,43.292,43.292,0,0,1-14.766,8.2,58.318,58.318,0,0,1-18.149,2.769Q233.071,211.358,221.279,201.1Zm151.963,7.69a40.241,40.241,0,0,1-14.663-7.69,34.778,34.778,0,0,1-9.741-12.92,44.682,44.682,0,0,1-3.589-18.457V97.745a37.478,37.478,0,0,1,13.945-30.352A45.01,45.01,0,0,1,373.96,59.6,60.338,60.338,0,0,1,391.9,56.935,55.156,55.156,0,0,1,408.413,59.4a39.9,39.9,0,0,1,13.74,7.28,36.494,36.494,0,0,1,9.331,12.2q3.486,7.075,3.486,17.124v16.2H402.363V98.565q0-5.127-2.974-7.793A10.79,10.79,0,0,0,391.9,88Q381.65,88,381.65,98.565V168.7q0,5.332,2.563,8.306t7.9,2.974a10.513,10.513,0,0,0,7.28-2.666q2.974-2.666,2.974-7.793V156.295h32.607v15.073a40.719,40.719,0,0,1-3.384,17.124A35.532,35.532,0,0,1,422.358,201a38.545,38.545,0,0,1-13.843,7.69,54.723,54.723,0,0,1-17.021,2.666A65.052,65.052,0,0,1,373.242,208.795Zm74.341-149.5h35.684V178.546h42.861V209H447.583Zm90.645,0h35.889V209H538.228Zm50.552,0h46.143l13.022,57.114h.615L662.5,59.293h43.887V209H674.81V110.768h-.41l-14.253,64.395H635.537l-14.868-64.395h-.41V209H588.779Zm132.275,0H774.99a49.16,49.16,0,0,1,14.868,2.051,27.868,27.868,0,0,1,11.587,6.87,32.213,32.213,0,0,1,7.485,12q2.563,7.075,2.563,17.739,0,15.894-5.64,23.994a28.7,28.7,0,0,1-13.843,11.074v.82A28.832,28.832,0,0,1,806.572,144.4q5.845,7.793,5.845,22.148,0,21.021-10.151,31.787Q792.217,209,776.221,209H721.055Zm45.732,120.688a7.711,7.711,0,0,0,7.178-4.2q2.256-4.1,2.256-11.484,0-8.2-2.461-11.895a8.281,8.281,0,0,0-7.383-3.691h-9.639v31.274Zm-.82-60.6q5.537,0,7.793-4,2.256-3.9,2.256-12.612,0-14.971-9.023-14.971H756.738v31.582Z" transform="translate(2 191)" fill="#fff" stroke="#fff" stroke-width="2"/><path d="M.176-42.773H10.254L13.389-20.1h.176l3.369-22.676h9.639l3.135,22.559h.117L32.93-42.773h9.023L34.629.117H25.137L21.416-24.346h-.293L17.227.117H7.559ZM49.6-42.832H63.633L71.777,0H61.465L60.029-7.969H51.738L50.361,0h-9.4ZM58.418-16.2,56.074-31.318H55.9L53.379-16.2ZM74.854-42.773H85.107V0H74.854Zm12.334,0H97.266l4.014,24.785h.234L105.5-42.773h9.17L106.377.117H95.537Zm29.561,0h22.383v8.643H126.943V-26.1h9.668v8.7h-9.668v8.7h12.246V0H116.748Zm26.191,0h13.8a16.09,16.09,0,0,1,5.039.732,10.247,10.247,0,0,1,3.9,2.314,9.958,9.958,0,0,1,2.49,4.043,18.185,18.185,0,0,1,.879,5.977,17.1,17.1,0,0,1-1.289,7.324,9.768,9.768,0,0,1-3.4,4.014L169.57,0H158.936l-3.691-16.143h-2.051V0H142.939Zm12.773,19.131a2.748,2.748,0,0,0,2.256-1.113q.85-1.055.85-4.336,0-3.076-.85-4.131a2.775,2.775,0,0,0-2.256-1.084h-2.52v10.664ZM175.43-2.9q-3.223-3.545-3.545-9.58l9.492-.293q.059.762.176,1.611a6.222,6.222,0,0,0,.439,1.67,4,4,0,0,0,.938,1.318,2.464,2.464,0,0,0,1.67.557,1.927,1.927,0,0,0,1.875-.937,4.406,4.406,0,0,0,.469-2.051,3.935,3.935,0,0,0-1.113-2.754,38.57,38.57,0,0,0-3.018-2.842l-3.545-3.105a26.2,26.2,0,0,1-5.01-5.771,12.575,12.575,0,0,1-1.758-6.65,12.624,12.624,0,0,1,.762-4.482,11.126,11.126,0,0,1,2.314-3.75,11.061,11.061,0,0,1,3.838-2.578,14.128,14.128,0,0,1,5.42-.967,14.309,14.309,0,0,1,4.189.615,9.152,9.152,0,0,1,3.633,2.08,11.438,11.438,0,0,1,2.666,4.072,19.019,19.019,0,0,1,1.172,6.387l-8.936.293a15.937,15.937,0,0,0-.264-1.934,6.1,6.1,0,0,0-.5-1.7,3.3,3.3,0,0,0-.908-1.2,2.4,2.4,0,0,0-1.523-.439,1.954,1.954,0,0,0-1.846.908,3.8,3.8,0,0,0-.557,1.9,2.971,2.971,0,0,0,.41,1.523,7.221,7.221,0,0,0,1.113,1.465q.791.791,1.494,1.377.5.41,1.494,1.348l3.486,3.047a27.671,27.671,0,0,1,5.215,6.006,12.623,12.623,0,0,1,1.787,6.709,11.687,11.687,0,0,1-.879,4.541,11.219,11.219,0,0,1-2.49,3.721,11.481,11.481,0,0,1-3.926,2.52,13.991,13.991,0,0,1-5.186.938Q178.682.674,175.43-2.9Z" transform="translate(10 45)" fill="#ff3b6a"/></g></svg>