<svg xmlns="http://www.w3.org/2000/svg" xmlns:xlink="http://www.w3.org/1999/xlink" width="963" height="704" viewBox="0 0 963 704"><defs><clipPath id="b"><rect width="963" height="704"/></clipPath></defs><g id="a" clip-path="url(#b)"><path d="M624.228,53.551h31.914l9.927,71.807h.557l10.669-71.807h30.522l9.927,71.436h.371l9.834-71.436h28.574l-23.193,135.82H703.271l-11.782-77.466h-.928l-12.339,77.466H647.606Zm139.438,0h32.471v52.974H814.6V53.551h32.285V189H814.6V135.841H796.137V189H763.666ZM883.9,53.365h44.438L954.13,189H921.474l-4.546-25.234H890.673L886.313,189h-29.78ZM911.825,137.7,904.4,89.825h-.557L895.868,137.7Zm66.24-56.777h-25.42V53.551h83.4V80.919h-25.327V189H978.065Zm96.113-27.368h32.471V189h-32.471Zm54.458,126.265q-10.205-11.226-11.226-30.337l30.059-.928q.185,2.412.557,5.1a19.7,19.7,0,0,0,1.392,5.288,12.656,12.656,0,0,0,2.969,4.175,7.8,7.8,0,0,0,5.288,1.763q4.36,0,5.938-2.969a13.95,13.95,0,0,0,1.484-6.494,12.461,12.461,0,0,0-3.525-8.721,122.148,122.148,0,0,0-9.556-9l-11.226-9.834q-10.391-9.277-15.864-18.276a39.822,39.822,0,0,1-5.566-21.06,39.978,39.978,0,0,1,2.412-14.194,33.794,33.794,0,0,1,19.482-20.039,44.739,44.739,0,0,1,17.163-3.062,45.311,45.311,0,0,1,13.267,1.948,28.982,28.982,0,0,1,11.5,6.587,36.221,36.221,0,0,1,8.442,12.9q3.247,7.979,3.711,20.225l-28.3.928a50.482,50.482,0,0,0-.835-6.123,19.31,19.31,0,0,0-1.577-5.381,10.447,10.447,0,0,0-2.876-3.8,7.588,7.588,0,0,0-4.824-1.392q-4.175,0-5.845,2.876a12.03,12.03,0,0,0-1.763,6.03,9.409,9.409,0,0,0,1.3,4.824,22.866,22.866,0,0,0,3.525,4.639q2.5,2.5,4.731,4.36,1.577,1.3,4.731,4.268l11.04,9.648q10.854,9.741,16.514,19.019a39.973,39.973,0,0,1,5.659,21.245,37.01,37.01,0,0,1-2.783,14.38,35.529,35.529,0,0,1-7.886,11.782,36.358,36.358,0,0,1-12.432,7.979,44.3,44.3,0,0,1-16.421,2.969Q1138.935,191.134,1128.637,179.815Z" transform="translate(-239.5 -49)" fill="none" stroke="#fff" stroke-width="2"/><path d="M250.258,53.551h48.8a44.478,44.478,0,0,1,13.452,1.855,25.214,25.214,0,0,1,10.483,6.216,29.145,29.145,0,0,1,6.772,10.854,47.616,47.616,0,0,1,2.319,16.05q0,14.38-5.1,21.709a25.971,25.971,0,0,1-12.524,10.02V121a26.086,26.086,0,0,1,13.174,9.556q5.288,7.051,5.288,20.039,0,19.019-9.185,28.76Q314.643,189,300.17,189H250.258Zm41.377,109.194a6.977,6.977,0,0,0,6.494-3.8q2.041-3.711,2.041-10.391,0-7.422-2.227-10.762a7.492,7.492,0,0,0-6.68-3.34h-8.721v28.3Zm-.742-54.829q5.01,0,7.051-3.618,2.041-3.525,2.041-11.411,0-13.545-8.164-13.545h-9.277v28.574Zm78.115,80.9a34.757,34.757,0,0,1-13.452-7.144,32.864,32.864,0,0,1-8.628-12.246q-3.154-7.236-3.154-17.627V90.753a42.406,42.406,0,0,1,3.247-16.978,35.522,35.522,0,0,1,9-12.339,37.283,37.283,0,0,1,13.359-7.515,52.824,52.824,0,0,1,16.606-2.5,59.189,59.189,0,0,1,16.606,2.319,35.661,35.661,0,0,1,13.452,7.144,34.3,34.3,0,0,1,9,12.246q3.34,7.329,3.34,17.627v60.859a41.787,41.787,0,0,1-3.34,17.441,34.5,34.5,0,0,1-9,12.339,37,37,0,0,1-13.452,7.329,55.223,55.223,0,0,1-16.421,2.412A63.164,63.164,0,0,1,369.008,188.814Zm24.121-28.76a10.782,10.782,0,0,0,2.6-7.515V89.64q0-4.917-2.783-7.422a10.013,10.013,0,0,0-6.958-2.5q-9.277,0-9.277,9.927v62.715q0,4.917,2.319,7.607,2.319,2.783,7.144,2.783Q390.717,162.745,393.129,160.055Zm57.612,21.8q-10.576-9.185-10.576-29.131V53.551h32.656v98.618q0,5.381,2.6,8.071a9.344,9.344,0,0,0,7.051,2.69,8.769,8.769,0,0,0,6.865-2.783q2.5-2.783,2.5-7.979V53.551h30.894v98.618a40.114,40.114,0,0,1-3.247,16.885,35.094,35.094,0,0,1-9.092,12.153,39.169,39.169,0,0,1-13.359,7.422,52.764,52.764,0,0,1-16.421,2.5Q461.41,191.134,450.741,181.856Zm84.7-128.306h32.285v107.9h38.779V189H535.443Zm82.012,0h42.676a53.06,53.06,0,0,1,15.586,2.134,36.833,36.833,0,0,1,12.617,6.494,32.276,32.276,0,0,1,8.442,10.854,34.313,34.313,0,0,1,3.154,15.308v64.57a37.571,37.571,0,0,1-3.154,16.143,31.774,31.774,0,0,1-8.442,11.226,36.833,36.833,0,0,1-12.617,6.494A52.743,52.743,0,0,1,660.131,189H617.455Zm39.707,107.9q5.566,0,7.793-3.247a12.852,12.852,0,0,0,2.227-7.607V91.31a10.676,10.676,0,0,0-2.5-7.422q-2.5-2.783-7.886-2.783H649.74v80.342Zm55.015-107.9h70.879V80.919H744.462v25.42h30.615v27.554H744.462v27.554h38.779V189H712.177Zm82.939,0h43.7A50.952,50.952,0,0,1,854.77,55.87,32.449,32.449,0,0,1,867.108,63.2,31.532,31.532,0,0,1,874.994,76a57.587,57.587,0,0,1,2.783,18.926q0,14.751-4.082,23.193a30.931,30.931,0,0,1-10.762,12.71L879.447,189H845.771l-11.689-51.118h-6.494V189H795.116Zm40.449,60.581a8.7,8.7,0,0,0,7.144-3.525q2.69-3.34,2.69-13.73,0-9.741-2.69-13.081a8.787,8.787,0,0,0-7.144-3.433h-7.979v33.77Zm54.272-60.581h32.471V189H889.838Zm45.737,0h32.656l25.42,60.767h.649V53.551h28.667V189H994.022L964.8,119.234h-.557V189H935.575ZM1061,188.722a37.587,37.587,0,0,1-13.359-7.144,33.489,33.489,0,0,1-9.092-11.875,38.912,38.912,0,0,1-3.34-16.792V88.341a35.693,35.693,0,0,1,3.34-15.957,33.068,33.068,0,0,1,9.185-11.5,40.852,40.852,0,0,1,13.359-7.051,54.28,54.28,0,0,1,16.143-2.412,55.446,55.446,0,0,1,15.215,2.134,38.433,38.433,0,0,1,13.081,6.309,33,33,0,0,1,9.185,10.762q3.34,6.123,3.34,15.4V99.845h-29.595V88.155a7.675,7.675,0,0,0-3.34-6.865,13.151,13.151,0,0,0-7.329-2.319,9.73,9.73,0,0,0-7.051,2.5q-2.6,2.5-2.6,7.422v63.828a11.908,11.908,0,0,0,2.319,7.7q2.412,2.969,7.144,2.969,8.906,0,8.906-9.37v-12.9H1074.55V117.008h43.511V155.6q0,17.256-11.04,26.348-11.133,9.185-29.409,9.185A55.864,55.864,0,0,1,1061,188.722Zm85.352-44.346a54,54,0,0,1,2.412-16.885,58,58,0,0,1,6.309-13.359q1.392-2.134,4.175-6.216a53.556,53.556,0,0,0,3.8-6.587,43.016,43.016,0,0,0,2.783-7.515,33.926,33.926,0,0,0,1.021-8.906,7.856,7.856,0,0,0-1.67-5.288,6,6,0,0,0-4.824-1.948q-3.525,0-4.824,2.134a10.512,10.512,0,0,0-1.392,5.659V95.855h-25.884V84.908a35.453,35.453,0,0,1,2.5-13.545,31.391,31.391,0,0,1,6.958-10.483,29.7,29.7,0,0,1,10.762-6.865A39.918,39.918,0,0,1,1162.5,51.6q15.864,0,25.142,8.813,9.37,8.906,9.463,25.42a43.159,43.159,0,0,1-1.3,10.854,54.979,54.979,0,0,1-3.154,9.185,55.574,55.574,0,0,1-4.268,7.886q-2.134,3.247-4.639,6.865-3.433,5.2-6.865,11.04A23.841,23.841,0,0,0,1173.354,144v3.8h-27Zm-.742,11.782h29.595V189h-29.595Z" transform="translate(-239.5 130)" fill="#fff" stroke="#fff" stroke-width="2"/><path d="M23.842,19.672H34V71H23.842Zm24.439,8.543h-9.7V19.672h29.6v8.543H58.511V71H48.281Zm27.005,1.969H72.262V19.672h8.93v9.984l-3.41,9.738H73.317ZM89.318,67.836Q85.7,63.863,85.345,56.973l9.527-.316q.246,1.723.352,2.391a7.965,7.965,0,0,0,.7,2.25,4.587,4.587,0,0,0,1.336,1.617,3.654,3.654,0,0,0,2.215.6A3,3,0,0,0,102.431,62a7,7,0,0,0,.773-3.234,6.372,6.372,0,0,0-1.266-3.867,29.711,29.711,0,0,0-3.48-3.832l-4.887-4.852a30.655,30.655,0,0,1-5.449-6.574,14.433,14.433,0,0,1-1.969-7.594,15.288,15.288,0,0,1,.809-5.062,11.666,11.666,0,0,1,2.531-4.219,12.2,12.2,0,0,1,4.254-2.883,15.457,15.457,0,0,1,6.012-1.09,15.929,15.929,0,0,1,4.641.7,9.61,9.61,0,0,1,4.043,2.355,12.893,12.893,0,0,1,2.883,4.465,22.178,22.178,0,0,1,1.23,7.031l-8.93.281a15.18,15.18,0,0,0-1.125-4.746,3.705,3.705,0,0,0-6.012-.7,5.243,5.243,0,0,0-.914,3.094A5.922,5.922,0,0,0,97.3,35.211q1.617,1.828,3.551,3.691l4.535,4.465a32.86,32.86,0,0,1,5.73,7.066,15.463,15.463,0,0,1,2.039,7.84,14.526,14.526,0,0,1-.949,5.273,12.824,12.824,0,0,1-2.742,4.324,12.5,12.5,0,0,1-4.324,2.883,14.779,14.779,0,0,1-5.73,1.055Q92.9,71.809,89.318,67.836Zm48.28,3.129a13.422,13.422,0,0,1-4.676-2.5,10.821,10.821,0,0,1-3.129-4.148,14.679,14.679,0,0,1-1.09-5.906v-26.3a13.182,13.182,0,0,1,1.125-5.66,12.2,12.2,0,0,1,3.2-4.148,13.954,13.954,0,0,1,4.711-2.566,19.335,19.335,0,0,1,5.8-.879,16.9,16.9,0,0,1,5.379.844,12.614,12.614,0,0,1,4.359,2.391A11.463,11.463,0,0,1,156.2,26a12.563,12.563,0,0,1,1.09,5.273v5.66h-9.211V32.117a4.419,4.419,0,0,0-1.23-3.27,4.466,4.466,0,0,0-3.3-1.2,4.248,4.248,0,0,0-3.445,1.3A5.078,5.078,0,0,0,139,32.328V57.957a5.171,5.171,0,0,0,1.16,3.621,4.445,4.445,0,0,0,3.445,1.3,4.226,4.226,0,0,0,4.465-4.465V53.7h9.211v5.273a13.283,13.283,0,0,1-1.055,5.414,11.643,11.643,0,0,1-2.918,4.008,12.318,12.318,0,0,1-4.395,2.531,17.119,17.119,0,0,1-5.449.879A19.639,19.639,0,0,1,137.6,70.965Zm25.142-51.293h10.09V62.281h14.7V71H162.739Zm29.712,0h10.16V71h-10.16Zm16.529,0h12.973l5.52,20.426h.246l5.73-20.426h12.41V71h-9V34.93h-.141l-5.766,21.9h-7L218.05,35h-.141V71h-8.93Zm43.177,0h16.418q5.52,0,8.719,3.129,3.164,3.129,3.164,9.984,0,5.309-1.9,8.191a8.408,8.408,0,0,1-4.887,3.727v.316a8.747,8.747,0,0,1,5.2,3.832,14.056,14.056,0,0,1,1.863,7.664q0,7.453-3.27,10.969A11.042,11.042,0,0,1,269,71h-16.84ZM266.43,62.7a3.286,3.286,0,0,0,3.094-1.793,10.438,10.438,0,0,0,.984-5.027q0-3.586-1.16-5.062a4,4,0,0,0-3.3-1.547h-3.8V62.7ZM265.9,40.977a3.8,3.8,0,0,0,3.3-1.652q1.16-1.652,1.16-5.273a8.544,8.544,0,0,0-1.02-4.746,3.364,3.364,0,0,0-2.918-1.512h-4.184V40.977Zm20.571-21.3h10.16V71h-10.16Zm16.529,0h10.371l10.793,27.422h.211V19.672h9V71h-9.141L312.214,40.273H312V71h-9ZM348.289,70.93a13.188,13.188,0,0,1-4.711-2.566,11.978,11.978,0,0,1-3.164-4.254,13.938,13.938,0,0,1-1.125-5.836V32.117a13.182,13.182,0,0,1,1.125-5.66,12.081,12.081,0,0,1,3.164-4.148,13.236,13.236,0,0,1,4.676-2.566,19.335,19.335,0,0,1,5.8-.879,18.481,18.481,0,0,1,5.449.809,13.622,13.622,0,0,1,4.535,2.32,11.252,11.252,0,0,1,4.254,9.035v5.414h-9.281V31.836a3.842,3.842,0,0,0-1.371-3.2,5.341,5.341,0,0,0-3.445-1.125,4.362,4.362,0,0,0-3.48,1.336,5.054,5.054,0,0,0-1.125,3.48v25.7a5.333,5.333,0,0,0,1.125,3.656,4.362,4.362,0,0,0,3.48,1.336,4.058,4.058,0,0,0,3.3-1.2,4.849,4.849,0,0,0,1.02-3.2V51.488h-5.273v-7.7h15.117V59.117q0,6.117-3.8,9.387-3.832,3.3-10.371,3.3A19.912,19.912,0,0,1,348.289,70.93Zm36.819-51.258h10.16V71h-10.16Zm16.529,0h10.371L422.8,47.094h.211V19.672h9V71h-9.141L410.848,40.273h-.211V71h-9Zm47.647,0h10.16V71h-10.16Zm24.439,8.543h-9.7V19.672h29.6v8.543h-9.668V71h-10.23Zm27.005,1.969H497.7V19.672h8.93v9.984l-3.41,9.738h-4.465ZM514.76,67.836q-3.621-3.973-3.973-10.863l9.527-.316q.246,1.723.352,2.391a7.965,7.965,0,0,0,.7,2.25,4.587,4.587,0,0,0,1.336,1.617,3.654,3.654,0,0,0,2.215.6A3,3,0,0,0,527.873,62a7,7,0,0,0,.773-3.234,6.372,6.372,0,0,0-1.266-3.867,29.711,29.711,0,0,0-3.48-3.832l-4.887-4.852a30.655,30.655,0,0,1-5.449-6.574,14.433,14.433,0,0,1-1.969-7.594,15.288,15.288,0,0,1,.809-5.062,11.666,11.666,0,0,1,2.531-4.219,12.2,12.2,0,0,1,4.254-2.883,15.457,15.457,0,0,1,6.012-1.09,15.929,15.929,0,0,1,4.641.7,9.61,9.61,0,0,1,4.043,2.355,12.893,12.893,0,0,1,2.883,4.465A22.178,22.178,0,0,1,538,33.348l-8.93.281a15.18,15.18,0,0,0-1.125-4.746,3.705,3.705,0,0,0-6.012-.7,5.243,5.243,0,0,0-.914,3.094,5.922,5.922,0,0,0,1.723,3.938q1.617,1.828,3.551,3.691l4.535,4.465a32.86,32.86,0,0,1,5.73,7.066,15.463,15.463,0,0,1,2.039,7.84,14.526,14.526,0,0,1-.949,5.273,12.824,12.824,0,0,1-2.742,4.324,12.5,12.5,0,0,1-4.324,2.883,14.779,14.779,0,0,1-5.73,1.055Q518.346,71.809,514.76,67.836Zm39.877-48.164h15.539q6.4,0,9.492,4.008,3.129,4.043,3.129,11.672,0,7.875-3.094,12.375-3.129,4.57-9.879,4.57H564.8V71h-10.16ZM568.313,44q4.535,0,4.535-8.437a11.83,11.83,0,0,0-1.02-5.625,3.653,3.653,0,0,0-3.445-1.863H564.8V44Zm23.56,24.469q-3.762-3.3-3.762-10.3v-38.5h10.23V57.816a5.2,5.2,0,0,0,1.3,3.832,4.477,4.477,0,0,0,3.3,1.3,4.042,4.042,0,0,0,3.3-1.406,5.4,5.4,0,0,0,1.09-3.727V19.672h9.7V57.887a15.1,15.1,0,0,1-1.125,5.977,12.085,12.085,0,0,1-3.129,4.359,13.873,13.873,0,0,1-4.676,2.672,18.336,18.336,0,0,1-5.836.914Q595.7,71.809,591.872,68.469Zm31.364-48.8H638q6.574,0,10.23,3.656t3.656,11.531a19.931,19.931,0,0,1-1.617,8.859,10.238,10.238,0,0,1-4.359,4.676L652.557,71H642.045l-5.273-20.391H633.4V71h-10.16Zm13.887,23.379a3.928,3.928,0,0,0,3.41-1.687q1.2-1.652,1.2-5.871,0-7.418-4.676-7.418H633.4V43.051ZM657.7,19.672H682.41v8.543H667.785V40.344h11.6v8.613h-11.6V62.281h14.7V71H657.7Zm32.1,48.164q-3.621-3.973-3.973-10.863l9.527-.316q.246,1.723.352,2.391a7.965,7.965,0,0,0,.7,2.25,4.587,4.587,0,0,0,1.336,1.617,3.654,3.654,0,0,0,2.215.6A3,3,0,0,0,702.911,62a7,7,0,0,0,.773-3.234,6.372,6.372,0,0,0-1.266-3.867,29.711,29.711,0,0,0-3.48-3.832l-4.887-4.852a30.655,30.655,0,0,1-5.449-6.574,14.433,14.433,0,0,1-1.969-7.594,15.288,15.288,0,0,1,.809-5.062,11.666,11.666,0,0,1,2.531-4.219,12.2,12.2,0,0,1,4.254-2.883,15.457,15.457,0,0,1,6.012-1.09,15.929,15.929,0,0,1,4.641.7,9.61,9.61,0,0,1,4.043,2.355,12.893,12.893,0,0,1,2.883,4.465,22.178,22.178,0,0,1,1.23,7.031l-8.93.281a15.18,15.18,0,0,0-1.125-4.746,3.705,3.705,0,0,0-6.012-.7,5.243,5.243,0,0,0-.914,3.094,5.922,5.922,0,0,0,1.723,3.938q1.617,1.828,3.551,3.691l4.535,4.465a32.86,32.86,0,0,1,5.73,7.066,15.463,15.463,0,0,1,2.039,7.84,14.526,14.526,0,0,1-.949,5.273,12.824,12.824,0,0,1-2.742,4.324,12.5,12.5,0,0,1-4.324,2.883,14.779,14.779,0,0,1-5.73,1.055Q693.384,71.809,689.8,67.836Zm35.829-39.621h-9.7V19.672h29.6v8.543h-9.668V71h-10.23Zm35.342-8.543h24.609v8.543h-14.52v12.41h11.6v8.719h-11.6V71h-10.09ZM798.345,70.93a12.475,12.475,0,0,1-4.711-2.6,11.071,11.071,0,0,1-3.023-4.359,16.709,16.709,0,0,1-1.055-6.223V32.855a14.659,14.659,0,0,1,1.125-6.047,12.613,12.613,0,0,1,3.164-4.359,13.077,13.077,0,0,1,4.711-2.672,18.988,18.988,0,0,1,5.906-.914,19.392,19.392,0,0,1,5.8.844,13.681,13.681,0,0,1,4.711,2.5,11.774,11.774,0,0,1,3.164,4.289,15.105,15.105,0,0,1,1.16,6.188V57.605a15.771,15.771,0,0,1-1.16,6.258,11.919,11.919,0,0,1-3.164,4.43,12.989,12.989,0,0,1-4.746,2.637,19.678,19.678,0,0,1-5.836.879A20.393,20.393,0,0,1,798.345,70.93Zm9.563-9.457a5.429,5.429,0,0,0,1.16-3.516V32.4a4.445,4.445,0,0,0-1.3-3.445,4.789,4.789,0,0,0-3.375-1.23,4.248,4.248,0,0,0-3.445,1.3,5.188,5.188,0,0,0-1.09,3.445V57.887a5.472,5.472,0,0,0,1.125,3.586,4.251,4.251,0,0,0,3.48,1.406A4.208,4.208,0,0,0,807.908,61.473Zm17.267-41.8H839.94q6.574,0,10.23,3.656t3.656,11.531a19.931,19.931,0,0,1-1.617,8.859,10.238,10.238,0,0,1-4.359,4.676L854.495,71H843.983L838.71,50.609h-3.375V71h-10.16Zm13.887,23.379a3.928,3.928,0,0,0,3.41-1.687q1.2-1.652,1.2-5.871,0-7.418-4.676-7.418h-3.656V43.051Zm20.571-23.379h12.973l5.52,20.426h.246l5.73-20.426h12.41V71h-9V34.93h-.141l-5.766,21.9h-7L868.7,35h-.141V71h-8.93ZM217.6,157.836q-3.621-3.973-3.973-10.863l9.527-.316q.246,1.723.352,2.391a7.965,7.965,0,0,0,.7,2.25,4.587,4.587,0,0,0,1.336,1.617,3.654,3.654,0,0,0,2.215.6A3,3,0,0,0,230.712,152a7,7,0,0,0,.773-3.234,6.372,6.372,0,0,0-1.266-3.867,29.711,29.711,0,0,0-3.48-3.832l-4.887-4.852a30.655,30.655,0,0,1-5.449-6.574,14.433,14.433,0,0,1-1.969-7.594,15.288,15.288,0,0,1,.809-5.062,11.666,11.666,0,0,1,2.531-4.219,12.2,12.2,0,0,1,4.254-2.883,15.457,15.457,0,0,1,6.012-1.09,15.929,15.929,0,0,1,4.641.7,9.61,9.61,0,0,1,4.043,2.355,12.893,12.893,0,0,1,2.883,4.465,22.178,22.178,0,0,1,1.23,7.031l-8.93.281a15.18,15.18,0,0,0-1.125-4.746,3.705,3.705,0,0,0-6.012-.7,5.243,5.243,0,0,0-.914,3.094,5.922,5.922,0,0,0,1.723,3.938q1.617,1.828,3.551,3.691l4.535,4.465a32.86,32.86,0,0,1,5.73,7.066,15.463,15.463,0,0,1,2.039,7.84,14.526,14.526,0,0,1-.949,5.273,12.824,12.824,0,0,1-2.742,4.324,12.5,12.5,0,0,1-4.324,2.883,14.779,14.779,0,0,1-5.73,1.055Q221.184,161.809,217.6,157.836Zm29.009-48.164h10.16v20.813h8.93V109.672h10.16V161H265.7V139.7h-8.93V161h-10.16Zm43.845,51.258a12.475,12.475,0,0,1-4.711-2.6,11.071,11.071,0,0,1-3.023-4.359,16.709,16.709,0,0,1-1.055-6.223V122.855a14.659,14.659,0,0,1,1.125-6.047,12.613,12.613,0,0,1,3.164-4.359,13.077,13.077,0,0,1,4.711-2.672,18.988,18.988,0,0,1,5.906-.914,19.392,19.392,0,0,1,5.8.844,13.681,13.681,0,0,1,4.711,2.5,11.774,11.774,0,0,1,3.164,4.289,15.105,15.105,0,0,1,1.16,6.188v24.926a15.771,15.771,0,0,1-1.16,6.258,11.919,11.919,0,0,1-3.164,4.43,12.989,12.989,0,0,1-4.746,2.637,19.678,19.678,0,0,1-5.836.879A20.393,20.393,0,0,1,290.452,160.93Zm9.563-9.457a5.429,5.429,0,0,0,1.16-3.516V122.4a4.445,4.445,0,0,0-1.3-3.445,4.789,4.789,0,0,0-3.375-1.23,4.248,4.248,0,0,0-3.445,1.3,5.188,5.188,0,0,0-1.09,3.445v25.418a5.472,5.472,0,0,0,1.125,3.586,4.251,4.251,0,0,0,3.48,1.406A4.208,4.208,0,0,0,300.015,151.473Zm17.267-41.8h14.766q6.574,0,10.23,3.656t3.656,11.531a19.931,19.931,0,0,1-1.617,8.859,10.238,10.238,0,0,1-4.359,4.676L346.6,161H336.09l-5.273-20.391h-3.375V161h-10.16Zm13.887,23.379a3.928,3.928,0,0,0,3.41-1.687q1.2-1.652,1.2-5.871,0-7.418-4.676-7.418h-3.656v14.977Zm27.392-14.836h-9.7v-8.543h29.6v8.543h-9.668V161H358.56Zm43.745,42.75a13.422,13.422,0,0,1-4.676-2.5,10.821,10.821,0,0,1-3.129-4.148,14.679,14.679,0,0,1-1.09-5.906v-26.3a13.182,13.182,0,0,1,1.125-5.66,12.2,12.2,0,0,1,3.2-4.148,13.954,13.954,0,0,1,4.711-2.566,19.335,19.335,0,0,1,5.8-.879,16.9,16.9,0,0,1,5.379.844,12.614,12.614,0,0,1,4.359,2.391A11.463,11.463,0,0,1,420.9,116a12.563,12.563,0,0,1,1.09,5.273v5.66h-9.211v-4.816a4.419,4.419,0,0,0-1.23-3.27,4.466,4.466,0,0,0-3.3-1.2,4.248,4.248,0,0,0-3.445,1.3,5.078,5.078,0,0,0-1.09,3.375v25.629a5.171,5.171,0,0,0,1.16,3.621,4.445,4.445,0,0,0,3.445,1.3,4.226,4.226,0,0,0,4.465-4.465V143.7h9.211v5.273a13.283,13.283,0,0,1-1.055,5.414,11.643,11.643,0,0,1-2.918,4.008,12.318,12.318,0,0,1-4.395,2.531,17.119,17.119,0,0,1-5.449.879A19.639,19.639,0,0,1,402.3,160.965Zm25.142-51.293h10.09v42.609h14.7V161H427.446Zm29.712,0h10.16V161h-10.16Zm16.529,0H486.66l5.52,20.426h.246l5.73-20.426h12.41V161h-9V124.93h-.141l-5.766,21.9h-7L482.757,125h-.141v36h-8.93Zm43.177,0h16.418q5.52,0,8.719,3.129,3.164,3.129,3.164,9.984,0,5.309-1.9,8.191a8.408,8.408,0,0,1-4.887,3.727v.316a8.747,8.747,0,0,1,5.2,3.832,14.056,14.056,0,0,1,1.863,7.664q0,7.453-3.27,10.969A11.042,11.042,0,0,1,533.7,161h-16.84ZM531.137,152.7a3.286,3.286,0,0,0,3.094-1.793,10.438,10.438,0,0,0,.984-5.027q0-3.586-1.16-5.062a4,4,0,0,0-3.3-1.547h-3.8V152.7Zm-.527-21.727a3.8,3.8,0,0,0,3.3-1.652q1.16-1.652,1.16-5.273a8.544,8.544,0,0,0-1.02-4.746,3.364,3.364,0,0,0-2.918-1.512h-4.184v13.184Zm23.314,26.859q-3.621-3.973-3.973-10.863l9.527-.316q.246,1.723.352,2.391a7.965,7.965,0,0,0,.7,2.25,4.587,4.587,0,0,0,1.336,1.617,3.654,3.654,0,0,0,2.215.6A3,3,0,0,0,567.037,152a7,7,0,0,0,.773-3.234,6.372,6.372,0,0,0-1.266-3.867,29.711,29.711,0,0,0-3.48-3.832l-4.887-4.852a30.655,30.655,0,0,1-5.449-6.574,14.433,14.433,0,0,1-1.969-7.594,15.288,15.288,0,0,1,.809-5.062,11.666,11.666,0,0,1,2.531-4.219,12.2,12.2,0,0,1,4.254-2.883,15.457,15.457,0,0,1,6.012-1.09,15.929,15.929,0,0,1,4.641.7,9.61,9.61,0,0,1,4.043,2.355,12.893,12.893,0,0,1,2.883,4.465,22.178,22.178,0,0,1,1.23,7.031l-8.93.281a15.18,15.18,0,0,0-1.125-4.746,3.705,3.705,0,0,0-6.012-.7,5.243,5.243,0,0,0-.914,3.094,5.922,5.922,0,0,0,1.723,3.938q1.617,1.828,3.551,3.691l4.535,4.465a32.86,32.86,0,0,1,5.73,7.066,15.463,15.463,0,0,1,2.039,7.84,14.526,14.526,0,0,1-.949,5.273,12.824,12.824,0,0,1-2.742,4.324,12.5,12.5,0,0,1-4.324,2.883,14.779,14.779,0,0,1-5.73,1.055Q557.51,161.809,553.924,157.836Zm31.892,2.6H582.44V149.855h8.93v9.984l-3.164,10.23h-4.781Zm25.041-2.6q-3.621-3.973-3.973-10.863l9.527-.316q.246,1.723.352,2.391a7.965,7.965,0,0,0,.7,2.25,4.587,4.587,0,0,0,1.336,1.617,3.654,3.654,0,0,0,2.215.6A3,3,0,0,0,623.97,152a7,7,0,0,0,.773-3.234,6.372,6.372,0,0,0-1.266-3.867,29.711,29.711,0,0,0-3.48-3.832l-4.887-4.852a30.655,30.655,0,0,1-5.449-6.574,14.433,14.433,0,0,1-1.969-7.594,15.288,15.288,0,0,1,.809-5.062,11.666,11.666,0,0,1,2.531-4.219,12.2,12.2,0,0,1,4.254-2.883,15.457,15.457,0,0,1,6.012-1.09,15.929,15.929,0,0,1,4.641.7,9.61,9.61,0,0,1,4.043,2.355,12.893,12.893,0,0,1,2.883,4.465,22.178,22.178,0,0,1,1.23,7.031l-8.93.281a15.18,15.18,0,0,0-1.125-4.746,3.705,3.705,0,0,0-6.012-.7,5.243,5.243,0,0,0-.914,3.094,5.922,5.922,0,0,0,1.723,3.938q1.617,1.828,3.551,3.691l4.535,4.465a32.86,32.86,0,0,1,5.73,7.066,15.463,15.463,0,0,1,2.039,7.84,14.526,14.526,0,0,1-.949,5.273A12.824,12.824,0,0,1,631,157.871a12.5,12.5,0,0,1-4.324,2.883,14.779,14.779,0,0,1-5.73,1.055Q614.443,161.809,610.857,157.836Zm37.306,3.094a12.475,12.475,0,0,1-4.711-2.6,11.071,11.071,0,0,1-3.023-4.359,16.709,16.709,0,0,1-1.055-6.223V122.855a14.659,14.659,0,0,1,1.125-6.047,12.613,12.613,0,0,1,3.164-4.359,13.077,13.077,0,0,1,4.711-2.672,18.988,18.988,0,0,1,5.906-.914,19.392,19.392,0,0,1,5.8.844,13.681,13.681,0,0,1,4.711,2.5,11.774,11.774,0,0,1,3.164,4.289,15.105,15.105,0,0,1,1.16,6.188v24.926a15.771,15.771,0,0,1-1.16,6.258,11.919,11.919,0,0,1-3.164,4.43,12.989,12.989,0,0,1-4.746,2.637,19.678,19.678,0,0,1-5.836.879A20.393,20.393,0,0,1,648.163,160.93Zm9.563-9.457a5.429,5.429,0,0,0,1.16-3.516V122.4a4.445,4.445,0,0,0-1.3-3.445,4.789,4.789,0,0,0-3.375-1.23,4.248,4.248,0,0,0-3.445,1.3,5.188,5.188,0,0,0-1.09,3.445v25.418a5.472,5.472,0,0,0,1.125,3.586,4.251,4.251,0,0,0,3.48,1.406A4.208,4.208,0,0,0,657.725,151.473Zm17.267-41.8H699.6v8.543h-14.52v12.41h11.6v8.719h-11.6V161h-10.09Zm37.622,8.543h-9.7v-8.543h29.6v8.543h-9.668V161h-10.23Zm35.342-8.543h12.973l5.52,20.426h.246l5.73-20.426h12.41V161h-9V124.93h-.141l-5.766,21.9h-7L757.027,125h-.141v36h-8.93Zm51.966-.07h13.816l10.02,51.4h-10.3l-2.074-11.531H800.942L798.832,161h-9.352Zm9.773,31.676-3.375-20.25h-.211l-3.516,20.25Zm23.525-23.062h-9.7v-8.543h29.6v8.543h-9.668V161H833.22Zm26.267,39.621q-3.621-3.973-3.973-10.863l9.527-.316q.246,1.723.352,2.391a7.965,7.965,0,0,0,.7,2.25,4.587,4.587,0,0,0,1.336,1.617,3.654,3.654,0,0,0,2.215.6A3,3,0,0,0,872.6,152a7,7,0,0,0,.773-3.234,6.372,6.372,0,0,0-1.266-3.867,29.711,29.711,0,0,0-3.48-3.832l-4.887-4.852a30.655,30.655,0,0,1-5.449-6.574,14.433,14.433,0,0,1-1.969-7.594,15.288,15.288,0,0,1,.809-5.062,11.666,11.666,0,0,1,2.531-4.219,12.2,12.2,0,0,1,4.254-2.883,15.457,15.457,0,0,1,6.012-1.09,15.929,15.929,0,0,1,4.641.7,9.61,9.61,0,0,1,4.043,2.355,12.893,12.893,0,0,1,2.883,4.465,22.178,22.178,0,0,1,1.23,7.031l-8.93.281a15.18,15.18,0,0,0-1.125-4.746,3.705,3.705,0,0,0-6.012-.7,5.243,5.243,0,0,0-.914,3.094,5.922,5.922,0,0,0,1.723,3.938q1.617,1.828,3.551,3.691l4.535,4.465a32.86,32.86,0,0,1,5.73,7.066,15.463,15.463,0,0,1,2.039,7.84,14.526,14.526,0,0,1-.949,5.273,12.824,12.824,0,0,1-2.742,4.324,12.5,12.5,0,0,1-4.324,2.883,14.779,14.779,0,0,1-5.73,1.055Q863.073,161.809,859.487,157.836Zm31.892,2.6H888V149.855h8.93v9.984l-3.164,10.23h-4.781ZM74.949,247.977q-2.988-3.937-2.988-10.652a16.884,16.884,0,0,1,2.18-8.684,17.268,17.268,0,0,1,6.047-6.082q-1.477-2.777-2.742-5.625a14.811,14.811,0,0,1-.562-10.687,10.441,10.441,0,0,1,2.215-3.832,11.057,11.057,0,0,1,3.762-2.637,13.133,13.133,0,0,1,5.238-.984q5.414,0,8.438,3.059,3.023,3.094,3.023,8.473a15.976,15.976,0,0,1-2.039,7.91,16.262,16.262,0,0,1-5.8,5.977q.211.457.879,1.582,1.266,2.109,1.617,2.672t1.617,2.672a14.987,14.987,0,0,1,.914,1.582,28.592,28.592,0,0,0,.633-2.883q.07-.492.3-1.687t.369-1.934l7.418.809a49.588,49.588,0,0,1-1.793,7.84,46.5,46.5,0,0,1-2.391,6.117q.105.211,1.09,1.934.316.527.932,1.564t.9,1.529q.281.492.9,1.529t.932,1.564q.879,1.582,1.02,1.9H96.465l-2.32-3.9a14,14,0,0,1-4.746,3.656,13.141,13.141,0,0,1-5.484,1.2Q77.973,251.949,74.949,247.977Zm13.57-5.2a6.437,6.437,0,0,0,1.969-2q-.07-.176-1.2-2.18-1.16-2.074-2.074-3.586-1.793-2.988-2.109-3.551-1.125-2-1.2-2.18a6.533,6.533,0,0,0-2,3.094,13.878,13.878,0,0,0-.562,4.148,12.719,12.719,0,0,0,.246,2.566,7.864,7.864,0,0,0,.773,2.25,5.126,5.126,0,0,0,1.441,1.582,3.622,3.622,0,0,0,2.145.6A4.683,4.683,0,0,0,88.52,242.773Zm2.074-28.09a11.2,11.2,0,0,0,.809-4.359,5.749,5.749,0,0,0-.773-3.164,2.792,2.792,0,0,0-4.676.07,5.6,5.6,0,0,0-.738,2.813,9.54,9.54,0,0,0,.738,3.41,34.1,34.1,0,0,0,2.145,4.43A7.32,7.32,0,0,0,90.594,214.684Zm31.475-15.012h24.715v8.543H132.159v12.129h11.6v8.613h-11.6v13.324h14.7V251H122.069Zm30.31,0H162.75l10.793,27.422h.211V199.672h9V251h-9.141l-12.023-30.727h-.211V251h-9Zm36.778,0h14.836a19.648,19.648,0,0,1,5.52.738,12.886,12.886,0,0,1,4.465,2.32,10.329,10.329,0,0,1,2.988,3.832,13.159,13.159,0,0,1,1.055,5.484v25.91a14.648,14.648,0,0,1-1.055,5.8,10.731,10.731,0,0,1-2.988,4.078,12.849,12.849,0,0,1-4.5,2.355,18.841,18.841,0,0,1-5.555.809H189.157Zm13.887,42.609a4.145,4.145,0,0,0,3.656-1.512,5.8,5.8,0,0,0,1.02-3.375V213a4.893,4.893,0,0,0-1.125-3.375,4.712,4.712,0,0,0-3.691-1.3h-3.656v33.961Zm20.888-42.609h10.09v42.609h14.7V251H223.932Zm29.712,0h24.715v8.543H263.734v12.129h11.6v8.613h-11.6v13.324h14.7V251H253.644Zm32.1,48.164q-3.621-3.973-3.973-10.863l9.527-.316q.246,1.723.352,2.391a7.965,7.965,0,0,0,.7,2.25,4.587,4.587,0,0,0,1.336,1.617,3.654,3.654,0,0,0,2.215.6A3,3,0,0,0,298.86,242a7,7,0,0,0,.773-3.234,6.372,6.372,0,0,0-1.266-3.867,29.711,29.711,0,0,0-3.48-3.832L290,226.215a30.655,30.655,0,0,1-5.449-6.574,14.433,14.433,0,0,1-1.969-7.594,15.288,15.288,0,0,1,.809-5.062,11.666,11.666,0,0,1,2.531-4.219,12.2,12.2,0,0,1,4.254-2.883,15.457,15.457,0,0,1,6.012-1.09,15.929,15.929,0,0,1,4.641.7,9.61,9.61,0,0,1,4.043,2.355,12.893,12.893,0,0,1,2.883,4.465,22.178,22.178,0,0,1,1.23,7.031l-8.93.281a15.18,15.18,0,0,0-1.125-4.746,3.705,3.705,0,0,0-6.012-.7,5.243,5.243,0,0,0-.914,3.094,5.922,5.922,0,0,0,1.723,3.938q1.617,1.828,3.551,3.691l4.535,4.465a32.86,32.86,0,0,1,5.73,7.066,15.463,15.463,0,0,1,2.039,7.84,14.526,14.526,0,0,1-.949,5.273,12.824,12.824,0,0,1-2.742,4.324,12.5,12.5,0,0,1-4.324,2.883,14.779,14.779,0,0,1-5.73,1.055Q289.332,251.809,285.746,247.836Zm31.4,0q-3.621-3.973-3.973-10.863l9.527-.316q.246,1.723.352,2.391a7.965,7.965,0,0,0,.7,2.25,4.587,4.587,0,0,0,1.336,1.617,3.654,3.654,0,0,0,2.215.6A3,3,0,0,0,330.259,242a7,7,0,0,0,.773-3.234,6.372,6.372,0,0,0-1.266-3.867,29.711,29.711,0,0,0-3.48-3.832l-4.887-4.852a30.655,30.655,0,0,1-5.449-6.574,14.433,14.433,0,0,1-1.969-7.594,15.288,15.288,0,0,1,.809-5.062,11.666,11.666,0,0,1,2.531-4.219,12.2,12.2,0,0,1,4.254-2.883,15.457,15.457,0,0,1,6.012-1.09,15.929,15.929,0,0,1,4.641.7,9.61,9.61,0,0,1,4.043,2.355,12.893,12.893,0,0,1,2.883,4.465,22.178,22.178,0,0,1,1.23,7.031l-8.93.281a15.18,15.18,0,0,0-1.125-4.746,3.705,3.705,0,0,0-6.012-.7,5.243,5.243,0,0,0-.914,3.094,5.922,5.922,0,0,0,1.723,3.938q1.617,1.828,3.551,3.691l4.535,4.465a32.86,32.86,0,0,1,5.73,7.066,15.463,15.463,0,0,1,2.039,7.84,14.526,14.526,0,0,1-.949,5.273,12.824,12.824,0,0,1-2.742,4.324,12.5,12.5,0,0,1-4.324,2.883,14.779,14.779,0,0,1-5.73,1.055Q320.732,251.809,317.146,247.836Zm48.28,3.129a13.422,13.422,0,0,1-4.676-2.5,10.821,10.821,0,0,1-3.129-4.148,14.679,14.679,0,0,1-1.09-5.906v-26.3a13.182,13.182,0,0,1,1.125-5.66,12.2,12.2,0,0,1,3.2-4.148,13.954,13.954,0,0,1,4.711-2.566,19.335,19.335,0,0,1,5.8-.879,16.9,16.9,0,0,1,5.379.844,12.614,12.614,0,0,1,4.359,2.391,11.463,11.463,0,0,1,2.918,3.9,12.563,12.563,0,0,1,1.09,5.273v5.66H375.9v-4.816a4.419,4.419,0,0,0-1.23-3.27,4.466,4.466,0,0,0-3.3-1.2,4.248,4.248,0,0,0-3.445,1.3,5.078,5.078,0,0,0-1.09,3.375v25.629a5.171,5.171,0,0,0,1.16,3.621,4.445,4.445,0,0,0,3.445,1.3,4.226,4.226,0,0,0,4.465-4.465V233.7h9.211v5.273a13.283,13.283,0,0,1-1.055,5.414,11.643,11.643,0,0,1-2.918,4.008,12.318,12.318,0,0,1-4.395,2.531,17.119,17.119,0,0,1-5.449.879A19.639,19.639,0,0,1,365.426,250.965Zm25.142-51.293h10.16v20.813h8.93V199.672h10.16V251h-10.16V229.7h-8.93V251h-10.16Zm44.337-.07h13.816l10.02,51.4h-10.3l-2.074-11.531H435.924L433.815,251h-9.352Zm9.773,31.676-3.375-20.25h-.211l-3.516,20.25Zm18.779-31.605h10.09v42.609h14.7V251H463.457Zm29.712,0h10.09v42.609h14.7V251H493.169Zm29.712,0H547.6v8.543H532.971v12.129h11.6v8.613h-11.6v13.324h14.7V251H522.881Zm30.31,0h10.371l10.793,27.422h.211V199.672h9V251h-9.141L562.4,220.273h-.211V251h-9Zm45.286,51.258a13.188,13.188,0,0,1-4.711-2.566,11.978,11.978,0,0,1-3.164-4.254,13.938,13.938,0,0,1-1.125-5.836V212.117a13.182,13.182,0,0,1,1.125-5.66,12.081,12.081,0,0,1,3.164-4.148,13.236,13.236,0,0,1,4.676-2.566,19.335,19.335,0,0,1,5.8-.879,18.481,18.481,0,0,1,5.449.809,13.622,13.622,0,0,1,4.535,2.32,11.252,11.252,0,0,1,4.254,9.035v5.414H609.2v-4.605a3.842,3.842,0,0,0-1.371-3.2,5.341,5.341,0,0,0-3.445-1.125,4.362,4.362,0,0,0-3.48,1.336,5.054,5.054,0,0,0-1.125,3.48v25.7a5.333,5.333,0,0,0,1.125,3.656,4.362,4.362,0,0,0,3.48,1.336,4.058,4.058,0,0,0,3.3-1.2,4.849,4.849,0,0,0,1.02-3.2v-7.137h-5.273v-7.7h15.117v15.328q0,6.117-3.8,9.387-3.832,3.3-10.371,3.3A19.912,19.912,0,0,1,598.477,250.93Zm25.95-51.258h24.715v8.543H634.517v12.129h11.6v8.613h-11.6v13.324h14.7V251H624.427Zm32.1,48.164q-3.621-3.973-3.973-10.863l9.527-.316q.246,1.723.352,2.391a7.965,7.965,0,0,0,.7,2.25,4.587,4.587,0,0,0,1.336,1.617,3.654,3.654,0,0,0,2.215.6A3,3,0,0,0,669.643,242a7,7,0,0,0,.773-3.234,6.372,6.372,0,0,0-1.266-3.867,29.711,29.711,0,0,0-3.48-3.832l-4.887-4.852a30.655,30.655,0,0,1-5.449-6.574,14.433,14.433,0,0,1-1.969-7.594,15.288,15.288,0,0,1,.809-5.062,11.666,11.666,0,0,1,2.531-4.219,12.2,12.2,0,0,1,4.254-2.883,15.457,15.457,0,0,1,6.012-1.09,15.929,15.929,0,0,1,4.641.7,9.61,9.61,0,0,1,4.043,2.355,12.893,12.893,0,0,1,2.883,4.465,22.178,22.178,0,0,1,1.23,7.031l-8.93.281a15.18,15.18,0,0,0-1.125-4.746,3.705,3.705,0,0,0-6.012-.7,5.243,5.243,0,0,0-.914,3.094,5.922,5.922,0,0,0,1.723,3.938q1.617,1.828,3.551,3.691l4.535,4.465a32.86,32.86,0,0,1,5.73,7.066,15.463,15.463,0,0,1,2.039,7.84,14.526,14.526,0,0,1-.949,5.273,12.824,12.824,0,0,1-2.742,4.324,12.5,12.5,0,0,1-4.324,2.883,14.779,14.779,0,0,1-5.73,1.055Q660.116,251.809,656.53,247.836Zm47.787-39.621h-9.7v-8.543h29.6v8.543h-9.668V251h-10.23Zm31.821,42.715a12.475,12.475,0,0,1-4.711-2.6,11.071,11.071,0,0,1-3.023-4.359,16.709,16.709,0,0,1-1.055-6.223V212.855a14.659,14.659,0,0,1,1.125-6.047,12.613,12.613,0,0,1,3.164-4.359,13.077,13.077,0,0,1,4.711-2.672,18.988,18.988,0,0,1,5.906-.914,19.392,19.392,0,0,1,5.8.844,13.681,13.681,0,0,1,4.711,2.5,11.774,11.774,0,0,1,3.164,4.289,15.105,15.105,0,0,1,1.16,6.188v24.926a15.771,15.771,0,0,1-1.16,6.258,11.919,11.919,0,0,1-3.164,4.43,12.989,12.989,0,0,1-4.746,2.637,19.678,19.678,0,0,1-5.836.879A20.393,20.393,0,0,1,736.139,250.93Zm9.563-9.457a5.429,5.429,0,0,0,1.16-3.516V212.4a4.445,4.445,0,0,0-1.3-3.445,4.789,4.789,0,0,0-3.375-1.23,4.248,4.248,0,0,0-3.445,1.3,5.188,5.188,0,0,0-1.09,3.445v25.418a5.472,5.472,0,0,0,1.125,3.586,4.251,4.251,0,0,0,3.48,1.406A4.208,4.208,0,0,0,745.7,241.473Zm28.135-41.8H784v22.676l9.844-22.676h10.02l-9.141,20.074L804,251H793.208l-5.977-22.816L784,234.3V251h-10.16Zm34.669,0H833.22v8.543H818.6v12.129h11.6v8.613H818.6v13.324h14.7V251H808.506Zm30.31,0H863.53v8.543H848.905v12.129h11.6v8.613h-11.6v13.324h14.7V251H838.815Zm30.31,0h15.539q6.4,0,9.492,4.008,3.129,4.043,3.129,11.672,0,7.875-3.094,12.375-3.129,4.57-9.879,4.57h-5.027V251h-10.16ZM882.8,224q4.535,0,4.535-8.437a11.83,11.83,0,0,0-1.02-5.625,3.653,3.653,0,0,0-3.445-1.863h-3.586V224ZM435.362,320.785l-10.723-31.113h10.793l5.7,19.23,5.484-19.23h9.7l-10.723,31.184V341h-10.23Zm31.821,20.145a12.475,12.475,0,0,1-4.711-2.6,11.071,11.071,0,0,1-3.023-4.359,16.709,16.709,0,0,1-1.055-6.223V302.855a14.659,14.659,0,0,1,1.125-6.047,12.613,12.613,0,0,1,3.164-4.359,13.077,13.077,0,0,1,4.711-2.672,18.988,18.988,0,0,1,5.906-.914,19.392,19.392,0,0,1,5.8.844,13.681,13.681,0,0,1,4.711,2.5,11.774,11.774,0,0,1,3.164,4.289,15.105,15.105,0,0,1,1.16,6.188v24.926a15.771,15.771,0,0,1-1.16,6.258,11.919,11.919,0,0,1-3.164,4.43,12.989,12.989,0,0,1-4.746,2.637,19.678,19.678,0,0,1-5.836.879A20.393,20.393,0,0,1,467.183,340.93Zm9.563-9.457a5.429,5.429,0,0,0,1.16-3.516V302.4a4.445,4.445,0,0,0-1.3-3.445,4.789,4.789,0,0,0-3.375-1.23,4.248,4.248,0,0,0-3.445,1.3,5.188,5.188,0,0,0-1.09,3.445v25.418a5.472,5.472,0,0,0,1.125,3.586,4.251,4.251,0,0,0,3.48,1.406A4.208,4.208,0,0,0,476.746,331.473Zm20.818,7q-3.762-3.3-3.762-10.3v-38.5h10.23v38.145a5.2,5.2,0,0,0,1.3,3.832,4.477,4.477,0,0,0,3.3,1.3,4.042,4.042,0,0,0,3.3-1.406,5.4,5.4,0,0,0,1.09-3.727V289.672h9.7v38.215a15.1,15.1,0,0,1-1.125,5.977,12.085,12.085,0,0,1-3.129,4.359,13.873,13.873,0,0,1-4.676,2.672,18.336,18.336,0,0,1-5.836.914Q501.4,341.809,497.563,338.469Zm50.635,2.5a13.422,13.422,0,0,1-4.676-2.5,10.821,10.821,0,0,1-3.129-4.148,14.679,14.679,0,0,1-1.09-5.906v-26.3a13.182,13.182,0,0,1,1.125-5.66,12.2,12.2,0,0,1,3.2-4.148,13.954,13.954,0,0,1,4.711-2.566,19.335,19.335,0,0,1,5.8-.879,16.9,16.9,0,0,1,5.379.844,12.614,12.614,0,0,1,4.359,2.391A11.463,11.463,0,0,1,566.8,296a12.563,12.563,0,0,1,1.09,5.273v5.66h-9.211v-4.816a4.419,4.419,0,0,0-1.23-3.27,4.466,4.466,0,0,0-3.3-1.2,4.248,4.248,0,0,0-3.445,1.3,5.078,5.078,0,0,0-1.09,3.375v25.629a5.171,5.171,0,0,0,1.16,3.621,4.445,4.445,0,0,0,3.445,1.3,4.226,4.226,0,0,0,4.465-4.465V323.7h9.211v5.273a13.283,13.283,0,0,1-1.055,5.414,11.643,11.643,0,0,1-2.918,4.008,12.318,12.318,0,0,1-4.395,2.531,17.119,17.119,0,0,1-5.449.879A19.639,19.639,0,0,1,548.2,340.965Zm33.439-.035a12.475,12.475,0,0,1-4.711-2.6,11.071,11.071,0,0,1-3.023-4.359,16.709,16.709,0,0,1-1.055-6.223V302.855a14.659,14.659,0,0,1,1.125-6.047,12.613,12.613,0,0,1,3.164-4.359,13.077,13.077,0,0,1,4.711-2.672,18.988,18.988,0,0,1,5.906-.914,19.392,19.392,0,0,1,5.8.844,13.681,13.681,0,0,1,4.711,2.5,11.774,11.774,0,0,1,3.164,4.289,15.105,15.105,0,0,1,1.16,6.188v24.926a15.771,15.771,0,0,1-1.16,6.258,11.919,11.919,0,0,1-3.164,4.43,12.989,12.989,0,0,1-4.746,2.637,19.678,19.678,0,0,1-5.836.879A20.393,20.393,0,0,1,581.637,340.93Zm9.563-9.457a5.429,5.429,0,0,0,1.16-3.516V302.4a4.445,4.445,0,0,0-1.3-3.445,4.789,4.789,0,0,0-3.375-1.23,4.248,4.248,0,0,0-3.445,1.3,5.188,5.188,0,0,0-1.09,3.445v25.418a5.472,5.472,0,0,0,1.125,3.586,4.251,4.251,0,0,0,3.48,1.406A4.208,4.208,0,0,0,591.2,331.473Zm17.267-41.8h12.973l5.52,20.426h.246l5.73-20.426h12.41V341h-9V304.93H636.2l-5.766,21.9h-7L617.536,305H617.4v36h-8.93Zm43.177,0H661.8V341h-10.16Zm16.529,0h10.371l10.793,27.422h.211V289.672h9V341h-9.141l-12.023-30.727h-.211V341h-9Zm45.286,51.258a13.188,13.188,0,0,1-4.711-2.566,11.978,11.978,0,0,1-3.164-4.254,13.938,13.938,0,0,1-1.125-5.836V302.117a13.182,13.182,0,0,1,1.125-5.66,12.081,12.081,0,0,1,3.164-4.148,13.236,13.236,0,0,1,4.676-2.566,19.335,19.335,0,0,1,5.8-.879,18.481,18.481,0,0,1,5.449.809,13.622,13.622,0,0,1,4.535,2.32,11.252,11.252,0,0,1,4.254,9.035v5.414h-9.281v-4.605a3.842,3.842,0,0,0-1.371-3.2,5.341,5.341,0,0,0-3.445-1.125,4.362,4.362,0,0,0-3.48,1.336,5.054,5.054,0,0,0-1.125,3.48v25.7a5.333,5.333,0,0,0,1.125,3.656,4.362,4.362,0,0,0,3.48,1.336,4.058,4.058,0,0,0,3.3-1.2,4.849,4.849,0,0,0,1.02-3.2v-7.137h-5.273v-7.7h15.117v15.328q0,6.117-3.8,9.387-3.832,3.3-10.371,3.3A19.912,19.912,0,0,1,713.458,340.93Zm36.819-51.258h16.418q5.52,0,8.719,3.129,3.164,3.129,3.164,9.984,0,5.309-1.9,8.191a8.408,8.408,0,0,1-4.887,3.727v.316a8.747,8.747,0,0,1,5.2,3.832,14.056,14.056,0,0,1,1.863,7.664q0,7.453-3.27,10.969A11.042,11.042,0,0,1,767.116,341h-16.84ZM764.55,332.7a3.286,3.286,0,0,0,3.094-1.793,10.438,10.438,0,0,0,.984-5.027q0-3.586-1.16-5.062a4,4,0,0,0-3.3-1.547h-3.8V332.7Zm-.527-21.727a3.8,3.8,0,0,0,3.3-1.652q1.16-1.652,1.16-5.273a8.544,8.544,0,0,0-1.02-4.746,3.364,3.364,0,0,0-2.918-1.512h-4.184v13.184ZM792.434,289.6H806.25L816.27,341h-10.3L803.9,329.469H793.454L791.344,341h-9.352Zm9.773,31.676-3.375-20.25h-.211l-3.516,20.25Zm26.478,19.688a13.422,13.422,0,0,1-4.676-2.5,10.821,10.821,0,0,1-3.129-4.148,14.679,14.679,0,0,1-1.09-5.906v-26.3a13.182,13.182,0,0,1,1.125-5.66,12.2,12.2,0,0,1,3.2-4.148,13.954,13.954,0,0,1,4.711-2.566,19.335,19.335,0,0,1,5.8-.879,16.9,16.9,0,0,1,5.379.844,12.614,12.614,0,0,1,4.359,2.391,11.463,11.463,0,0,1,2.918,3.9,12.563,12.563,0,0,1,1.09,5.273v5.66h-9.211v-4.816a4.419,4.419,0,0,0-1.23-3.27,4.466,4.466,0,0,0-3.3-1.2,4.248,4.248,0,0,0-3.445,1.3,5.078,5.078,0,0,0-1.09,3.375v25.629a5.171,5.171,0,0,0,1.16,3.621,4.445,4.445,0,0,0,3.445,1.3,4.226,4.226,0,0,0,4.465-4.465V323.7h9.211v5.273a13.283,13.283,0,0,1-1.055,5.414A11.643,11.643,0,0,1,844.4,338.4a12.318,12.318,0,0,1-4.395,2.531,17.119,17.119,0,0,1-5.449.879A19.639,19.639,0,0,1,828.685,340.965Zm25.142-51.293h10.16v22.676l9.844-22.676h10.02l-9.141,20.074L883.991,341H873.2l-5.977-22.816-3.234,6.117V341h-10.16ZM888,329.855h8.93V341H888Z" transform="translate(58 353.5)" fill="#ff3b6a"/></g></svg>