<svg xmlns="http://www.w3.org/2000/svg" xmlns:xlink="http://www.w3.org/1999/xlink" width="727" height="527" viewBox="0 0 727 527">
  <defs>
    <clipPath id="clip-path">
      <rect id="Rectangle_6" data-name="Rectangle 6" width="764.471" height="555.999" fill="none"/>
    </clipPath>
    <clipPath id="clip-Boulderryn-logo-full">
      <rect width="727" height="527"/>
    </clipPath>
  </defs>
  <g id="Boulderryn-logo-full" clip-path="url(#clip-Boulderryn-logo-full)">
    <g id="Group_16" data-name="Group 16" transform="translate(0 0)">
      <text id="_CLIMB_INDOORS" data-name="              CLIMB INDOORS" transform="translate(122.517 472.718) rotate(-8.519)" fill="#fff" font-size="66" font-family="FlamaCondensed-Bold, Flama Condensed" font-weight="700"><tspan x="0" y="0" letter-spacing="1.845em"> </tspan><tspan y="0" xml:space="preserve">             </tspan><tspan y="0" letter-spacing="-0.01em">C</tspan><tspan y="0" letter-spacing="-0.006em">L</tspan><tspan y="0" letter-spacing="-0.012em">I</tspan><tspan y="0" letter-spacing="-0.011em">M</tspan><tspan y="0">B </tspan><tspan y="0" letter-spacing="-0.012em">IN</tspan><tspan y="0" letter-spacing="-0.01em">DOO</tspan><tspan y="0" letter-spacing="-0.011em">R</tspan><tspan y="0">S</tspan></text>
      <text id="to_climb_outdoors" data-name="to climb outdoors" transform="translate(233.123 523.005) rotate(-8.519)" fill="#fff" font-size="66" font-family="FlamaCondensed-Bold, Flama Condensed" font-weight="700" letter-spacing="-0.003em"><tspan x="0" y="0">TO CLIMB OUTDOORS</tspan></text>
      <path id="Path_27" data-name="Path 27" d="M42.882,139.35l-.455,1.175L83.741,382.077l334.974-59.752,28.224-137.088L238.781,77.587,250.294,0Z" transform="translate(18.902)"/>
      <path id="Path_28" data-name="Path 28" d="M189.777,0,178.264,77.587l208.158,107.65Z" transform="translate(79.419)" fill="#fff"/>
      <path id="Path_29" data-name="Path 29" d="M102.643,338.767Zm0,0,71.478,58.351,263.393-117.6.1-.506ZM0,254.974l102.643,83.793L61.329,97.215Z" transform="translate(0 43.311)" fill="#fff"/>
      <g id="Group_10" data-name="Group 10" transform="translate(0 0)">
        <g id="Group_9" data-name="Group 9" clip-path="url(#clip-path)">
          <g id="Group_13" data-name="Group 13" transform="translate(89.039 112.084)">
            <path id="Path_30" data-name="Path 30" d="M93.372,143.423q2.357-3.97,1.168-10.652a13.375,13.375,0,0,0-3.027-6.84A8.371,8.371,0,0,0,86,123.151l-.049-.27q6.008-3.018,4.351-12.332-1.106-6.208-4.548-8.729t-8.773-1.571L61.6,102.986l8.565,48.12,15.794-2.812a10.213,10.213,0,0,0,7.417-4.871M72.4,108.93l3.914-.7q3.71-.661,4.756,5.213,1.154,6.479-3.031,7.223l-3.44.611Zm9.74,32.035-3.914.7-2.245-12.619,3.576-.637q4.183-.744,5.288,5.465,1.14,6.409-2.7,7.095" transform="translate(-61.597 -67.538)" fill="#fff"/>
            <path id="Path_31" data-name="Path 31" d="M94.423,144.208q4.337,2.639,10.747,1.5a14.993,14.993,0,0,0,9.449-5.2q3.3-4.1,2.154-10.585l-4.156-23.351q-1.143-6.409-5.6-8.993a15.253,15.253,0,0,0-10.606-1.489,14.869,14.869,0,0,0-9.475,5.236q-3.272,4.135-2.162,10.344l4.156,23.351q1.164,6.546,5.5,9.186m-.064-34.594a4.742,4.742,0,0,1,.5-3.465A4.145,4.145,0,0,1,97.82,104.4a4.135,4.135,0,0,1,5.165,3.607l4.264,23.958a4.938,4.938,0,0,1-.523,3.5,4.727,4.727,0,0,1-6.412,1.142,5.051,5.051,0,0,1-1.714-3.177Z" transform="translate(-51.398 -69.419)" fill="#fff"/>
            <path id="Path_32" data-name="Path 32" d="M127.689,142.2a14.68,14.68,0,0,0,9.344-5.213q3.265-4.135,2.173-10.275l-6.378-35.836-9.111,1.622,6.366,35.768a5.117,5.117,0,0,1-.386,3.69,3.9,3.9,0,0,1-2.878,1.834,4.175,4.175,0,0,1-3.359-.689,5.033,5.033,0,0,1-1.813-3.335L115.281,94,105.7,95.7l6.427,36.107q1.14,6.409,5.181,8.964t10.385,1.424" transform="translate(-41.95 -71.599)" fill="#fff"/>
            <path id="Path_33" data-name="Path 33" d="M158.336,126.581l-13.767,2.45-7.11-39.953-9.449,1.683,8.565,48.118,23.216-4.131Z" transform="translate(-32.009 -72.399)" fill="#fff"/>
            <path id="Path_34" data-name="Path 34" d="M178.408,128.573q3.124-3.76,2.057-9.764l-4.325-24.3q-1.008-5.67-5.215-7.982a14.853,14.853,0,0,0-10.012-1.282l-13.9,2.475,8.565,48.118,13.836-2.463a14.523,14.523,0,0,0,9-4.8m-14.837-2.582L157.9,94.138l3.44-.613a4.157,4.157,0,0,1,5.3,3.582l4.072,22.878a5.071,5.071,0,0,1-.5,3.465,4.1,4.1,0,0,1-3.072,1.905Z" transform="translate(-23.544 -74.248)" fill="#fff"/>
            <path id="Path_35" data-name="Path 35" d="M183.428,109.985l10.866-1.934-1.443-8.1-10.864,1.934-2.018-11.339,13.7-2.439-1.43-8.03L169.09,84.2l8.565,48.118,23.215-4.131-1.453-8.167-13.767,2.45Z" transform="translate(-13.707 -76.407)" fill="#fff"/>
            <path id="Path_36" data-name="Path 36" d="M203.23,109.277l2.2-.392,9.352,16.438,9.889-1.761-10.836-17.625q5.423-4.38,3.448-15.523Q214.661,75.7,202.851,77.8L188.273,80.4l8.565,48.12,9.516-1.694ZM199.194,86.6l3.374-.6q4.185-.746,5.435,6.274,1.405,7.895-2.846,8.653l-3.307.588Z" transform="translate(-5.161 -77.539)" fill="#fff"/>
          </g>
          <g id="Group_12" data-name="Group 12" transform="translate(98.554 156.205)">
            <path id="Path_37" data-name="Path 37" d="M182.508,183.067l-26.1-52.189-30.948,5.509,46.606,83.659,10.318,57.977,29.3-5.215L201.4,215.039l14.84-94.808-27.851,4.957Z" transform="translate(-42.661 -102.641)" fill="#fff"/>
            <path id="Path_38" data-name="Path 38" d="M257.669,112.652l13.991,78.608-.62.111L226.1,118.27l-29.711,5.288,26.183,147.107,25.792-4.591-15.681-88.1.619-.111,50.135,81.966,26.2-4.665L283.459,108.062Z" transform="translate(-11.059 -108.062)" fill="#fff"/>
            <path id="Path_39" data-name="Path 39" d="M156.123,174.7q-7.938-44.61-43.744-38.235l-44.2,7.868L94.145,290.219,123,285.084l-9.468-53.2,6.661-1.185,28.355,49.835,29.979-5.335L145.689,221.79q16.446-13.274,10.434-47.092M101.29,163.134l10.231-1.821q12.687-2.257,16.475,19.024,4.261,23.936-8.627,26.233l-10.03,1.785Z" transform="translate(-68.179 -95.764)" fill="#fff"/>
          </g>
        </g>
      </g>
    </g>
  </g>
</svg>
