<svg xmlns="http://www.w3.org/2000/svg" xmlns:xlink="http://www.w3.org/1999/xlink" width="474" height="450" viewBox="0 0 474 450">
  <defs>
    <clipPath id="clip-path">
      <rect id="Rectangle_1" data-name="Rectangle 1" width="626.728" height="592.993" fill="none"/>
    </clipPath>
    <clipPath id="clip-bolderryn-logo-mobile">
      <rect width="474" height="450"/>
    </clipPath>
  </defs>
  <g id="bolderryn-logo-mobile" clip-path="url(#clip-bolderryn-logo-mobile)">
    <g id="Group_14" data-name="Group 14" transform="translate(-47.728 0.007)">
      <path id="Path_1" data-name="Path 1" d="M153.775,0l-11.7,78.823L353.554,188.191Z" transform="translate(168.698 0)" fill="#fff"/>
      <path id="Path_3" data-name="Path 3" d="M53.14,143,259.17,4.576,248.2,78.5l-.23,1.546,1.387.717L459.363,189.372l-28.042,136.2L94.638,385.623Zm-1.8-1.428-.464,1.194,41.973,245.4,340.312-60.7,28.674-139.271L250.364,78.823,262.062,0Z" transform="translate(60.412)" fill="#fff"/>
      <path id="Path_4" data-name="Path 4" d="M126.674,310.669,84.7,65.269,22.4,225.54,199.289,369.949,466.879,250.478l.107-.514Z" transform="translate(26.592 77.497)" fill="#fff"/>
      <g id="Group_2" data-name="Group 2">
        <g id="Group_1" data-name="Group 1" clip-path="url(#clip-path)">
          <path id="Path_5" data-name="Path 5" d="M96.032,111.256q2.4-4.032,1.188-10.821a13.592,13.592,0,0,0-3.075-6.949,8.5,8.5,0,0,0-5.6-2.824l-.048-.276q6.1-3.065,4.418-12.527Q91.8,71.551,88.3,68.993t-8.913-1.6L63.751,70.176l8.7,48.887L88.5,116.206a10.372,10.372,0,0,0,7.535-4.95m-21.3-35.041,3.977-.709q3.77-.669,4.832,5.3,1.171,6.582-3.08,7.339l-3.5.621Zm9.9,32.546-3.977.709L78.367,96.647,82,96q4.249-.755,5.372,5.554,1.158,6.513-2.747,7.207" transform="translate(75.695 79.708)" fill="#fff"/>
          <path id="Path_6" data-name="Path 6" d="M89.213,113.508q4.4,2.684,10.917,1.522a15.213,15.213,0,0,0,9.6-5.28q3.356-4.167,2.187-10.753L107.7,75.275q-1.158-6.513-5.694-9.137A15.491,15.491,0,0,0,91.23,64.625a15.1,15.1,0,0,0-9.629,5.32q-3.32,4.2-2.2,10.508l4.222,23.724q1.184,6.651,5.587,9.331m-.066-35.144a4.831,4.831,0,0,1,.505-3.522,4.221,4.221,0,0,1,3.01-1.772,4.2,4.2,0,0,1,5.247,3.664l4.333,24.341a5.016,5.016,0,0,1-.532,3.559,4.8,4.8,0,0,1-6.514,1.159,5.129,5.129,0,0,1-1.743-3.226Z" transform="translate(93.945 76.341)" fill="#fff"/>
          <path id="Path_7" data-name="Path 7" d="M115.7,113.151a14.921,14.921,0,0,0,9.493-5.3q3.317-4.2,2.207-10.438l-6.479-36.406-9.257,1.647,6.468,36.336a5.2,5.2,0,0,1-.392,3.751,3.961,3.961,0,0,1-2.924,1.861,4.234,4.234,0,0,1-3.412-.7,5.1,5.1,0,0,1-1.842-3.386l-6.468-36.338-9.736,1.732L99.888,102.6q1.158,6.513,5.263,9.108t10.55,1.446" transform="translate(110.85 72.441)" fill="#fff"/>
          <path id="Path_8" data-name="Path 8" d="M139.149,97.905l-13.986,2.489-7.225-40.588-9.6,1.708,8.7,48.885,23.586-4.2Z" transform="translate(128.636 71.01)" fill="#fff"/>
          <path id="Path_9" data-name="Path 9" d="M152.994,101.359q3.173-3.819,2.089-9.92l-4.392-24.684q-1.027-5.762-5.3-8.111a15.078,15.078,0,0,0-10.169-1.3L121.1,59.856l8.7,48.885,14.058-2.5a14.746,14.746,0,0,0,9.139-4.88m-15.073-2.623-5.759-32.362,3.5-.621a4.22,4.22,0,0,1,5.385,3.64l4.138,23.241a5.146,5.146,0,0,1-.505,3.522,4.154,4.154,0,0,1-3.121,1.934Z" transform="translate(143.783 67.701)" fill="#fff"/>
          <path id="Path_10" data-name="Path 10" d="M150.487,84.146l11.037-1.964-1.463-8.229L149.024,75.92,146.972,64.4l13.918-2.476-1.452-8.159-23.518,4.187,8.7,48.885,23.586-4.2-1.476-8.3-13.986,2.489Z" transform="translate(161.384 63.837)" fill="#fff"/>
          <path id="Path_11" data-name="Path 11" d="M163.994,84.3l2.231-.4,9.5,16.7,10.046-1.787L174.765,80.909q5.509-4.449,3.5-15.773-2.661-14.948-14.657-12.811L148.8,54.961l8.7,48.887,9.668-1.721Zm-4.1-23.037,3.428-.61q4.252-.758,5.521,6.374,1.427,8.022-2.89,8.791l-3.362.6Z" transform="translate(176.676 61.811)" fill="#fff"/>
          <path id="Path_12" data-name="Path 12" d="M164.586,144.558,138.066,91.539l-31.441,5.6,47.347,84.994,10.484,58.9,29.765-5.3L183.775,177.04l15.075-96.32-28.293,5.035Z" transform="translate(126.601 95.843)" fill="#fff"/>
          <path id="Path_13" data-name="Path 13" d="M216.5,77.214l14.213,79.862-.63.112L184.435,82.923,154.249,88.3l26.6,149.451,26.2-4.663-15.93-89.5.628-.112,50.935,83.27L269.3,222,242.7,72.551Z" transform="translate(183.148 86.143)" fill="#fff"/>
          <path id="Path_14" data-name="Path 14" d="M157.517,130.739q-8.068-45.321-44.443-38.845l-44.9,7.993L94.549,248.1l29.31-5.217-9.618-54.045,6.765-1.205,28.81,50.631,30.454-5.42L146.915,178.58q16.71-13.485,10.6-47.842M101.809,118.99l10.394-1.85q12.888-2.294,16.738,19.327,4.328,24.316-8.765,26.651l-10.191,1.816Z" transform="translate(80.942 108.148)" fill="#fff"/>
        </g>
      </g>
    </g>
  </g>
</svg>
