<svg xmlns="http://www.w3.org/2000/svg" xmlns:xlink="http://www.w3.org/1999/xlink" width="727" height="527" viewBox="0 0 727 527">
  <defs>
    <clipPath id="clip-path">
      <rect id="Rectangle_6" data-name="Rectangle 6" width="764.471" height="555.999" fill="none"/>
    </clipPath>
    <clipPath id="clip-Boulderryn-logo-full">
      <rect width="727" height="527"/>
    </clipPath>
  </defs>
  <g id="Boulderryn-logo-full" clip-path="url(#clip-Boulderryn-logo-full)">
    <g id="Group_16" data-name="Group 16" transform="translate(0 0)">
      <path id="Path_40" data-name="Path 40" d="M269.013-.032a12.3,12.3,0,0,1-4.286-2.288,9.92,9.92,0,0,1-2.868-3.8,13.456,13.456,0,0,1-1-5.414V-35.643a12.084,12.084,0,0,1,1.031-5.188,11.182,11.182,0,0,1,2.933-3.8,12.791,12.791,0,0,1,4.318-2.353,17.723,17.723,0,0,1,5.317-.806,15.491,15.491,0,0,1,4.931.773,11.563,11.563,0,0,1,4,2.191,10.508,10.508,0,0,1,2.675,3.577,11.516,11.516,0,0,1,1,4.834v5.188h-8.443v-4.415a4.051,4.051,0,0,0-1.128-3,4.094,4.094,0,0,0-3.029-1.1,3.894,3.894,0,0,0-3.158,1.192,4.655,4.655,0,0,0-1,3.094v23.493a4.74,4.74,0,0,0,1.063,3.319,4.075,4.075,0,0,0,3.158,1.192,4.009,4.009,0,0,0,2.965-1.128,4.009,4.009,0,0,0,1.128-2.965v-4.318h8.443v4.834a12.176,12.176,0,0,1-.967,4.963,10.673,10.673,0,0,1-2.675,3.674,11.291,11.291,0,0,1-4.028,2.32,15.693,15.693,0,0,1-5,.806A18,18,0,0,1,269.013-.032ZM291.2-47.051h9.249V-7.992h13.471V0H291.2Zm26.642,0h9.313V0h-9.313Zm14.161,0H343.9l5.06,18.724h.226l5.253-18.724h11.376V0h-8.25V-33.064h-.129l-5.285,20.077h-6.413L340.319-33h-.129V0h-8.186Zm38.655,0h15.05a10.938,10.938,0,0,1,7.992,2.868q2.9,2.868,2.9,9.152,0,4.866-1.74,7.509a7.707,7.707,0,0,1-4.479,3.416v.29a8.018,8.018,0,0,1,4.77,3.513,12.885,12.885,0,0,1,1.708,7.025q0,6.832-3,10.055A10.122,10.122,0,0,1,386.1,0H370.66ZM383.744-7.605a3.012,3.012,0,0,0,2.836-1.644,9.568,9.568,0,0,0,.9-4.608q0-3.287-1.063-4.641a3.671,3.671,0,0,0-3.029-1.418h-3.48V-7.605Zm-.483-19.916a3.481,3.481,0,0,0,3.029-1.515,8.568,8.568,0,0,0,1.063-4.834,7.832,7.832,0,0,0-.935-4.351,3.084,3.084,0,0,0-2.675-1.386h-3.835v12.085Zm28.424-19.529H421V0h-9.313Zm14.161,0h9.507l9.894,25.137h.193V-47.051h8.25V0H445.31L434.289-28.166H434.1V0h-8.25Zm32.724,0h13.6a18.01,18.01,0,0,1,5.06.677,11.813,11.813,0,0,1,4.093,2.127,9.469,9.469,0,0,1,2.739,3.513,12.062,12.062,0,0,1,.967,5.027v23.751a13.428,13.428,0,0,1-.967,5.317A9.837,9.837,0,0,1,481.321-2.9,11.778,11.778,0,0,1,477.2-.741,17.271,17.271,0,0,1,472.1,0H458.569ZM471.3-7.992a3.8,3.8,0,0,0,3.352-1.386,5.313,5.313,0,0,0,.935-3.094V-34.837a4.485,4.485,0,0,0-1.031-3.094,4.32,4.32,0,0,0-3.384-1.192h-3.352V-7.992ZM497.193-.064a11.435,11.435,0,0,1-4.318-2.385,10.148,10.148,0,0,1-2.771-4,15.317,15.317,0,0,1-.967-5.7V-34.966a13.438,13.438,0,0,1,1.031-5.543,11.562,11.562,0,0,1,2.9-4,11.988,11.988,0,0,1,4.318-2.449,17.406,17.406,0,0,1,5.414-.838,17.776,17.776,0,0,1,5.317.773,12.541,12.541,0,0,1,4.318,2.288,10.793,10.793,0,0,1,2.9,3.932,13.846,13.846,0,0,1,1.063,5.672v22.849a14.457,14.457,0,0,1-1.063,5.736,10.926,10.926,0,0,1-2.9,4.061,11.907,11.907,0,0,1-4.351,2.417,18.038,18.038,0,0,1-5.35.806A18.694,18.694,0,0,1,497.193-.064Zm8.766-8.669a4.976,4.976,0,0,0,1.063-3.223V-35.385a4.075,4.075,0,0,0-1.192-3.158,4.39,4.39,0,0,0-3.094-1.128,3.894,3.894,0,0,0-3.158,1.192,4.756,4.756,0,0,0-1,3.158v23.3a5.016,5.016,0,0,0,1.031,3.287,3.9,3.9,0,0,0,3.19,1.289A3.857,3.857,0,0,0,505.959-8.733ZM528.534-.064a11.435,11.435,0,0,1-4.318-2.385,10.148,10.148,0,0,1-2.771-4,15.317,15.317,0,0,1-.967-5.7V-34.966a13.438,13.438,0,0,1,1.031-5.543,11.562,11.562,0,0,1,2.9-4,11.988,11.988,0,0,1,4.318-2.449,17.406,17.406,0,0,1,5.414-.838,17.776,17.776,0,0,1,5.317.773,12.541,12.541,0,0,1,4.318,2.288,10.793,10.793,0,0,1,2.9,3.932,13.846,13.846,0,0,1,1.063,5.672v22.849a14.457,14.457,0,0,1-1.063,5.736,10.926,10.926,0,0,1-2.9,4.061,11.907,11.907,0,0,1-4.351,2.417,18.038,18.038,0,0,1-5.35.806A18.694,18.694,0,0,1,528.534-.064ZM537.3-8.733a4.976,4.976,0,0,0,1.063-3.223V-35.385a4.075,4.075,0,0,0-1.192-3.158,4.39,4.39,0,0,0-3.094-1.128,3.894,3.894,0,0,0-3.158,1.192,4.756,4.756,0,0,0-1,3.158v23.3a5.016,5.016,0,0,0,1.031,3.287,3.9,3.9,0,0,0,3.19,1.289A3.857,3.857,0,0,0,537.3-8.733Zm14.97-38.317H565.8q6.026,0,9.378,3.352t3.352,10.57a18.27,18.27,0,0,1-1.482,8.121,9.384,9.384,0,0,1-4,4.286L579.147,0h-9.636l-4.834-18.691h-3.094V0H552.27ZM565-25.62a3.6,3.6,0,0,0,3.126-1.547q1.1-1.515,1.1-5.382,0-6.8-4.286-6.8h-3.352V-25.62ZM585.124-2.9q-3.319-3.642-3.642-9.958l8.733-.29q.226,1.579.322,2.191a7.3,7.3,0,0,0,.645,2.063,4.2,4.2,0,0,0,1.225,1.482,3.35,3.35,0,0,0,2.03.548,2.752,2.752,0,0,0,2.707-1.386,6.418,6.418,0,0,0,.709-2.965,5.841,5.841,0,0,0-1.16-3.545,27.235,27.235,0,0,0-3.19-3.513l-4.479-4.447a28.1,28.1,0,0,1-5-6.026,13.23,13.23,0,0,1-1.8-6.961,14.014,14.014,0,0,1,.741-4.641,10.694,10.694,0,0,1,2.32-3.867,11.184,11.184,0,0,1,3.9-2.643,14.169,14.169,0,0,1,5.511-1,14.6,14.6,0,0,1,4.254.645,8.809,8.809,0,0,1,3.706,2.159A11.819,11.819,0,0,1,605.3-40.96a20.33,20.33,0,0,1,1.128,6.445l-8.186.258a13.915,13.915,0,0,0-1.031-4.351,2.93,2.93,0,0,0-2.965-1.772,2.914,2.914,0,0,0-2.546,1.128,4.806,4.806,0,0,0-.838,2.836,5.428,5.428,0,0,0,1.579,3.609q1.482,1.676,3.255,3.384l4.157,4.093a30.121,30.121,0,0,1,5.253,6.478,14.174,14.174,0,0,1,1.869,7.187,13.316,13.316,0,0,1-.87,4.834,11.755,11.755,0,0,1-2.514,3.964,11.455,11.455,0,0,1-3.964,2.643,13.547,13.547,0,0,1-5.253.967Q588.411.741,585.124-2.9Z" transform="translate(122.517 472.718) rotate(-8.519)" fill="#fff"/>
      <path id="Path_41" data-name="Path 41" d="M10.087-39.22H1.192v-7.831H28.327v7.831H19.465V0H10.087ZM38.861-.064a11.435,11.435,0,0,1-4.318-2.385,10.148,10.148,0,0,1-2.771-4,15.317,15.317,0,0,1-.967-5.7V-34.966a13.438,13.438,0,0,1,1.031-5.543,11.562,11.562,0,0,1,2.9-4,11.988,11.988,0,0,1,4.318-2.449,17.406,17.406,0,0,1,5.414-.838,17.776,17.776,0,0,1,5.317.773A12.541,12.541,0,0,1,54.1-44.73,10.793,10.793,0,0,1,57-40.8a13.846,13.846,0,0,1,1.063,5.672v22.849A14.457,14.457,0,0,1,57-6.542a10.926,10.926,0,0,1-2.9,4.061A11.907,11.907,0,0,1,49.753-.064,18.038,18.038,0,0,1,44.4.741,18.694,18.694,0,0,1,38.861-.064Zm8.766-8.669a4.976,4.976,0,0,0,1.063-3.223V-35.385A4.075,4.075,0,0,0,47.5-38.543,4.39,4.39,0,0,0,44.4-39.671a3.894,3.894,0,0,0-3.158,1.192,4.756,4.756,0,0,0-1,3.158v23.3a5.016,5.016,0,0,0,1.031,3.287,3.9,3.9,0,0,0,3.19,1.289A3.857,3.857,0,0,0,47.626-8.733Zm32.7,8.7A12.3,12.3,0,0,1,76.041-2.32a9.92,9.92,0,0,1-2.868-3.8,13.456,13.456,0,0,1-1-5.414V-35.643A12.084,12.084,0,0,1,73.2-40.831a11.182,11.182,0,0,1,2.933-3.8,12.791,12.791,0,0,1,4.318-2.353,17.723,17.723,0,0,1,5.317-.806,15.491,15.491,0,0,1,4.931.773,11.563,11.563,0,0,1,4,2.191,10.508,10.508,0,0,1,2.675,3.577,11.516,11.516,0,0,1,1,4.834v5.188H89.93v-4.415a4.051,4.051,0,0,0-1.128-3,4.094,4.094,0,0,0-3.029-1.1,3.894,3.894,0,0,0-3.158,1.192,4.655,4.655,0,0,0-1,3.094v23.493a4.74,4.74,0,0,0,1.063,3.319,4.075,4.075,0,0,0,3.158,1.192A4.009,4.009,0,0,0,88.8-8.572a4.009,4.009,0,0,0,1.128-2.965v-4.318h8.443v4.834a12.176,12.176,0,0,1-.967,4.963,10.673,10.673,0,0,1-2.675,3.674A11.291,11.291,0,0,1,90.7-.064a15.693,15.693,0,0,1-5,.806A18,18,0,0,1,80.327-.032Zm22.651-47.019h9.249V-7.992H125.7V0h-22.72Zm26.84,0h9.313V0h-9.313Zm14.755,0h11.892l5.06,18.724h.226L167-47.051h11.376V0h-8.25V-33.064H170l-5.285,20.077H158.3L152.887-33h-.129V0h-8.186Zm39.183,0h15.05a10.938,10.938,0,0,1,7.992,2.868q2.9,2.868,2.9,9.152,0,4.866-1.74,7.509a7.707,7.707,0,0,1-4.479,3.416v.29a8.018,8.018,0,0,1,4.77,3.513,12.885,12.885,0,0,1,1.708,7.025q0,6.832-3,10.055A10.122,10.122,0,0,1,199.192,0H183.756ZM196.84-7.605a3.012,3.012,0,0,0,2.836-1.644,9.568,9.568,0,0,0,.9-4.608q0-3.287-1.063-4.641a3.671,3.671,0,0,0-3.029-1.418H193V-7.605Zm-.483-19.916a3.481,3.481,0,0,0,3.029-1.515,8.568,8.568,0,0,0,1.063-4.834,7.832,7.832,0,0,0-.935-4.351,3.084,3.084,0,0,0-2.675-1.386H193v12.085ZM231.989-.064a11.435,11.435,0,0,1-4.318-2.385,10.148,10.148,0,0,1-2.771-4,15.317,15.317,0,0,1-.967-5.7V-34.966a13.438,13.438,0,0,1,1.031-5.543,11.562,11.562,0,0,1,2.9-4,11.988,11.988,0,0,1,4.318-2.449,17.406,17.406,0,0,1,5.414-.838,17.776,17.776,0,0,1,5.317.773,12.541,12.541,0,0,1,4.318,2.288,10.793,10.793,0,0,1,2.9,3.932,13.846,13.846,0,0,1,1.063,5.672v22.849a14.457,14.457,0,0,1-1.063,5.736,10.926,10.926,0,0,1-2.9,4.061,11.907,11.907,0,0,1-4.351,2.417,18.038,18.038,0,0,1-5.35.806A18.694,18.694,0,0,1,231.989-.064Zm8.766-8.669a4.976,4.976,0,0,0,1.063-3.223V-35.385a4.075,4.075,0,0,0-1.192-3.158,4.39,4.39,0,0,0-3.094-1.128,3.894,3.894,0,0,0-3.158,1.192,4.756,4.756,0,0,0-1,3.158v23.3a5.016,5.016,0,0,0,1.031,3.287,3.9,3.9,0,0,0,3.19,1.289A3.857,3.857,0,0,0,240.755-8.733ZM259.442-2.32q-3.448-3.029-3.448-9.442V-47.051h9.378v34.966a4.763,4.763,0,0,0,1.192,3.513,4.1,4.1,0,0,0,3.029,1.192,3.7,3.7,0,0,0,3.029-1.289,4.95,4.95,0,0,0,1-3.416V-47.051h8.895v35.03a13.839,13.839,0,0,1-1.031,5.479,11.078,11.078,0,0,1-2.868,4A12.717,12.717,0,0,1,274.331-.1a16.808,16.808,0,0,1-5.35.838Q262.955.741,259.442-2.32Zm35.606-36.9h-8.895v-7.831h27.135v7.831h-8.862V0h-9.378Zm22.038-7.831h13.6a18.01,18.01,0,0,1,5.06.677,11.813,11.813,0,0,1,4.093,2.127,9.469,9.469,0,0,1,2.739,3.513,12.062,12.062,0,0,1,.967,5.027v23.751a13.428,13.428,0,0,1-.967,5.317A9.837,9.837,0,0,1,339.838-2.9a11.778,11.778,0,0,1-4.125,2.159A17.271,17.271,0,0,1,330.621,0H317.086ZM329.815-7.992a3.8,3.8,0,0,0,3.352-1.386,5.313,5.313,0,0,0,.935-3.094V-34.837a4.485,4.485,0,0,0-1.031-3.094,4.32,4.32,0,0,0-3.384-1.192h-3.352V-7.992ZM356.172-.064a11.435,11.435,0,0,1-4.318-2.385,10.148,10.148,0,0,1-2.771-4,15.317,15.317,0,0,1-.967-5.7V-34.966a13.438,13.438,0,0,1,1.031-5.543,11.562,11.562,0,0,1,2.9-4,11.988,11.988,0,0,1,4.318-2.449,17.406,17.406,0,0,1,5.414-.838,17.776,17.776,0,0,1,5.317.773,12.541,12.541,0,0,1,4.318,2.288,10.793,10.793,0,0,1,2.9,3.932,13.846,13.846,0,0,1,1.063,5.672v22.849a14.457,14.457,0,0,1-1.063,5.736,10.926,10.926,0,0,1-2.9,4.061,11.907,11.907,0,0,1-4.351,2.417,18.038,18.038,0,0,1-5.35.806A18.694,18.694,0,0,1,356.172-.064Zm8.766-8.669A4.976,4.976,0,0,0,366-11.956V-35.385a4.075,4.075,0,0,0-1.192-3.158,4.39,4.39,0,0,0-3.094-1.128,3.894,3.894,0,0,0-3.158,1.192,4.756,4.756,0,0,0-1,3.158v23.3a5.016,5.016,0,0,0,1.031,3.287,3.9,3.9,0,0,0,3.19,1.289A3.857,3.857,0,0,0,364.938-8.733ZM387.975-.064a11.435,11.435,0,0,1-4.318-2.385,10.148,10.148,0,0,1-2.771-4,15.317,15.317,0,0,1-.967-5.7V-34.966a13.438,13.438,0,0,1,1.031-5.543,11.562,11.562,0,0,1,2.9-4,11.988,11.988,0,0,1,4.318-2.449,17.406,17.406,0,0,1,5.414-.838,17.776,17.776,0,0,1,5.317.773,12.541,12.541,0,0,1,4.318,2.288,10.793,10.793,0,0,1,2.9,3.932,13.846,13.846,0,0,1,1.063,5.672v22.849a14.457,14.457,0,0,1-1.063,5.736,10.926,10.926,0,0,1-2.9,4.061,11.907,11.907,0,0,1-4.351,2.417,18.038,18.038,0,0,1-5.35.806A18.694,18.694,0,0,1,387.975-.064Zm8.766-8.669a4.976,4.976,0,0,0,1.063-3.223V-35.385a4.075,4.075,0,0,0-1.192-3.158,4.39,4.39,0,0,0-3.094-1.128,3.894,3.894,0,0,0-3.158,1.192,4.756,4.756,0,0,0-1,3.158v23.3a5.016,5.016,0,0,0,1.031,3.287,3.9,3.9,0,0,0,3.19,1.289A3.857,3.857,0,0,0,396.741-8.733Zm15.432-38.317h13.535q6.026,0,9.378,3.352t3.352,10.57a18.27,18.27,0,0,1-1.482,8.121,9.384,9.384,0,0,1-4,4.286L439.05,0h-9.636L424.58-18.691h-3.094V0h-9.313ZM424.9-25.62a3.6,3.6,0,0,0,3.126-1.547q1.1-1.515,1.1-5.382,0-6.8-4.286-6.8h-3.352V-25.62ZM445.555-2.9q-3.319-3.642-3.642-9.958l8.733-.29q.226,1.579.322,2.191a7.3,7.3,0,0,0,.645,2.063,4.2,4.2,0,0,0,1.225,1.482,3.35,3.35,0,0,0,2.03.548,2.752,2.752,0,0,0,2.707-1.386,6.418,6.418,0,0,0,.709-2.965,5.841,5.841,0,0,0-1.16-3.545,27.235,27.235,0,0,0-3.19-3.513l-4.479-4.447a28.1,28.1,0,0,1-5-6.026,13.23,13.23,0,0,1-1.8-6.961,14.014,14.014,0,0,1,.741-4.641,10.694,10.694,0,0,1,2.32-3.867,11.184,11.184,0,0,1,3.9-2.643,14.169,14.169,0,0,1,5.511-1,14.6,14.6,0,0,1,4.254.645,8.809,8.809,0,0,1,3.706,2.159,11.819,11.819,0,0,1,2.643,4.093,20.33,20.33,0,0,1,1.128,6.445l-8.186.258a13.915,13.915,0,0,0-1.031-4.351,2.93,2.93,0,0,0-2.965-1.772,2.914,2.914,0,0,0-2.546,1.128,4.806,4.806,0,0,0-.838,2.836,5.428,5.428,0,0,0,1.579,3.609q1.482,1.676,3.255,3.384l4.157,4.093a30.121,30.121,0,0,1,5.253,6.478,14.174,14.174,0,0,1,1.869,7.187,13.316,13.316,0,0,1-.87,4.834,11.755,11.755,0,0,1-2.514,3.964,11.455,11.455,0,0,1-3.964,2.643A13.547,13.547,0,0,1,454.8.741Q448.842.741,445.555-2.9Z" transform="translate(233.123 523.005) rotate(-8.519)" fill="#fff"/>
      <path id="Path_27" data-name="Path 27" d="M42.882,139.35l-.455,1.175L83.741,382.077l334.974-59.752,28.224-137.088L238.781,77.587,250.294,0Z" transform="translate(18.902)"/>
      <path id="Path_28" data-name="Path 28" d="M189.777,0,178.264,77.587l208.158,107.65Z" transform="translate(79.419)" fill="#fff"/>
      <path id="Path_29" data-name="Path 29" d="M102.643,338.767Zm0,0,71.478,58.351,263.393-117.6.1-.506ZM0,254.974l102.643,83.793L61.329,97.215Z" transform="translate(0 43.311)" fill="#fff"/>
      <g id="Group_10" data-name="Group 10" transform="translate(0 0)">
        <g id="Group_9" data-name="Group 9" clip-path="url(#clip-path)">
          <g id="Group_13" data-name="Group 13" transform="translate(89.039 112.084)">
            <path id="Path_30" data-name="Path 30" d="M93.372,143.423q2.357-3.97,1.168-10.652a13.375,13.375,0,0,0-3.027-6.84A8.371,8.371,0,0,0,86,123.151l-.049-.27q6.008-3.018,4.351-12.332-1.106-6.208-4.548-8.729t-8.773-1.571L61.6,102.986l8.565,48.12,15.794-2.812a10.213,10.213,0,0,0,7.417-4.871M72.4,108.93l3.914-.7q3.71-.661,4.756,5.213,1.154,6.479-3.031,7.223l-3.44.611Zm9.74,32.035-3.914.7-2.245-12.619,3.576-.637q4.183-.744,5.288,5.465,1.14,6.409-2.7,7.095" transform="translate(-61.597 -67.538)" fill="#fff"/>
            <path id="Path_31" data-name="Path 31" d="M94.423,144.208q4.337,2.639,10.747,1.5a14.993,14.993,0,0,0,9.449-5.2q3.3-4.1,2.154-10.585l-4.156-23.351q-1.143-6.409-5.6-8.993a15.253,15.253,0,0,0-10.606-1.489,14.869,14.869,0,0,0-9.475,5.236q-3.272,4.135-2.162,10.344l4.156,23.351q1.164,6.546,5.5,9.186m-.064-34.594a4.742,4.742,0,0,1,.5-3.465A4.145,4.145,0,0,1,97.82,104.4a4.135,4.135,0,0,1,5.165,3.607l4.264,23.958a4.938,4.938,0,0,1-.523,3.5,4.727,4.727,0,0,1-6.412,1.142,5.051,5.051,0,0,1-1.714-3.177Z" transform="translate(-51.398 -69.419)" fill="#fff"/>
            <path id="Path_32" data-name="Path 32" d="M127.689,142.2a14.68,14.68,0,0,0,9.344-5.213q3.265-4.135,2.173-10.275l-6.378-35.836-9.111,1.622,6.366,35.768a5.117,5.117,0,0,1-.386,3.69,3.9,3.9,0,0,1-2.878,1.834,4.175,4.175,0,0,1-3.359-.689,5.033,5.033,0,0,1-1.813-3.335L115.281,94,105.7,95.7l6.427,36.107q1.14,6.409,5.181,8.964t10.385,1.424" transform="translate(-41.95 -71.599)" fill="#fff"/>
            <path id="Path_33" data-name="Path 33" d="M158.336,126.581l-13.767,2.45-7.11-39.953-9.449,1.683,8.565,48.118,23.216-4.131Z" transform="translate(-32.009 -72.399)" fill="#fff"/>
            <path id="Path_34" data-name="Path 34" d="M178.408,128.573q3.124-3.76,2.057-9.764l-4.325-24.3q-1.008-5.67-5.215-7.982a14.853,14.853,0,0,0-10.012-1.282l-13.9,2.475,8.565,48.118,13.836-2.463a14.523,14.523,0,0,0,9-4.8m-14.837-2.582L157.9,94.138l3.44-.613a4.157,4.157,0,0,1,5.3,3.582l4.072,22.878a5.071,5.071,0,0,1-.5,3.465,4.1,4.1,0,0,1-3.072,1.905Z" transform="translate(-23.544 -74.248)" fill="#fff"/>
            <path id="Path_35" data-name="Path 35" d="M183.428,109.985l10.866-1.934-1.443-8.1-10.864,1.934-2.018-11.339,13.7-2.439-1.43-8.03L169.09,84.2l8.565,48.118,23.215-4.131-1.453-8.167-13.767,2.45Z" transform="translate(-13.707 -76.407)" fill="#fff"/>
            <path id="Path_36" data-name="Path 36" d="M203.23,109.277l2.2-.392,9.352,16.438,9.889-1.761-10.836-17.625q5.423-4.38,3.448-15.523Q214.661,75.7,202.851,77.8L188.273,80.4l8.565,48.12,9.516-1.694ZM199.194,86.6l3.374-.6q4.185-.746,5.435,6.274,1.405,7.895-2.846,8.653l-3.307.588Z" transform="translate(-5.161 -77.539)" fill="#fff"/>
          </g>
          <g id="Group_12" data-name="Group 12" transform="translate(98.554 156.205)">
            <path id="Path_37" data-name="Path 37" d="M182.508,183.067l-26.1-52.189-30.948,5.509,46.606,83.659,10.318,57.977,29.3-5.215L201.4,215.039l14.84-94.808-27.851,4.957Z" transform="translate(-42.661 -102.641)" fill="#fff"/>
            <path id="Path_38" data-name="Path 38" d="M257.669,112.652l13.991,78.608-.62.111L226.1,118.27l-29.711,5.288,26.183,147.107,25.792-4.591-15.681-88.1.619-.111,50.135,81.966,26.2-4.665L283.459,108.062Z" transform="translate(-11.059 -108.062)" fill="#fff"/>
            <path id="Path_39" data-name="Path 39" d="M156.123,174.7q-7.938-44.61-43.744-38.235l-44.2,7.868L94.145,290.219,123,285.084l-9.468-53.2,6.661-1.185,28.355,49.835,29.979-5.335L145.689,221.79q16.446-13.274,10.434-47.092M101.29,163.134l10.231-1.821q12.687-2.257,16.475,19.024,4.261,23.936-8.627,26.233l-10.03,1.785Z" transform="translate(-68.179 -95.764)" fill="#fff"/>
          </g>
        </g>
      </g>
    </g>
  </g>
</svg>
